<?xml version="1.0" encoding="UTF-8"?> <!-- Generator: Adobe Illustrator 24.0.2, SVG Export Plug-In . SVG Version: 6.00 Build 0) --> <svg xmlns="http://www.w3.org/2000/svg" xmlns:xlink="http://www.w3.org/1999/xlink" version="1.1" id="Layer_1" x="0px" y="0px" viewBox="0 0 522.67 435.56" style="enable-background:new 0 0 522.67 435.56;" xml:space="preserve"> <style type="text/css"> .st0{fill:#076BA7;} .st1{fill:#0297CD;} .st2{fill:#0B6CA8;} </style> <g> <path class="st0" d="M306.84,199.99c0-3.85,0-9.71,0-13.56c0-3.26,0.94-6.14,4.7-6.2c3.76-0.07,4.86,2.71,4.87,6.02 c0.01,8.18-0.05,16.36,0.04,24.54c0.05,4-1.72,6.33-5.72,6.38c-8.66,0.12-17.33,0.12-25.99-0.04c-3.07-0.06-5.43-1.48-5.27-5.11 c0.17-3.72,2.73-4.45,5.79-4.46c3.89-0.01,8.44,0.04,13.77,0.04c-1.76-2.38-3.25-3.85-4.37-4.99 c-6.32-6.41-12.71-12.74-19.07-19.11c-2.49-2.49-4.59-5.4-1.23-8.37c3.01-2.65,5.97-1.15,8.55,1.5c6.06,6.2,12.23,12.3,18.38,18.41 c1.24,1.23,2.59,2.34,3.89,3.5C306.26,199.6,306.84,199.99,306.84,199.99z"></path> <path class="st0" d="M223.48,207.81c3.85,0,9.71,0,13.56,0c3.26,0,6.14,0.94,6.2,4.7c0.07,3.76-2.71,4.86-6.02,4.87 c-8.18,0.01-16.36-0.05-24.54,0.04c-4,0.05-6.33-1.72-6.38-5.72c-0.12-8.66-0.12-17.33,0.04-25.99c0.06-3.07,1.48-5.43,5.11-5.27 c3.72,0.17,4.45,2.73,4.46,5.79c0.01,3.89-0.04,8.44-0.04,13.77c2.38-1.76,3.85-3.25,4.99-4.37c6.41-6.32,12.74-12.71,19.11-19.07 c2.49-2.49,5.4-4.59,8.37-1.23c2.65,3.01,1.15,5.97-1.5,8.55c-6.2,6.06-12.3,12.23-18.41,18.38c-1.23,1.24-2.34,2.59-3.5,3.89 C223.88,207.23,223.48,207.81,223.48,207.81z"></path> <path class="st0" d="M299.18,119.68c-3.85,0-9.71,0-13.56,0c-3.26,0-6.14-0.94-6.2-4.7c-0.07-3.76,2.71-4.86,6.02-4.87 c8.18-0.01,16.36,0.05,24.54-0.04c4-0.05,6.33,1.72,6.38,5.72c0.12,8.66,0.12,17.33-0.04,25.99c-0.06,3.07-1.48,5.43-5.11,5.27 c-3.72-0.17-4.45-2.73-4.46-5.79c-0.01-3.89,0.04-8.44,0.04-13.77c-2.38,1.76-3.85,3.25-4.99,4.37 c-6.41,6.32-12.74,12.71-19.11,19.07c-2.49,2.49-5.4,4.59-8.37,1.23c-2.65-3.01-1.15-5.97,1.5-8.55 c6.2-6.06,12.3-12.23,18.41-18.38c1.23-1.24,2.34-2.59,3.5-3.89C298.79,120.26,299.18,119.68,299.18,119.68z"></path> <path class="st0" d="M215.82,127.5c0,3.85,0,9.71,0,13.56c0,3.26-0.94,6.14-4.7,6.2c-3.76,0.07-4.86-2.71-4.87-6.02 c-0.01-8.18,0.05-16.36-0.04-24.54c-0.05-4,1.72-6.33,5.72-6.38c8.66-0.12,17.33-0.12,25.99,0.04c3.07,0.06,5.43,1.48,5.27,5.11 c-0.17,3.72-2.73,4.45-5.79,4.46c-3.89,0.01-8.44-0.04-13.77-0.04c1.76,2.38,3.25,3.85,4.37,4.99 c6.32,6.41,12.71,12.74,19.07,19.11c2.49,2.49,4.59,5.4,1.23,8.37c-3.01,2.65-5.97,1.15-8.55-1.5c-6.06-6.2-12.23-12.3-18.38-18.41 c-1.24-1.23-2.59-2.34-3.89-3.5C216.41,127.89,215.82,127.5,215.82,127.5z"></path> </g> <g> <g> <path class="st0" d="M-1182.88,184.96c-35.76,0-71.52,0-107.29,0c-0.11-0.06-0.21-0.14-0.33-0.17c-6.11-1.45-9.31-5.47-9.31-11.73 c0-20.43,0-40.86,0-61.3c0-0.47,0-0.95,0-1.48c42.31,0,84.44,0,126.57,0c0,21.68,0,43.35,0,65.03c-0.09,0.31-0.19,0.62-0.27,0.94 c-1.01,3.96-3.41,6.68-7.25,8.09C-1181.45,184.6-1182.17,184.76-1182.88,184.96z M-1236.55,118.19c-14.58,0-29.17,0-43.75,0 c-3.06,0-4.42,1.37-4.42,4.46c0,14.34,0,28.68,0,43.02c0,3.08,1.37,4.45,4.43,4.45c29.17,0,58.33,0,87.5,0 c3.15,0,4.49-1.35,4.49-4.52c0-14.3,0-28.59,0-42.89c0-3.17-1.34-4.51-4.49-4.51C-1207.39,118.19-1221.97,118.19-1236.55,118.19z"></path> <path class="st0" d="M-1173.24,82.84c0,6.68,0,13.35,0,20.03c-42.17,0-84.33,0-126.54,0c0-6.6-0.15-13.03,0.05-19.44 c0.16-5.02,4.08-9.2,9.07-9.98c1.94-0.3,3.94-0.21,5.91-0.23c2.54-0.03,5.09-0.01,7.63-0.01c0.11-0.7,0.2-1.27,0.3-1.83 c0.63-3.49,1.72-6.79,4.01-9.57c3.77-4.58,9.49-4.58,13.26,0c2.63,3.2,3.71,7,4.25,11.08c-2.52,0-4.96,0-7.45,0 c-0.08-0.38-0.12-0.71-0.23-1.01c-0.65-1.68-1.18-3.42-2.02-4.99c-0.78-1.45-1.48-1.38-2.41,0.02c-1.25,1.88-1.85,3.98-2.15,6.32 c2.31,0,4.53,0,7.07,0c0,1.78,0.08,3.46-0.02,5.12c-0.16,2.9-0.68,5.74-2.25,8.25c-0.38,0.6-1.06,1.24-1.71,1.4 c-2.35,0.57-3.74,2.26-3.36,4.38c0.37,2.11,2.31,3.38,4.65,3.02c2.27-0.35,4.06-1.52,5.52-3.24c2.36-2.79,3.63-6.1,4.1-9.65 c0.4-3.03,0.44-6.11,0.65-9.32c2.34,0,4.92,0,7.48,0c0.11-0.7,0.2-1.27,0.3-1.83c0.64-3.53,1.75-6.87,4.1-9.66 c3.74-4.45,9.38-4.44,13.1,0.02c2.68,3.21,3.77,7.05,4.32,11.16c-2.52,0-4.97,0-7.45,0c-0.08-0.38-0.11-0.72-0.23-1.02 c-0.65-1.68-1.18-3.42-2.03-4.99c-0.76-1.42-1.44-1.37-2.34-0.06c-1.31,1.89-1.9,4.04-2.22,6.42c2.33,0,4.54,0,7.07,0 c0,1.78,0.08,3.46-0.02,5.13c-0.17,2.94-0.69,5.82-2.33,8.35c-0.36,0.56-1.02,1.15-1.65,1.29c-2.29,0.55-3.67,2.18-3.37,4.27 c0.3,2.12,2.21,3.45,4.55,3.14c2.32-0.31,4.16-1.5,5.63-3.27c2.75-3.28,3.96-7.2,4.34-11.36c0.22-2.47,0.04-4.98,0.04-7.61 c2.71,0,5.28,0,7.85,0c0.11-0.7,0.19-1.27,0.3-1.84c0.71-3.82,1.91-7.43,4.7-10.29c3.15-3.23,7.46-3.63,10.79-0.89 c3.98,3.26,5.29,7.84,6.04,12.74c-2.56,0-4.98,0-7.45,0c-0.09-0.35-0.13-0.68-0.25-0.98c-0.61-1.61-1.1-3.28-1.89-4.79 c-0.92-1.74-1.63-1.7-2.67-0.06c-1.16,1.84-1.74,3.87-2.03,6.17c2.32,0,4.56,0,7.06,0c0,1.87,0.09,3.6-0.02,5.31 c-0.17,2.77-0.71,5.47-2.14,7.91c-0.51,0.87-1.1,1.5-2.25,1.67c-1.9,0.27-3.13,2.07-2.95,3.96c0.17,1.87,1.73,3.33,3.66,3.34 c2.26,0.02,4.15-0.91,5.75-2.47c2.57-2.51,3.87-5.69,4.65-9.11c0.79-3.47,0.96-6.99,0.55-10.57c0.23-0.04,0.38-0.09,0.54-0.09 c3.87,0,7.75-0.07,11.62,0.03c4.35,0.11,8.29,3.04,9.8,7.14C-1173.68,81.17-1173.48,82.01-1173.24,82.84z"></path> <path class="st0" d="M-1277.26,140.35c0-4.89,0-9.74,0-14.66c4.91,0,9.78,0,14.72,0c0,4.87,0,9.71,0,14.66 C-1267.39,140.35-1272.26,140.35-1277.26,140.35z"></path> <path class="st0" d="M-1240.28,125.68c0,4.91,0,9.75,0,14.68c-4.88,0-9.75,0-14.7,0c0-4.87,0-9.74,0-14.68 C-1250.11,125.68-1245.27,125.68-1240.28,125.68z"></path> <path class="st0" d="M-1232.72,125.67c4.93,0,9.77,0,14.68,0c0,4.9,0,9.74,0,14.68c-4.85,0-9.72,0-14.68,0 C-1232.72,135.51-1232.72,130.64-1232.72,125.67z"></path> <path class="st0" d="M-1210.48,125.67c4.93,0,9.77,0,14.68,0c0,4.9,0,9.74,0,14.68c-4.85,0-9.72,0-14.68,0 C-1210.48,135.51-1210.48,130.64-1210.48,125.67z"></path> <path class="st0" d="M-1262.57,162.65c-4.91,0-9.75,0-14.66,0c0-4.92,0-9.79,0-14.72c4.89,0,9.73,0,14.66,0 C-1262.57,152.79-1262.57,157.66-1262.57,162.65z"></path> <path class="st0" d="M-1254.96,147.89c4.92,0,9.73,0,14.63,0c0,4.9,0,9.77,0,14.72c-4.85,0-9.72,0-14.63,0 C-1254.96,157.7-1254.96,152.8-1254.96,147.89z"></path> <path class="st0" d="M-1218.08,162.68c-4.92,0-9.73,0-14.63,0c0-4.9,0-9.77,0-14.72c4.85,0,9.72,0,14.63,0 C-1218.08,152.87-1218.08,157.77-1218.08,162.68z"></path> <path class="st0" d="M-1210.48,147.92c4.93,0,9.78,0,14.68,0c0,4.9,0,9.74,0,14.68c-4.85,0-9.72,0-14.68,0 C-1210.48,157.76-1210.48,152.89-1210.48,147.92z"></path> </g> <g> <path class="st1" d="M-1310.64,306.13h-20.25v-39.09c0-4.75,0.1-9.09,0.3-13.03c-1.25,1.51-2.79,3.1-4.65,4.75l-8.38,6.92 l-10.35-12.73l25.35-20.65h17.98V306.13z"></path> <path class="st1" d="M-1240.4,266.09c0,14.44-3.11,24.9-9.34,31.36c-6.23,6.46-16.19,9.7-29.9,9.7c-4.51,0-7.95-0.17-10.3-0.5 v-15.81c2.9,0.54,5.79,0.81,8.69,0.81c7.14,0,12.64-1.47,16.51-4.42c3.87-2.95,5.98-7.6,6.31-13.96h-0.61 c-1.31,2.42-2.61,4.17-3.89,5.25c-1.28,1.08-2.85,1.9-4.7,2.47c-1.85,0.57-4.16,0.86-6.92,0.86c-6.4,0-11.4-2.14-15-6.41 c-3.6-4.27-5.4-10.17-5.4-17.67c0-8.18,2.33-14.59,6.99-19.24c4.66-4.65,11.05-6.97,19.16-6.97c9.02,0,16.01,3,20.96,8.99 C-1242.87,246.53-1240.4,255.05-1240.4,266.09z M-1268.22,247.5c-2.19,0-3.96,0.79-5.33,2.37c-1.36,1.58-2.05,4.12-2.05,7.63 c0,2.76,0.59,4.96,1.77,6.59c1.18,1.63,2.98,2.45,5.4,2.45c2.19,0,4.09-0.79,5.71-2.37c1.62-1.58,2.42-3.48,2.42-5.71 c0-3-0.75-5.57-2.25-7.73C-1264.04,248.58-1265.93,247.5-1268.22,247.5z"></path> <path class="st1" d="M-1177.98,291.84h-8.13v14.29h-19.69v-14.29h-29.44V277.2l30.7-44.89h18.43v44.64h8.13V291.84z M-1205.8,276.94v-8.58c0-1.62,0.06-3.8,0.18-6.54c0.12-2.74,0.21-4.18,0.28-4.32h-0.56c-1.15,2.59-2.44,5.02-3.89,7.27 l-8.18,12.17H-1205.8z"></path> <path class="st1" d="M-1145.91,231.24c7.78,0,13.83,1.57,18.15,4.7c4.33,3.13,6.49,7.57,6.49,13.33c0,3.91-1.02,7.33-3.05,10.28 c-2.04,2.95-5.26,5.51-9.67,7.7c5.45,3.1,9.3,6.19,11.54,9.27c2.24,3.08,3.36,6.41,3.36,9.97c0,6.56-2.37,11.65-7.12,15.25 c-4.75,3.6-11.38,5.4-19.9,5.4c-8.69,0-15.33-1.76-19.95-5.28c-4.61-3.52-6.92-8.58-6.92-15.17c0-4.27,1.03-7.92,3.08-10.93 c2.05-3.01,5.5-5.75,10.35-8.21c-3.91-2.63-6.76-5.44-8.56-8.46c-1.8-3.01-2.7-6.32-2.7-9.92c0-5.66,2.2-10.06,6.62-13.21 C-1159.78,232.82-1153.69,231.24-1145.91,231.24z M-1154.7,285.88c0,2.09,0.74,3.76,2.22,5.02c1.48,1.26,3.53,1.89,6.16,1.89 c5.92,0,8.89-2.17,8.89-6.51c0-1.65-0.65-3.27-1.94-4.87c-1.3-1.6-3.61-3.39-6.94-5.38c-3,1.58-5.14,3.17-6.44,4.77 C-1154.05,282.41-1154.7,284.1-1154.7,285.88z M-1146.01,245.64c-1.72,0-3.17,0.5-4.34,1.49c-1.18,0.99-1.77,2.28-1.77,3.86 c0,2.9,1.97,5.45,5.91,7.68c2.39-1.38,4.02-2.64,4.9-3.79c0.88-1.14,1.31-2.44,1.31-3.89c0-1.62-0.59-2.91-1.77-3.89 C-1142.95,246.12-1144.37,245.64-1146.01,245.64z"></path> </g> <g> <path class="st0" d="M-1437.43,356.72l9.84-18.45h4.64l-12.31,22.58v14.31h-4.34v-14.1l-12.29-22.79h4.69L-1437.43,356.72z"></path> <path class="st0" d="M-1404.24,375.67c-4.09,0-7.31-1.25-9.68-3.73c-2.36-2.49-3.54-5.95-3.54-10.37c0-4.46,1.1-8,3.29-10.62 c2.19-2.62,5.14-3.94,8.84-3.94c3.47,0,6.21,1.14,8.23,3.42c2.02,2.28,3.03,5.29,3.03,9.02v2.65h-19.05 c0.08,3.25,0.9,5.71,2.46,7.39c1.56,1.68,3.75,2.52,6.57,2.52c2.98,0,5.92-0.62,8.83-1.87v3.73c-1.48,0.64-2.88,1.1-4.2,1.38 C-1400.78,375.53-1402.38,375.67-1404.24,375.67z M-1405.38,350.52c-2.22,0-3.99,0.72-5.31,2.17c-1.32,1.45-2.1,3.45-2.33,6.01 h14.46c0-2.64-0.59-4.66-1.77-6.07C-1401.51,351.22-1403.19,350.52-1405.38,350.52z"></path> <path class="st0" d="M-1367.34,375.17l-0.83-3.94h-0.2c-1.38,1.73-2.75,2.91-4.13,3.52c-1.37,0.61-3.08,0.92-5.13,0.92 c-2.74,0-4.89-0.71-6.45-2.12c-1.56-1.41-2.33-3.42-2.33-6.03c0-5.58,4.47-8.51,13.4-8.78l4.69-0.15v-1.72 c0-2.17-0.47-3.77-1.4-4.81s-2.43-1.55-4.48-1.55c-2.3,0-4.91,0.71-7.82,2.12l-1.29-3.2c1.36-0.74,2.85-1.32,4.48-1.74 c1.62-0.42,3.25-0.63,4.88-0.63c3.3,0,5.74,0.73,7.33,2.2c1.59,1.46,2.38,3.81,2.38,7.04v18.87H-1367.34z M-1376.81,372.22 c2.61,0,4.66-0.71,6.14-2.15c1.49-1.43,2.23-3.43,2.23-6.01v-2.5l-4.19,0.18c-3.33,0.12-5.73,0.64-7.2,1.55 c-1.47,0.92-2.21,2.34-2.21,4.28c0,1.51,0.46,2.67,1.38,3.46C-1379.74,371.82-1378.45,372.22-1376.81,372.22z"></path> <path class="st0" d="M-1340.41,347.01c1.23,0,2.33,0.1,3.31,0.3l-0.58,3.89c-1.14-0.25-2.15-0.38-3.03-0.38 c-2.24,0-4.15,0.91-5.74,2.73c-1.59,1.82-2.38,4.08-2.38,6.79v14.84h-4.19v-27.65h3.46l0.48,5.12h0.2 c1.03-1.8,2.26-3.19,3.71-4.16C-1343.73,347.5-1342.14,347.01-1340.41,347.01z"></path> <path class="st0" d="M-1292.15,375.17h-20.56v-36.89h20.56v3.81h-16.27v11.88h15.29v3.78h-15.29v13.58h16.27V375.17z"></path> <path class="st0" d="M-1264.18,367.62c0,2.57-0.96,4.56-2.88,5.95c-1.92,1.4-4.61,2.09-8.07,2.09c-3.67,0-6.53-0.58-8.58-1.74 v-3.89c1.33,0.67,2.75,1.2,4.28,1.59c1.52,0.39,2.99,0.58,4.4,0.58c2.19,0,3.87-0.35,5.05-1.05c1.18-0.7,1.77-1.76,1.77-3.19 c0-1.08-0.47-2-1.4-2.76s-2.75-1.67-5.46-2.71c-2.57-0.96-4.4-1.8-5.49-2.51c-1.08-0.71-1.89-1.53-2.42-2.44 c-0.53-0.91-0.79-1.99-0.79-3.25c0-2.25,0.92-4.03,2.75-5.34c1.83-1.3,4.35-1.96,7.54-1.96c2.98,0,5.89,0.61,8.73,1.82l-1.49,3.41 c-2.78-1.14-5.29-1.72-7.54-1.72c-1.99,0-3.48,0.31-4.49,0.93c-1.01,0.62-1.51,1.48-1.51,2.57c0,0.74,0.19,1.37,0.57,1.89 s0.99,1.02,1.83,1.49c0.84,0.47,2.46,1.15,4.84,2.04c3.28,1.19,5.5,2.4,6.65,3.61C-1264.75,364.27-1264.18,365.79-1264.18,367.62z "></path> <path class="st0" d="M-1245.85,372.22c0.74,0,1.45-0.05,2.14-0.16c0.69-0.11,1.24-0.22,1.64-0.34v3.2 c-0.45,0.22-1.12,0.4-2.01,0.54c-0.88,0.14-1.68,0.21-2.38,0.21c-5.35,0-8.02-2.82-8.02-8.45v-16.45h-3.96v-2.02l3.96-1.74 l1.77-5.9h2.42v6.41h8.02v3.25h-8.02v16.27c0,1.67,0.4,2.94,1.19,3.84S-1247.23,372.22-1245.85,372.22z"></path> <path class="st0" d="M-1216.95,375.17l-0.83-3.94h-0.2c-1.38,1.73-2.75,2.91-4.13,3.52c-1.37,0.61-3.08,0.92-5.13,0.92 c-2.74,0-4.89-0.71-6.45-2.12c-1.56-1.41-2.33-3.42-2.33-6.03c0-5.58,4.47-8.51,13.4-8.78l4.69-0.15v-1.72 c0-2.17-0.47-3.77-1.4-4.81s-2.43-1.55-4.48-1.55c-2.3,0-4.91,0.71-7.82,2.12l-1.29-3.2c1.36-0.74,2.85-1.32,4.48-1.74 c1.62-0.42,3.25-0.63,4.88-0.63c3.3,0,5.74,0.73,7.33,2.2c1.59,1.46,2.38,3.81,2.38,7.04v18.87H-1216.95z M-1226.41,372.22 c2.61,0,4.66-0.71,6.14-2.15c1.49-1.43,2.23-3.43,2.23-6.01v-2.5l-4.19,0.18c-3.33,0.12-5.73,0.64-7.2,1.55 c-1.47,0.92-2.21,2.34-2.21,4.28c0,1.51,0.46,2.67,1.38,3.46C-1229.34,371.82-1228.06,372.22-1226.41,372.22z"></path> <path class="st0" d="M-1189.76,347.06c3.63,0,6.46,1.24,8.47,3.72c2.01,2.48,3.02,5.99,3.02,10.53c0,4.54-1.01,8.07-3.04,10.58 c-2.03,2.52-4.84,3.77-8.44,3.77c-1.8,0-3.44-0.33-4.93-1c-1.49-0.66-2.74-1.69-3.75-3.07h-0.3l-0.88,3.56h-3v-39.26h4.19v9.54 c0,2.14-0.07,4.05-0.2,5.75h0.2C-1196.49,348.44-1193.6,347.06-1189.76,347.06z M-1190.37,350.57c-2.86,0-4.92,0.82-6.18,2.46 s-1.89,4.4-1.89,8.29c0,3.89,0.65,6.67,1.94,8.34s3.37,2.51,6.23,2.51c2.57,0,4.49-0.94,5.75-2.81s1.89-4.57,1.89-8.09 c0-3.6-0.63-6.28-1.89-8.05C-1185.77,351.45-1187.73,350.57-1190.37,350.57z"></path> <path class="st0" d="M-1164.19,375.17h-4.19v-39.26h4.19V375.17z"></path> <path class="st0" d="M-1153.08,340.02c0-0.96,0.24-1.66,0.71-2.11c0.47-0.45,1.06-0.67,1.77-0.67c0.67,0,1.25,0.23,1.74,0.68 c0.49,0.45,0.73,1.15,0.73,2.09s-0.24,1.64-0.73,2.11c-0.49,0.46-1.07,0.69-1.74,0.69c-0.71,0-1.3-0.23-1.77-0.69 C-1152.84,341.66-1153.08,340.96-1153.08,340.02z M-1148.54,375.17h-4.19v-27.65h4.19V375.17z"></path> <path class="st0" d="M-1119.23,367.62c0,2.57-0.96,4.56-2.88,5.95c-1.92,1.4-4.61,2.09-8.07,2.09c-3.67,0-6.53-0.58-8.58-1.74 v-3.89c1.33,0.67,2.75,1.2,4.28,1.59c1.52,0.39,2.99,0.58,4.4,0.58c2.19,0,3.87-0.35,5.05-1.05c1.18-0.7,1.77-1.76,1.77-3.19 c0-1.08-0.47-2-1.4-2.76s-2.75-1.67-5.46-2.71c-2.57-0.96-4.4-1.8-5.49-2.51c-1.08-0.71-1.89-1.53-2.42-2.44 c-0.53-0.91-0.79-1.99-0.79-3.25c0-2.25,0.92-4.03,2.75-5.34c1.83-1.3,4.35-1.96,7.54-1.96c2.98,0,5.89,0.61,8.73,1.82l-1.49,3.41 c-2.78-1.14-5.29-1.72-7.54-1.72c-1.99,0-3.48,0.31-4.49,0.93c-1.01,0.62-1.51,1.48-1.51,2.57c0,0.74,0.19,1.37,0.57,1.89 s0.99,1.02,1.83,1.49c0.84,0.47,2.46,1.15,4.84,2.04c3.28,1.19,5.5,2.4,6.65,3.61C-1119.81,364.27-1119.23,365.79-1119.23,367.62z "></path> <path class="st0" d="M-1090.91,375.17v-17.89c0-2.25-0.51-3.94-1.54-5.05c-1.03-1.11-2.63-1.67-4.82-1.67 c-2.91,0-5.03,0.79-6.37,2.37c-1.34,1.58-2.01,4.17-2.01,7.77v14.46h-4.19v-39.26h4.19v11.88c0,1.43-0.07,2.62-0.2,3.56h0.25 c0.82-1.33,2-2.38,3.52-3.14c1.52-0.77,3.26-1.15,5.21-1.15c3.38,0,5.92,0.8,7.61,2.41c1.69,1.61,2.54,4.16,2.54,7.66v18.04 H-1090.91z"></path> <path class="st0" d="M-1063.85,375.67c-4.09,0-7.31-1.25-9.68-3.73c-2.36-2.49-3.54-5.95-3.54-10.37c0-4.46,1.1-8,3.29-10.62 c2.19-2.62,5.14-3.94,8.84-3.94c3.47,0,6.21,1.14,8.23,3.42c2.02,2.28,3.03,5.29,3.03,9.02v2.65h-19.05 c0.08,3.25,0.9,5.71,2.46,7.39c1.56,1.68,3.75,2.52,6.57,2.52c2.98,0,5.92-0.62,8.83-1.87v3.73c-1.48,0.64-2.88,1.1-4.2,1.38 C-1060.39,375.53-1061.98,375.67-1063.85,375.67z M-1064.99,350.52c-2.22,0-3.99,0.72-5.31,2.17c-1.32,1.45-2.1,3.45-2.33,6.01 h14.46c0-2.64-0.59-4.66-1.77-6.07C-1061.12,351.22-1062.8,350.52-1064.99,350.52z"></path> <path class="st0" d="M-1025.13,371.46h-0.23c-1.94,2.81-4.83,4.21-8.68,4.21c-3.62,0-6.43-1.24-8.44-3.71 c-2.01-2.47-3.02-5.99-3.02-10.55c0-4.56,1.01-8.1,3.03-10.62c2.02-2.52,4.83-3.79,8.43-3.79c3.75,0,6.63,1.36,8.63,4.09h0.33 l-0.18-1.99l-0.1-1.94v-11.25h4.19v39.26h-3.41L-1025.13,371.46z M-1033.51,372.16c2.86,0,4.93-0.78,6.22-2.33 c1.29-1.56,1.93-4.07,1.93-7.53v-0.88c0-3.92-0.65-6.72-1.96-8.39c-1.3-1.67-3.39-2.51-6.25-2.51c-2.46,0-4.34,0.96-5.64,2.86 c-1.3,1.91-1.96,4.6-1.96,8.09c0,3.53,0.65,6.2,1.94,8C-1037.92,371.27-1036.02,372.16-1033.51,372.16z"></path> </g> </g> <g> <g> <path class="st2" d="M-819.24,180.17c0.22-0.92,0.39-1.85,0.66-2.75c2.49-8.42,7.79-13.82,16.63-15.37 c0.25-0.04,0.51-0.08,1.12-0.18c-3.52-0.66-6.18-2.15-8.09-4.82c-1.93-2.7-2.63-5.7-2.03-8.99c1.05-5.81,6.17-9.78,12.29-9.52 c5.55,0.24,10.3,4.86,10.86,10.59c0.45,4.67-2.12,11.12-10.01,12.71c1.36,0.3,2.73,0.53,4.05,0.92 c8.02,2.41,13.74,9.98,13.81,18.22c0.02,2.66-1.57,4.34-4.25,4.34c-10.58,0.02-21.16,0-31.73,0.02c-1.57,0-2.63-0.67-3.29-2.06 C-819.24,182.25-819.24,181.21-819.24,180.17z"></path> <path class="st2" d="M-790.63,52.2c1.67,1.47,3.37,2.91,5,4.43c1.42,1.33,2.77,2.74,4.14,4.13c1.87,1.89,2.01,4.23,0.38,5.88 c-1.63,1.65-3.94,1.52-5.88-0.33c-0.18-0.17-0.37-0.34-0.7-0.64c-0.04,0.51-0.09,0.87-0.09,1.23c-0.01,4.03,0,8.06-0.01,12.09 c-0.01,2.64-1.58,4.41-3.9,4.41c-2.32,0-3.9-1.78-3.9-4.41c-0.01-4.37,0-8.73,0-13.37c-0.54,0.48-0.89,0.82-1.26,1.14 c-1.67,1.42-3.93,1.37-5.41-0.12c-1.47-1.49-1.56-3.83-0.05-5.4c2.61-2.71,5.3-5.36,7.99-7.99c0.44-0.44,1.06-0.7,1.59-1.05 C-792.02,52.2-791.33,52.2-790.63,52.2z"></path> <path class="st2" d="M-751.62,52.2c1.61,1.41,3.26,2.79,4.82,4.25c1.49,1.39,2.9,2.86,4.33,4.31c1.87,1.89,2.01,4.23,0.38,5.88 c-1.63,1.65-3.94,1.52-5.88-0.33c-0.18-0.17-0.38-0.34-0.7-0.64c-0.04,0.51-0.09,0.87-0.09,1.23c-0.01,4.03,0,8.06-0.01,12.09 c-0.01,2.64-1.58,4.41-3.9,4.42c-2.32,0-3.9-1.78-3.9-4.41c-0.01-4.37,0-8.73,0-13.37c-0.54,0.48-0.89,0.82-1.26,1.14 c-1.67,1.42-3.93,1.37-5.41-0.12c-1.47-1.49-1.56-3.83-0.05-5.4c2.61-2.71,5.3-5.36,7.99-7.99c0.44-0.44,1.06-0.7,1.59-1.05 C-753,52.2-752.31,52.2-751.62,52.2z"></path> <path class="st2" d="M-712.6,52.2c1.61,1.41,3.26,2.79,4.82,4.25c1.49,1.39,2.9,2.86,4.33,4.31c1.87,1.89,2.01,4.23,0.38,5.88 c-1.63,1.65-3.94,1.52-5.88-0.33c-0.18-0.17-0.38-0.34-0.7-0.64c-0.04,0.51-0.09,0.87-0.09,1.23c-0.01,4.03,0,8.06-0.01,12.09 c-0.01,2.64-1.58,4.41-3.9,4.42c-2.32,0-3.9-1.78-3.9-4.41c-0.01-4.37,0-8.73,0-13.37c-0.54,0.48-0.89,0.82-1.26,1.14 c-1.67,1.42-3.93,1.37-5.41-0.12c-1.47-1.49-1.56-3.83-0.05-5.4c2.61-2.71,5.3-5.36,7.99-7.99c0.44-0.44,1.06-0.7,1.59-1.05 C-713.99,52.2-713.29,52.2-712.6,52.2z"></path> <path class="st2" d="M-734.51,115.09c-8.27-1.69-10.86-8.29-10.27-13.01c0.79-6.21,5.86-10.52,12.11-10.36 c5.78,0.15,10.66,4.79,11.19,10.66c0.55,6.08-3.61,11.35-10.2,12.65c1.21,0.24,2.18,0.4,3.14,0.63 c7.49,1.78,13.46,8.33,14.6,15.91c0.13,0.88-0.34,1.09-0.93,1.42c-6.98,3.95-10.54,9.93-10.44,17.98 c0.03,2.77,0.83,5.38,2.06,7.85c0.19,0.38,0.38,0.76,0.47,0.95c-2.26,2.56-4.42,5-6.47,7.32c-2.05-2.32-4.21-4.77-6.41-7.26 c7.2-12.07-1.06-28.28-16.55-29.17c0.88-4.27,2.96-7.79,6.18-10.66C-742.83,117.13-739.02,115.61-734.51,115.09z"></path> <path class="st2" d="M-769.6,159.77c-2.25,2.55-4.42,5-6.46,7.31c-2.05-2.32-4.21-4.77-6.25-7.08c0.7-2.33,1.7-4.68,2.08-7.11 c1.25-8.15-2.81-16.01-10.11-19.83c-0.98-0.51-1.1-1.02-0.9-2.02c1.66-8.3,7.79-14.29,16.14-15.71c0.42-0.07,0.84-0.16,1.53-0.3 c-3.33-0.6-5.91-2.02-7.83-4.52c-1.94-2.52-2.79-5.39-2.36-8.53c0.83-6.09,5.76-10.34,11.79-10.27 c5.91,0.06,10.78,4.53,11.47,10.51c0.69,6.04-3.24,11.09-10.24,12.88c5.43,0.61,9.85,2.76,13.3,6.74c2.2,2.53,3.67,5.43,4.34,8.83 c-7.3,0.53-13,3.71-16.57,10.1C-773.24,147.13-772.95,153.6-769.6,159.77z"></path> <path class="st2" d="M-703.99,161.81c1.66,0.45,3.54,0.81,5.31,1.48c7.42,2.82,12.51,10.01,12.6,17.64 c0.03,2.73-1.56,4.4-4.32,4.4c-10.23,0.02-20.45,0.02-30.68,0c-2.73-0.01-4.31-1.69-4.27-4.45c0.12-9.09,7.17-17.24,16.16-18.68 c0.55-0.09,1.1-0.19,1.96-0.35c-3.37-0.61-5.95-2.02-7.87-4.52c-1.94-2.52-2.79-5.39-2.36-8.53c0.83-6.15,5.8-10.38,11.91-10.27 c5.83,0.1,10.68,4.56,11.34,10.49C-693.68,153.67-696.2,160.23-703.99,161.81z"></path> <path class="st2" d="M-754.03,161.86c-6.67-1.31-10.84-6.6-10.29-12.68c0.55-6.05,5.64-10.68,11.73-10.65 c6.03,0.02,11.04,4.63,11.6,10.65c0.56,6.07-3.62,11.38-10.22,12.67c1.27,0.25,2.29,0.41,3.28,0.65 c8.44,2.04,14.72,9.92,14.77,18.53c0.01,2.58-1.57,4.3-4.16,4.3c-10.23,0.03-20.46,0.03-30.69,0c-2.58-0.01-4.17-1.72-4.16-4.3 c0.05-9.14,7.12-17.37,16.17-18.82C-755.44,162.12-754.89,162.02-754.03,161.86z"></path> </g> <g> <path class="st1" d="M-871.79,301.69h-20.25V262.6c0-4.75,0.1-9.09,0.3-13.03c-1.25,1.51-2.79,3.1-4.65,4.75l-8.38,6.92 l-10.35-12.73l25.35-20.65h17.98V301.69z"></path> <path class="st1" d="M-833.61,286.59l0.71,1.16c-3.27,12.83-6.23,22.27-8.89,28.33h-14.09c0.98-4.65,1.96-9.86,2.95-15.63 c0.99-5.77,1.67-10.39,2.04-13.86H-833.61z"></path> <path class="st1" d="M-793.26,253.31c4.24,0,8.07,0.98,11.49,2.95c3.42,1.97,6.08,4.76,7.98,8.36c1.9,3.6,2.85,7.76,2.85,12.47 c0,8.25-2.48,14.58-7.45,18.99c-4.97,4.41-12.48,6.62-22.55,6.62c-8.62,0-15.65-1.33-21.11-3.99v-16.36 c2.93,1.35,6.24,2.46,9.92,3.33c3.69,0.88,6.86,1.31,9.52,1.31c3.7,0,6.55-0.78,8.53-2.35c1.99-1.57,2.98-3.88,2.98-6.94 c0-2.83-1.01-5.03-3.03-6.62c-2.02-1.58-5.08-2.37-9.19-2.37c-3.13,0-6.51,0.59-10.15,1.77l-7.32-3.64l2.78-38.98h42.12v16.61 h-25.15l-0.91,9.75c2.63-0.5,4.49-0.78,5.6-0.83S-794.2,253.31-793.26,253.31z"></path> <path class="st1" d="M-709.23,264.87c0,13.06-2.19,22.63-6.56,28.71c-4.38,6.08-11.08,9.11-20.1,9.11 c-8.82,0-15.47-3.17-19.95-9.52c-4.48-6.35-6.72-15.78-6.72-28.3c0-13.13,2.19-22.76,6.56-28.88c4.38-6.13,11.08-9.19,20.1-9.19 c8.79,0,15.43,3.19,19.92,9.57C-711.48,242.75-709.23,252.25-709.23,264.87z M-742.71,264.87c0,8.35,0.52,14.09,1.57,17.22 c1.04,3.13,2.79,4.7,5.25,4.7c2.49,0,4.25-1.62,5.28-4.85c1.03-3.23,1.54-8.92,1.54-17.07c0-8.18-0.52-13.91-1.57-17.19 c-1.04-3.28-2.79-4.92-5.25-4.92c-2.46,0-4.21,1.58-5.25,4.75C-742.19,250.67-742.71,256.46-742.71,264.87z"></path> <path class="st1" d="M-648.64,264.87c0,13.06-2.19,22.63-6.56,28.71c-4.38,6.08-11.08,9.11-20.1,9.11 c-8.82,0-15.47-3.17-19.95-9.52c-4.48-6.35-6.72-15.78-6.72-28.3c0-13.13,2.19-22.76,6.57-28.88c4.38-6.13,11.08-9.19,20.1-9.19 c8.79,0,15.43,3.19,19.92,9.57C-650.88,242.75-648.64,252.25-648.64,264.87z M-682.12,264.87c0,8.35,0.52,14.09,1.57,17.22 c1.04,3.13,2.79,4.7,5.25,4.7c2.49,0,4.25-1.62,5.28-4.85c1.03-3.23,1.54-8.92,1.54-17.07c0-8.18-0.52-13.91-1.57-17.19 c-1.04-3.28-2.79-4.92-5.25-4.92c-2.46,0-4.21,1.58-5.25,4.75C-681.59,250.67-682.12,256.46-682.12,264.87z"></path> <path class="st1" d="M-622.58,271.99h-18.79v-13.53h18.79v-18.53H-609v18.53h18.79v13.53H-609v18.23h-13.58V271.99z"></path> </g> <g> <path class="st0" d="M-869.43,375.56h-20.56v-36.89h20.56v3.81h-16.27v11.88h15.29v3.78h-15.29v13.58h16.27V375.56z"></path> <path class="st0" d="M-824.05,375.56v-17.99c0-2.2-0.47-3.86-1.41-4.96c-0.94-1.1-2.41-1.65-4.39-1.65 c-2.61,0-4.53,0.75-5.78,2.25c-1.25,1.5-1.87,3.8-1.87,6.91v15.44h-4.19v-17.99c0-2.2-0.47-3.86-1.41-4.96 c-0.94-1.1-2.41-1.65-4.42-1.65c-2.62,0-4.55,0.79-5.77,2.36c-1.22,1.57-1.83,4.15-1.83,7.73v14.51h-4.19v-27.65h3.41l0.68,3.78 h0.2c0.79-1.35,1.91-2.4,3.34-3.15c1.44-0.76,3.05-1.14,4.83-1.14c4.32,0,7.15,1.56,8.48,4.69h0.2c0.82-1.45,2.02-2.59,3.58-3.43 c1.56-0.84,3.35-1.26,5.35-1.26c3.13,0,5.47,0.8,7.03,2.41c1.56,1.61,2.33,4.18,2.33,7.71v18.04H-824.05z"></path> <path class="st0" d="M-795.78,376.07c-1.8,0-3.44-0.33-4.93-1c-1.49-0.66-2.74-1.69-3.75-3.07h-0.3c0.2,1.61,0.3,3.15,0.3,4.59 v11.38h-4.19v-40.07h3.41l0.58,3.78h0.2c1.08-1.51,2.33-2.61,3.76-3.28c1.43-0.67,3.07-1.01,4.92-1.01c3.67,0,6.5,1.25,8.49,3.76 c1.99,2.51,2.99,6.02,2.99,10.55c0,4.54-1.01,8.07-3.04,10.58C-789.37,374.81-792.18,376.07-795.78,376.07z M-796.38,350.96 c-2.83,0-4.87,0.78-6.13,2.35c-1.26,1.56-1.91,4.05-1.94,7.47v0.93c0,3.89,0.65,6.67,1.94,8.34s3.37,2.51,6.23,2.51 c2.39,0,4.26-0.97,5.61-2.9c1.35-1.93,2.03-4.6,2.03-8c0-3.45-0.68-6.09-2.03-7.94C-792.02,351.88-793.93,350.96-796.38,350.96z"></path> <path class="st0" d="M-770.21,375.56h-4.19V336.3h4.19V375.56z"></path> <path class="st0" d="M-734.87,361.71c0,4.51-1.14,8.03-3.41,10.56c-2.27,2.53-5.41,3.8-9.41,3.8c-2.47,0-4.67-0.58-6.59-1.74 c-1.92-1.16-3.4-2.83-4.44-5c-1.04-2.17-1.56-4.71-1.56-7.62c0-4.51,1.13-8.02,3.38-10.53s5.38-3.77,9.39-3.77 c3.87,0,6.94,1.29,9.22,3.86C-736.01,353.84-734.87,357.32-734.87,361.71z M-755.94,361.71c0,3.53,0.71,6.22,2.12,8.07 c1.41,1.85,3.49,2.78,6.23,2.78c2.74,0,4.82-0.92,6.25-2.76c1.42-1.84,2.13-4.54,2.13-8.09c0-3.52-0.71-6.19-2.13-8.01 c-1.42-1.82-3.52-2.74-6.3-2.74c-2.74,0-4.81,0.9-6.21,2.7C-755.24,355.46-755.94,358.15-755.94,361.71z"></path> <path class="st0" d="M-729.34,347.91h4.49l6.06,15.77c1.33,3.6,2.15,6.2,2.47,7.8h0.2c0.22-0.86,0.68-2.33,1.38-4.4 c0.7-2.08,2.98-8.47,6.85-19.16h4.49l-11.88,31.49c-1.18,3.11-2.55,5.32-4.13,6.62c-1.57,1.3-3.5,1.96-5.79,1.96 c-1.28,0-2.54-0.14-3.78-0.43v-3.36c0.92,0.2,1.96,0.3,3.1,0.3c2.88,0,4.93-1.61,6.16-4.84l1.54-3.94L-729.34,347.91z"></path> <path class="st0" d="M-684.64,376.07c-4.09,0-7.31-1.25-9.68-3.73c-2.36-2.49-3.54-5.95-3.54-10.37c0-4.46,1.1-8,3.29-10.62 c2.19-2.62,5.14-3.94,8.84-3.94c3.46,0,6.21,1.14,8.23,3.42c2.02,2.28,3.03,5.29,3.03,9.02v2.65h-19.05 c0.08,3.25,0.9,5.71,2.46,7.39s3.75,2.52,6.57,2.52c2.98,0,5.92-0.62,8.83-1.87v3.73c-1.48,0.64-2.88,1.1-4.2,1.38 C-681.18,375.93-682.77,376.07-684.64,376.07z M-685.77,350.91c-2.22,0-3.99,0.72-5.31,2.17c-1.32,1.45-2.1,3.45-2.33,6.01h14.46 c0-2.64-0.59-4.66-1.77-6.07C-681.91,351.61-683.59,350.91-685.77,350.91z"></path> <path class="st0" d="M-653.06,376.07c-4.09,0-7.31-1.25-9.68-3.73c-2.36-2.49-3.54-5.95-3.54-10.37c0-4.46,1.1-8,3.29-10.62 c2.19-2.62,5.14-3.94,8.84-3.94c3.46,0,6.21,1.14,8.23,3.42c2.02,2.28,3.03,5.29,3.03,9.02v2.65h-19.05 c0.08,3.25,0.9,5.71,2.46,7.39s3.75,2.52,6.57,2.52c2.98,0,5.92-0.62,8.83-1.87v3.73c-1.48,0.64-2.88,1.1-4.2,1.38 C-649.6,375.93-651.2,376.07-653.06,376.07z M-654.2,350.91c-2.22,0-3.99,0.72-5.31,2.17c-1.32,1.45-2.1,3.45-2.33,6.01h14.46 c0-2.64-0.59-4.66-1.77-6.07C-650.33,351.61-652.01,350.91-654.2,350.91z"></path> <path class="st0" d="M-615.33,368.02c0,2.57-0.96,4.56-2.88,5.95c-1.92,1.4-4.61,2.09-8.07,2.09c-3.67,0-6.53-0.58-8.58-1.74 v-3.89c1.33,0.67,2.75,1.2,4.28,1.59c1.52,0.39,2.99,0.58,4.4,0.58c2.19,0,3.87-0.35,5.05-1.05c1.18-0.7,1.77-1.76,1.77-3.19 c0-1.08-0.47-2-1.4-2.76s-2.75-1.67-5.46-2.71c-2.57-0.96-4.4-1.8-5.49-2.51c-1.08-0.71-1.89-1.53-2.42-2.44 c-0.53-0.91-0.79-1.99-0.79-3.25c0-2.25,0.92-4.03,2.75-5.34c1.83-1.3,4.35-1.96,7.54-1.96c2.98,0,5.89,0.61,8.73,1.82l-1.49,3.41 c-2.78-1.14-5.29-1.72-7.54-1.72c-1.99,0-3.48,0.31-4.49,0.93c-1.01,0.62-1.51,1.48-1.51,2.57c0,0.74,0.19,1.37,0.57,1.89 c0.38,0.52,0.99,1.02,1.83,1.49c0.84,0.47,2.46,1.15,4.84,2.04c3.28,1.19,5.5,2.4,6.65,3.61 C-615.91,364.66-615.33,366.19-615.33,368.02z"></path> </g> </g> <g> <g> <path class="st1" d="M147.42,336.04h-9.52v16.74h-23.07v-16.74H80.34v-17.15l35.96-52.58h21.59v52.29h9.52V336.04z M114.82,318.59 v-10.06c0-1.89,0.07-4.45,0.21-7.66c0.14-3.21,0.25-4.9,0.33-5.06h-0.65c-1.34,3.04-2.86,5.88-4.55,8.52l-9.58,14.25H114.82z"></path> </g> <g> <path class="st0" d="M199.77,284.8c0,6.09-1.65,10.75-4.96,13.97c-3.31,3.22-8.06,4.83-14.27,4.83h-10.22V266.7h11.3 c5.74,0,10.19,1.59,13.37,4.77S199.77,279.09,199.77,284.8z M195.23,284.95c0-4.81-1.21-8.44-3.62-10.88 c-2.41-2.44-6-3.66-10.76-3.66h-6.23v29.47h5.22c5.11,0,8.96-1.26,11.53-3.77C193.94,293.6,195.23,289.88,195.23,284.95z"></path> <path class="st0" d="M209.59,268.44c0-0.96,0.24-1.66,0.71-2.11c0.47-0.45,1.06-0.67,1.77-0.67c0.67,0,1.25,0.23,1.74,0.68 c0.49,0.45,0.73,1.15,0.73,2.09s-0.24,1.64-0.73,2.11c-0.49,0.46-1.07,0.69-1.74,0.69c-0.71,0-1.29-0.23-1.77-0.69 C209.83,270.09,209.59,269.39,209.59,268.44z M214.13,303.59h-4.19v-27.65h4.19V303.59z"></path> <path class="st0" d="M231.66,303.59l-10.5-27.65h4.49l5.96,16.4c1.35,3.84,2.14,6.33,2.37,7.47h0.2c0.18-0.89,0.77-2.74,1.75-5.54 c0.98-2.8,3.19-8.91,6.62-18.33h4.49l-10.5,27.65H231.66z"></path> <path class="st0" d="M265.76,304.1c-4.09,0-7.31-1.25-9.68-3.73c-2.36-2.49-3.54-5.95-3.54-10.37c0-4.46,1.1-8,3.29-10.62 c2.2-2.62,5.14-3.94,8.84-3.94c3.47,0,6.21,1.14,8.23,3.42c2.02,2.28,3.03,5.29,3.03,9.02v2.65h-19.05 c0.08,3.25,0.9,5.71,2.46,7.39c1.56,1.68,3.75,2.52,6.57,2.52c2.98,0,5.92-0.62,8.83-1.87v3.73c-1.48,0.64-2.88,1.1-4.2,1.38 C269.22,303.96,267.62,304.1,265.76,304.1z M264.62,278.94c-2.22,0-3.99,0.72-5.31,2.17c-1.32,1.45-2.1,3.45-2.33,6.01h14.46 c0-2.64-0.59-4.66-1.77-6.07C268.49,279.64,266.81,278.94,264.62,278.94z"></path> <path class="st0" d="M298.26,275.43c1.23,0,2.33,0.1,3.31,0.3l-0.58,3.89c-1.14-0.25-2.15-0.38-3.03-0.38 c-2.24,0-4.15,0.91-5.74,2.73c-1.59,1.82-2.38,4.08-2.38,6.79v14.84h-4.19v-27.65h3.46l0.48,5.12h0.2 c1.03-1.8,2.26-3.19,3.71-4.16C294.94,275.92,296.53,275.43,298.26,275.43z"></path> <path class="st0" d="M327.17,296.05c0,2.57-0.96,4.56-2.88,5.95c-1.92,1.4-4.61,2.09-8.07,2.09c-3.67,0-6.53-0.58-8.58-1.74v-3.89 c1.33,0.67,2.75,1.2,4.28,1.59c1.52,0.39,2.99,0.58,4.4,0.58c2.19,0,3.87-0.35,5.05-1.05c1.18-0.7,1.77-1.76,1.77-3.19 c0-1.08-0.47-2-1.4-2.76s-2.75-1.67-5.46-2.71c-2.57-0.96-4.4-1.8-5.49-2.51s-1.89-1.53-2.42-2.44c-0.53-0.91-0.79-1.99-0.79-3.25 c0-2.25,0.92-4.03,2.75-5.34c1.83-1.3,4.35-1.96,7.54-1.96c2.98,0,5.89,0.61,8.73,1.82l-1.49,3.41c-2.78-1.14-5.29-1.72-7.54-1.72 c-1.99,0-3.48,0.31-4.49,0.93c-1.01,0.62-1.51,1.48-1.51,2.57c0,0.74,0.19,1.37,0.57,1.89c0.38,0.52,0.99,1.02,1.83,1.49 c0.84,0.47,2.46,1.15,4.84,2.04c3.28,1.19,5.5,2.4,6.65,3.61C326.59,292.69,327.17,294.22,327.17,296.05z"></path> <path class="st0" d="M336.21,268.44c0-0.96,0.24-1.66,0.71-2.11c0.47-0.45,1.06-0.67,1.77-0.67c0.67,0,1.25,0.23,1.74,0.68 c0.49,0.45,0.73,1.15,0.73,2.09s-0.24,1.64-0.73,2.11c-0.49,0.46-1.07,0.69-1.74,0.69c-0.71,0-1.29-0.23-1.77-0.69 C336.45,270.09,336.21,269.39,336.21,268.44z M340.75,303.59h-4.19v-27.65h4.19V303.59z"></path> <path class="st0" d="M364.68,279.19h-7.04v24.4h-4.19v-24.4h-4.95v-1.89l4.95-1.51v-1.54c0-6.8,2.97-10.19,8.91-10.19 c1.46,0,3.18,0.29,5.15,0.88l-1.08,3.36c-1.62-0.52-3-0.78-4.14-0.78c-1.58,0-2.75,0.53-3.51,1.58c-0.76,1.05-1.14,2.74-1.14,5.06 v1.79h7.04V279.19z"></path> <path class="st0" d="M371.96,268.44c0-0.96,0.24-1.66,0.71-2.11s1.06-0.67,1.77-0.67c0.67,0,1.25,0.23,1.74,0.68 c0.49,0.45,0.73,1.15,0.73,2.09s-0.24,1.64-0.73,2.11c-0.49,0.46-1.07,0.69-1.74,0.69c-0.71,0-1.3-0.23-1.77-0.69 C372.2,270.09,371.96,269.39,371.96,268.44z M376.5,303.59h-4.19v-27.65h4.19V303.59z"></path> <path class="st0" d="M399.65,304.1c-4.09,0-7.31-1.25-9.68-3.73c-2.36-2.49-3.54-5.95-3.54-10.37c0-4.46,1.1-8,3.29-10.62 c2.2-2.62,5.14-3.94,8.84-3.94c3.47,0,6.21,1.14,8.23,3.42c2.02,2.28,3.03,5.29,3.03,9.02v2.65h-19.05 c0.08,3.25,0.9,5.71,2.46,7.39c1.56,1.68,3.75,2.52,6.57,2.52c2.98,0,5.92-0.62,8.83-1.87v3.73c-1.48,0.64-2.88,1.1-4.2,1.38 C403.11,303.96,401.52,304.1,399.65,304.1z M398.51,278.94c-2.22,0-3.99,0.72-5.31,2.17c-1.32,1.45-2.1,3.45-2.33,6.01h14.46 c0-2.64-0.59-4.66-1.77-6.07C402.38,279.64,400.7,278.94,398.51,278.94z"></path> <path class="st0" d="M438.37,299.88h-0.23c-1.93,2.81-4.83,4.21-8.68,4.21c-3.62,0-6.43-1.24-8.44-3.71 c-2.01-2.47-3.02-5.99-3.02-10.55c0-4.56,1.01-8.1,3.03-10.62c2.02-2.52,4.83-3.79,8.43-3.79c3.75,0,6.63,1.36,8.63,4.09h0.33 l-0.18-1.99l-0.1-1.94v-11.25h4.19v39.26h-3.41L438.37,299.88z M429.99,300.59c2.86,0,4.93-0.78,6.22-2.33 c1.29-1.56,1.93-4.07,1.93-7.53v-0.88c0-3.92-0.65-6.72-1.96-8.39c-1.3-1.67-3.39-2.51-6.25-2.51c-2.46,0-4.34,0.96-5.64,2.86 c-1.3,1.91-1.96,4.6-1.96,8.09c0,3.53,0.65,6.2,1.94,8C425.58,299.69,427.48,300.59,429.99,300.59z"></path> <path class="st0" d="M191.14,345.78c0,3.25-1.18,5.78-3.53,7.59c-2.35,1.82-5.55,2.73-9.59,2.73c-4.37,0-7.74-0.56-10.09-1.69 v-4.14c1.51,0.64,3.16,1.14,4.95,1.51s3.55,0.56,5.3,0.56c2.86,0,5.01-0.54,6.46-1.63c1.45-1.08,2.17-2.59,2.17-4.53 c0-1.28-0.26-2.33-0.77-3.14c-0.51-0.82-1.37-1.57-2.57-2.26c-1.2-0.69-3.03-1.47-5.49-2.35c-3.43-1.23-5.88-2.68-7.36-4.37 s-2.21-3.88-2.21-6.59c0-2.84,1.07-5.1,3.2-6.79c2.14-1.68,4.96-2.52,8.48-2.52c3.67,0,7.04,0.67,10.12,2.02l-1.34,3.73 c-3.04-1.28-6-1.92-8.88-1.92c-2.27,0-4.05,0.49-5.32,1.46s-1.92,2.33-1.92,4.06c0,1.28,0.24,2.33,0.71,3.14 c0.47,0.82,1.27,1.56,2.38,2.25c1.12,0.68,2.83,1.43,5.13,2.26c3.87,1.38,6.53,2.86,7.99,4.44S191.14,343.25,191.14,345.78z"></path> <path class="st0" d="M212.32,356.1c-4.09,0-7.31-1.25-9.68-3.73c-2.36-2.49-3.54-5.95-3.54-10.37c0-4.46,1.1-8,3.29-10.62 c2.2-2.62,5.14-3.94,8.84-3.94c3.47,0,6.21,1.14,8.23,3.42c2.02,2.28,3.03,5.29,3.03,9.02v2.65h-19.05 c0.08,3.25,0.9,5.71,2.46,7.39c1.56,1.68,3.75,2.52,6.57,2.52c2.98,0,5.92-0.62,8.83-1.87v3.73c-1.48,0.64-2.88,1.1-4.2,1.38 C215.78,355.96,214.18,356.1,212.32,356.1z M211.18,330.94c-2.22,0-3.99,0.72-5.31,2.17c-1.32,1.45-2.1,3.45-2.33,6.01H218 c0-2.64-0.59-4.66-1.77-6.07C215.05,331.64,213.37,330.94,211.18,330.94z"></path> <path class="st0" d="M243.26,356.1c-4,0-7.1-1.23-9.3-3.7s-3.29-5.95-3.29-10.46c0-4.63,1.11-8.2,3.34-10.72 c2.23-2.52,5.4-3.79,9.53-3.79c1.33,0,2.66,0.14,3.99,0.43s2.37,0.62,3.13,1.01l-1.29,3.56c-0.92-0.37-1.93-0.68-3.03-0.92 c-1.09-0.24-2.06-0.37-2.9-0.37c-5.62,0-8.43,3.58-8.43,10.75c0,3.4,0.69,6.01,2.06,7.82c1.37,1.82,3.4,2.73,6.09,2.73 c2.3,0,4.67-0.5,7.09-1.49v3.71C248.4,355.62,246.07,356.1,243.26,356.1z"></path> <path class="st0" d="M268.33,352.64c0.74,0,1.46-0.05,2.14-0.16s1.24-0.22,1.64-0.34v3.2c-0.45,0.22-1.12,0.4-2.01,0.54 c-0.88,0.14-1.68,0.21-2.38,0.21c-5.35,0-8.02-2.82-8.02-8.45v-16.45h-3.96v-2.02l3.96-1.74l1.77-5.9h2.42v6.41h8.02v3.25h-8.02 v16.27c0,1.67,0.4,2.94,1.19,3.84C265.86,352.2,266.95,352.64,268.33,352.64z"></path> <path class="st0" d="M304.09,341.74c0,4.51-1.13,8.03-3.41,10.56c-2.27,2.53-5.41,3.8-9.41,3.8c-2.47,0-4.67-0.58-6.58-1.74 c-1.92-1.16-3.4-2.83-4.44-5s-1.56-4.71-1.56-7.62c0-4.51,1.13-8.02,3.38-10.53c2.25-2.51,5.38-3.77,9.39-3.77 c3.87,0,6.94,1.29,9.22,3.86S304.09,337.35,304.09,341.74z M283.02,341.74c0,3.53,0.71,6.22,2.12,8.07 c1.41,1.85,3.49,2.78,6.23,2.78c2.74,0,4.82-0.92,6.25-2.76c1.42-1.84,2.13-4.54,2.13-8.09c0-3.52-0.71-6.19-2.13-8.01 c-1.42-1.82-3.52-2.74-6.3-2.74c-2.74,0-4.81,0.9-6.21,2.7C283.72,335.49,283.02,338.17,283.02,341.74z"></path> <path class="st0" d="M326.64,327.43c1.23,0,2.33,0.1,3.31,0.3l-0.58,3.89c-1.14-0.25-2.15-0.38-3.03-0.38 c-2.24,0-4.15,0.91-5.74,2.73c-1.59,1.82-2.38,4.08-2.38,6.79v14.84h-4.19v-27.65h3.46l0.48,5.12h0.2 c1.03-1.8,2.26-3.19,3.71-4.16C323.31,327.92,324.9,327.43,326.64,327.43z"></path> <path class="st0" d="M355.54,348.05c0,2.57-0.96,4.56-2.88,5.95c-1.92,1.4-4.61,2.09-8.07,2.09c-3.67,0-6.53-0.58-8.58-1.74v-3.89 c1.33,0.67,2.75,1.2,4.28,1.59c1.52,0.39,2.99,0.58,4.4,0.58c2.19,0,3.87-0.35,5.05-1.05c1.18-0.7,1.77-1.76,1.77-3.19 c0-1.08-0.47-2-1.4-2.76s-2.75-1.67-5.46-2.71c-2.57-0.96-4.4-1.8-5.49-2.51c-1.08-0.71-1.89-1.53-2.42-2.44 c-0.53-0.91-0.79-1.99-0.79-3.25c0-2.25,0.92-4.03,2.75-5.34c1.83-1.3,4.35-1.96,7.54-1.96c2.98,0,5.89,0.61,8.73,1.82l-1.49,3.41 c-2.78-1.14-5.29-1.72-7.54-1.72c-1.99,0-3.48,0.31-4.49,0.93c-1.01,0.62-1.51,1.48-1.51,2.57c0,0.74,0.19,1.37,0.57,1.89 c0.38,0.52,0.99,1.02,1.83,1.49c0.84,0.47,2.46,1.15,4.84,2.04c3.28,1.19,5.5,2.4,6.65,3.61 C354.96,344.69,355.54,346.22,355.54,348.05z"></path> </g> </g> </svg> 