<?xml version="1.0" encoding="utf-8"?>
<!-- Generator: Adobe Illustrator 22.0.1, SVG Export Plug-In . SVG Version: 6.00 Build 0)  -->
<svg version="1.1" id="Layer_1" xmlns="http://www.w3.org/2000/svg" xmlns:xlink="http://www.w3.org/1999/xlink" x="0px" y="0px"
	 viewBox="0 0 402.7 8.3" style="enable-background:new 0 0 402.7 8.3;" xml:space="preserve">
<style type="text/css">
	.st0{fill:#FFFFFF;}
	.st1{fill:#B3B4B4;}
	.st2{fill:#0875B1;}
</style>
<g>
	<g>
		<line class="st0" x1="3" y1="4.1" x2="399.2" y2="4.1"/>
		<path class="st1" d="M399.2,4.6H3c-0.3,0-0.5-0.2-0.5-0.5S2.8,3.6,3,3.6h396.1c0.3,0,0.5,0.2,0.5,0.5S399.4,4.6,399.2,4.6z"/>
	</g>
	<path class="st2" d="M249.2,2.2H153c-1,0-1.9,0.9-1.9,1.9v0c0,1,0.9,1.9,1.9,1.9h96.3c1,0,1.9-0.9,1.9-1.9v0
		C251.1,3.1,250.3,2.2,249.2,2.2z"/>
</g>
</svg>
