<?xml version="1.0" encoding="utf-8"?>
<!-- Generator: Adobe Illustrator 22.0.1, SVG Export Plug-In . SVG Version: 6.00 Build 0)  -->
<svg version="1.1" id="Layer_1" xmlns="http://www.w3.org/2000/svg" xmlns:xlink="http://www.w3.org/1999/xlink" x="0px" y="0px"
	 viewBox="0 0 823.2 192.7" style="enable-background:new 0 0 823.2 192.7;" xml:space="preserve">
<style type="text/css">
	.st0{fill:#B1B1B1;}
	.st1{fill:#553827;}
	.st2{fill:#88573A;}
	.st3{fill:#D1B185;}
	.st4{fill:#A37041;}
	.st5{fill:#AD7A53;}
	.st6{fill:#BE9065;}
	.st7{fill:#B7865A;}
	.st8{fill:#D0D5E2;}
	.st9{fill:#CCA978;}
	.st10{fill:#0097CE;}
	.st11{fill:#7E5037;}
	.st12{fill:#93613D;}
	.st13{fill:#EAC79E;}
</style>
<rect x="213" y="7.5" class="st0" width="1.9" height="178.3"/>
<g>
	<g>
		<path class="st1" d="M256.7,152.3l-1.5-4.7h-6.8l-1.5,4.7h-4.2l6.8-19.5h4.8l6.8,19.5H256.7z M251.8,136.5l-2.5,8h5.1L251.8,136.5
			L251.8,136.5z"/>
		<path class="st1" d="M267.3,152.3h-4.1v-19.5h4.1V152.3z"/>
		<path class="st1" d="M274.6,152.3h-3.9v-19.5h3.4l9.1,12.7h0.1v-12.7h3.9v19.5h-3.4l-9.1-12.7h-0.1L274.6,152.3L274.6,152.3z"/>
		<path class="st1" d="M305.9,152.3h-4.1V145l-6.8-12.2h4.4l4.4,8.3h0.1l4.4-8.3h4.4l-6.8,12.2L305.9,152.3L305.9,152.3z"/>
		<path class="st1" d="M327.6,152.3l-1.5-4.7h-6.8l-1.5,4.7h-4.2l6.8-19.5h4.8l6.8,19.5H327.6z M322.7,136.5l-2.5,8h5.1L322.7,136.5
			L322.7,136.5z"/>
		<path class="st1" d="M342.9,152.3h-4.1v-16.1h-5.6v-3.4h15.3v3.4h-5.6L342.9,152.3L342.9,152.3z"/>
		<path class="st1" d="M367.9,152.3h-4.1v-8.2H355v8.2h-4.1v-19.5h4.1v7.9h8.8v-7.9h4.1V152.3z"/>
		<path class="st1" d="M375.4,145.1v7.1h-4.1v-19.5h8c2.2,0,4,0.6,5.2,1.6c1.2,1.1,1.9,2.6,1.9,4.6c0,1.3-0.3,2.4-0.9,3.4
			s-1.5,1.7-2.6,2.1l4.1,7.7h-4.6l-3.6-7.1L375.4,145.1L375.4,145.1z M375.4,136v6.2h3.5c1,0,1.8-0.3,2.4-0.8s0.9-1.3,0.9-2.3
			c0-0.9-0.3-1.7-0.9-2.3c-0.6-0.6-1.4-0.8-2.4-0.8H375.4z"/>
		<path class="st1" d="M402,148.9v3.4h-12.9v-19.5H402v3.4h-8.8v4.7h8.3v3.1h-8.3v4.9H402z"/>
		<path class="st1" d="M413.8,152.3h-8.6v-19.5h8.5c1.8,0,3.3,0.4,4.3,1.3s1.6,2.1,1.6,3.6c0,1.1-0.4,2-1,2.8
			c-0.7,0.8-1.6,1.3-2.6,1.4v0.1c1.3,0.1,2.4,0.6,3.3,1.5c0.9,0.9,1.3,2,1.3,3.2c0,1.7-0.6,3.1-1.8,4.1
			C417.5,151.8,415.9,152.3,413.8,152.3z M409.3,135.8v5.1h2.9c1.1,0,1.9-0.2,2.5-0.7s0.9-1.1,0.9-1.9c0-0.8-0.3-1.4-0.8-1.8
			c-0.5-0.4-1.3-0.6-2.2-0.6L409.3,135.8L409.3,135.8z M409.3,149.2h3.5c1.2,0,2.1-0.2,2.7-0.7s0.9-1.2,0.9-2.1c0-0.9-0.3-1.6-1-2.1
			s-1.5-0.7-2.8-0.7h-3.4L409.3,149.2L409.3,149.2z"/>
		<path class="st1" d="M440.3,139l-3.7,13.3h-3.8l-5.1-19.5h4.2l3.1,14.1h0.1l3.6-14.1h3.4l3.6,14.1h0.1l3.1-14.1h4.2l-5.2,19.5
			h-3.8l-3.7-13.3H440.3z"/>
		<path class="st1" d="M468.3,152.3l-1.5-4.7H460l-1.5,4.7h-4.2l6.8-19.5h4.8l6.8,19.5H468.3z M463.3,136.5l-2.5,8h5.1l-2.5-8H463.3
			z"/>
		<path class="st1" d="M483.5,152.3h-4.1v-16.1h-5.6v-3.4h15.3v3.4h-5.6L483.5,152.3L483.5,152.3z"/>
		<path class="st1" d="M504.5,148.9v3.4h-12.9v-19.5h12.9v3.4h-8.8v4.7h8.3v3.1h-8.3v4.9H504.5z"/>
		<path class="st1" d="M511.7,145.1v7.1h-4.1v-19.5h8c2.2,0,4,0.6,5.2,1.6c1.2,1.1,1.8,2.6,1.8,4.6c0,1.3-0.3,2.4-0.9,3.4
			c-0.6,1-1.5,1.7-2.6,2.1l4.1,7.7h-4.6l-3.6-7.1L511.7,145.1L511.7,145.1z M511.7,136v6.2h3.5c1,0,1.8-0.3,2.4-0.8s0.9-1.3,0.9-2.3
			c0-0.9-0.3-1.7-0.9-2.3s-1.4-0.8-2.4-0.8H511.7z"/>
		<path class="st1" d="M539.8,152.3h-8.6v-19.5h8.5c1.8,0,3.3,0.4,4.3,1.3s1.6,2.1,1.6,3.6c0,1.1-0.3,2-1,2.8
			c-0.7,0.8-1.6,1.3-2.6,1.4v0.1c1.3,0.1,2.4,0.6,3.3,1.5s1.3,2,1.3,3.2c0,1.7-0.6,3.1-1.8,4.1C543.5,151.8,541.8,152.3,539.8,152.3
			z M535.2,135.8v5.1h2.9c1.1,0,1.9-0.2,2.5-0.7s0.9-1.1,0.9-1.9c0-0.8-0.3-1.4-0.8-1.8c-0.5-0.4-1.3-0.6-2.2-0.6L535.2,135.8
			L535.2,135.8z M535.2,149.2h3.5c1.2,0,2.1-0.2,2.7-0.7c0.6-0.5,0.9-1.2,0.9-2.1c0-0.9-0.3-1.6-1-2.1s-1.5-0.7-2.8-0.7h-3.4V149.2z
			"/>
		<path class="st1" d="M550.9,135.2c1.7-1.8,4-2.7,6.9-2.7s5.2,0.9,6.9,2.7c1.7,1.8,2.5,4.3,2.5,7.4c0,3.1-0.8,5.5-2.5,7.4
			c-1.7,1.8-4,2.7-6.8,2.7c-2.9,0-5.2-0.9-6.9-2.7c-1.7-1.8-2.5-4.3-2.5-7.4C548.4,139.4,549.3,137,550.9,135.2z M561.6,137.7
			c-0.9-1.2-2.2-1.8-3.8-1.8c-1.6,0-2.9,0.6-3.8,1.8c-1,1.2-1.4,2.8-1.4,4.9c0,2,0.5,3.6,1.4,4.9c0.9,1.2,2.2,1.8,3.8,1.8
			c1.6,0,2.9-0.6,3.8-1.8s1.4-2.8,1.4-4.9C563,140.5,562.5,138.9,561.6,137.7z"/>
		<path class="st1" d="M578.7,152.3h-4.1v-16.1H569v-3.4h15.3v3.4h-5.6V152.3z"/>
		<path class="st1" d="M595.5,152.3h-4.1v-16.1h-5.6v-3.4h15.3v3.4h-5.6V152.3z"/>
		<path class="st1" d="M616.2,148.9v3.4h-12.6v-19.5h4.1v16.1L616.2,148.9L616.2,148.9z"/>
		<path class="st1" d="M622.9,152.3h-4.1v-19.5h4.1V152.3z"/>
		<path class="st1" d="M630.2,152.3h-3.9v-19.5h3.4l9.1,12.7h0.1v-12.7h3.9v19.5h-3.4l-9.1-12.7h-0.1L630.2,152.3L630.2,152.3z"/>
		<path class="st1" d="M663.6,144.1c0,2.6-0.8,4.7-2.3,6.2c-1.5,1.5-3.6,2.3-6.3,2.3c-2.9,0-5.2-0.9-6.9-2.7s-2.5-4.3-2.5-7.4
			c0-3.1,0.8-5.6,2.5-7.3c1.7-1.8,3.9-2.7,6.8-2.7c2.3,0,4.2,0.6,5.8,1.8s2.5,2.8,2.8,4.8h-4.1c-0.3-1-0.8-1.8-1.6-2.4
			c-0.8-0.6-1.7-0.9-2.8-0.9c-1.6,0-2.9,0.6-3.8,1.7c-0.9,1.2-1.4,2.8-1.4,4.8c0,2.1,0.5,3.8,1.4,5s2.2,1.8,3.9,1.8
			c1.3,0,2.4-0.4,3.3-1.1s1.3-1.7,1.3-2.9l0-0.3h-4.2v-3h8.2L663.6,144.1L663.6,144.1z"/>
		<path class="st1" d="M680.7,152.6c-2.8,0-5.1-0.9-6.7-2.7c-1.7-1.8-2.5-4.3-2.5-7.4c0-3.1,0.8-5.6,2.5-7.4s3.9-2.7,6.7-2.7
			c1.5,0,3,0.3,4.2,0.9s2.3,1.5,3,2.6c0.8,1.1,1.2,2.4,1.3,3.8h-4c-0.2-1.2-0.7-2.1-1.5-2.9c-0.8-0.7-1.8-1.1-3-1.1
			c-1.5,0-2.8,0.6-3.7,1.8c-0.9,1.2-1.4,2.8-1.4,4.9c0,2.1,0.5,3.7,1.4,4.9s2.1,1.8,3.7,1.8c1.2,0,2.2-0.3,3-1
			c0.8-0.7,1.3-1.6,1.5-2.7h4c-0.2,2.2-1.1,3.9-2.7,5.2C685.1,152,683.1,152.6,680.7,152.6z"/>
		<path class="st1" d="M693.9,135.2c1.7-1.8,4-2.7,6.9-2.7s5.2,0.9,6.9,2.7c1.7,1.8,2.5,4.3,2.5,7.4c0,3.1-0.8,5.5-2.5,7.4
			c-1.7,1.8-4,2.7-6.8,2.7c-2.9,0-5.2-0.9-6.9-2.7c-1.7-1.8-2.5-4.3-2.5-7.4C691.4,139.4,692.2,137,693.9,135.2z M704.6,137.7
			c-0.9-1.2-2.2-1.8-3.8-1.8c-1.6,0-2.9,0.6-3.8,1.8c-1,1.2-1.4,2.8-1.4,4.9c0,2,0.5,3.6,1.4,4.9c0.9,1.2,2.2,1.8,3.8,1.8
			c1.6,0,2.9-0.6,3.8-1.8s1.4-2.8,1.4-4.9C706,140.5,705.5,138.9,704.6,137.7z"/>
		<path class="st1" d="M733.6,152.3H730v-13.1h-0.1l-5.3,12.9H722l-5.3-12.9h-0.1v13.1H713v-19.5h4.7l5.5,13.8h0.1l5.5-13.8h4.7
			L733.6,152.3L733.6,152.3z"/>
		<path class="st1" d="M737,132.8h7.9c2,0,3.6,0.6,4.9,1.8c1.2,1.2,1.9,2.8,1.9,4.8c0,2-0.6,3.6-1.9,4.8c-1.3,1.2-3,1.8-5,1.8h-3.6
			v6.1H737L737,132.8L737,132.8z M741.1,136v6.9h2.8c1.2,0,2.1-0.3,2.7-0.9s1-1.5,1-2.6c0-1.1-0.3-2-1-2.6c-0.6-0.6-1.5-0.9-2.7-0.9
			L741.1,136L741.1,136z"/>
		<path class="st1" d="M767,152.3l-1.5-4.7h-6.8l-1.5,4.7H753l6.8-19.5h4.8l6.8,19.5H767z M762.1,136.5l-2.5,8h5.1l-2.5-8H762.1z"/>
		<path class="st1" d="M777.4,152.3h-3.9v-19.5h3.4l9.1,12.7h0.1v-12.7h3.9v19.5h-3.4l-9.1-12.7h-0.1L777.4,152.3L777.4,152.3z"/>
		<path class="st1" d="M803,152.3H799V145l-6.8-12.2h4.4l4.4,8.3h0.1l4.4-8.3h4.4L803,145L803,152.3L803,152.3z"/>
	</g>
	<path class="st2" d="M767.8,64c0.2,0.3,2.4-4.6,5-8.4c2.6-3.8,5.7-8.7,5.7-11.6s-1.7-4.4-5.4-3.7s-8.9,1.6-20.5,5
		s-15.2,4.8-16.7,5.4s-3.8,1.2-4.5,5.5c-0.6,4.6-0.2,6.6-0.2,6.6l1.1,0.7c0.3,0.2,0.5,0.4,0.6,0.6c0.9,1.3,3.9,5.9,4.9,7.2
		c2.7,3.6,5.3,6.7,7.4,8.9c2.2,2.3,8.7,7.6,9.4,11.8c0,0-3.6,3.5-9.6,4c-2.1,0.2-4.6-0.1-7.3-4.1c-2.7-4.1-3.4-5.7-5.1-5.5
		c-1.7,0.2-7,5.6-9.1,11.3c-2,5.6-2.9,8.8-5.8,9.7c-2.9,0.9-6-4.7-6.8-7.4c-0.5-1.9-0.9-5.1-1-6.6c0-0.4-0.5-0.3-0.8,0l-0.2,0.3
		c-0.1,0.2-0.1,0.3-0.1,0.5c0,1.3,0.4,8.2,2.2,12.1c2,4.4,5.5,6.9,7.2,6.5c1.7-0.4,3-1.6,4.9-7.6c2-6.4,7-12.5,9.4-12.6
		c1.8-0.1,3.3,3.8,4.4,5.4c1.3,1.7,2.8,3.3,3.9,3.8c1.1,0.5,3.3,0.7,5.8,0.1c2.4-0.7,4.1-1.5,5.6-2.3s2.8-2.1,3.2-4.3
		c0.5-2.7,0.7-3,0.8-4.8s0.2-2.9-0.6-4.6s-2-4-5.8-7.5S739.9,68,738.9,66c0,0,6.1,2.1,6.5,1.8s-0.8-2.1-3-3.7
		c-2.2-1.6-9.4-6.4-9.4-6.4s1.7-1.2,5.4-2.6c3.7-1.3,12.3-4.1,16.1-5.2c3.9-1.1,10.3-2.6,13.1-3.3s6.6-1.2,7.8,0.1
		c0.9,0.9,0.8,1.4,0.1,2.6c-0.7,1.2-3.3,4.8-4.9,7.6C769.2,59.5,767.2,63.2,767.8,64z"/>
	<path class="st2" d="M701.6,76.9c0.1,0.1,0,0.3-0.2,0.3c-1.5-0.6-5.4-1.6-12.4-0.7c-1.3,0.2-6.4,1.3-9.7,2.8
		c-0.1,0-0.1,0.1-0.1,0.2c0.2,1,1.2,6.4,4.9,10.3c1.4,1.5,4.5,3.2,7.2,3.6c0.5,0.1,0.9,0,1.4-0.1c1.2-0.3,3.8-1.2,7-3.2
		c3.4-2.1,6.3-5,7.8-6.7c0.3-0.3,0.7,0,0.5,0.3l-2.1,5.2c0,0-3.4,5-10.1,8.4s-10.9,3.3-13.7,3.2s-7.7-0.9-10-8.7
		c-0.3-0.9-1.1-4.6-1.5-6.4c-0.4-1.5-1.2-3.7-1.6-4.6c0-0.1-0.2-0.1-0.2,0c-0.2,0.7-0.5,2.3-0.8,3.4c-0.4,1.6-0.5,5-3.7,6.3
		c0,0,1.2,3.4,0.5,7.6c-0.6,3.6-2.2,6.8-2.2,6.8c-0.5,1-2.8,2.7-3.2,3.1s-13.6,8.7-24.6,8.7c-9.5,0-13.9-3.5-16-5.5
		c-2-1.9-4.5-6.5-4.5-11.1c0-5.6,3.4-12.9,3.9-13s-2.4,5.9-1.7,10.8c0.6,4.3,4.3,12.7,17.5,12.7c12.8,0,27.3-9,29.1-11.1
		c0.1-0.1,0.1-0.2,0.1-0.4c0-1.1-0.5-5.9-6.1-11.8c-0.1-0.1-0.1-0.2-0.1-0.3l0.7-5.6c0-0.3,0.4-0.4,0.6-0.2c0.7,0.8,2.1,2.4,2.9,3.7
		c0,0,1.9,0.2,3.5-0.3s2.7-1.7,2.7-3c0-0.8,0.2-2.6,0.5-4.3c0.2-1.8,0.6-3.8,1-3.9c0.4-0.2,0.8-0.1,2.2,4s2.1,7.7,2.7,9.5
		c0.6,1.8,2.1,6,6,6.9c0,0,0.1,0,0-0.1c-0.5-0.6-3-4.1-3.8-7.9c-0.9-4.2-0.3-6.6,0.6-8.3c0.9-1.7,3.9-5.3,11.8-5.9
		C695.1,71.1,700,75.3,701.6,76.9z"/>
	<path class="st2" d="M461.6,51.5l2.1-5.1c0.1-0.3,0.6-0.4,0.8,0c0.8,1.8,2.5,5.8,3.9,8.3c1.8,3.3,2.7,5.9,2.3,6.3
		c-0.4,0.4-3.3-3.5-3.6-3.4s1.1,6.5,1.8,9.9c0.7,3.4,2.3,11,2.8,13.3s1.5,7.1,1.1,10.5s-2,7-2.6,7.9c-0.6,1-4.1,2.8-7.2,2.8
		c-3.8,0-7.1-2.3-7.2-6.8c0-0.1-0.1-0.1-0.1-0.1c-0.3,0.1-0.9,0.6-2.5,2.7c-2.1,2.9-5.6,6.2-10.1,6.3c-4.5,0.1-7.9-3-10.5-5.2
		c-2.6-2.2-5-5.5-8-7.5s-4.9-3-4.9-3s-3.1,0.4-5.1,1.3c-0.2,0.1-0.5-0.1-0.4-0.4l2-4.8c0.1-0.2,0.3-0.4,0.5-0.5
		c1.2-0.5,5.4-2.1,11.9-2c7.6,0,10.5,1,17.3,4.4c0.1,0.1,0.2,0.2,0.1,0.3l-2.5,5.1c-0.1,0.2-0.2,0.3-0.4,0.3c-1,0.2-4.6,1.1-9,3.4
		c-1.3,0.7-5.5,2.5-9.7,4.7s-8.2,3.7-11.7,3.7c-3.4-0.1-6.5-2-6.8-5.7c0,0,0-0.1-0.1,0c-0.2,0.2-0.9,0.9-1.7,2.3
		c-1,1.6-2.6,4.4-6.6,4.4c-4,0-5.9-3.4-6-6.1c0,0,0-0.1-0.1,0c-0.2,0.2-0.9,0.8-2,2.3c-1.3,1.8-4.4,4.1-8.1,4.5
		c-3.8,0.4-7.5-2-9.7-5.6c-2.1-3.6-3.7-7.2-5.1-7.2s-5,1.9-6.8,4.5s-2.7,4.4-3.5,6.1s-2.2,8.1-5.6,9.4c-3.4,1.3-6.9-3.7-8.2-7.7
		c-1.5-4.3-1.8-14.6-0.6-15c0.9-0.3,0,3.3,1.4,9.1c0.9,3.8,3.6,8.5,6.6,8.5c2.8,0,4.6-5,5.1-6.4c1.1-2.9,2.9-7.1,5-9.8
		c2.2-2.7,5.2-4.9,7.2-4.9c1.7,0,2.8,3.1,4.4,5.7c1.5,2.6,3.9,7.2,9.7,7.2s8.1-3.2,9.2-4.2s1.8-2,2.3-2.4s0.8-0.8,1-0.7
		c0.1,0.1,0.4,0.4-0.3,2.4c-0.1,0.2-0.1,0.4,0,0.6c0.4,0.9,1.8,3.6,5.2,3.6c4.1,0,5.3-2.3,5.7-2.9c0.3-0.6,1-2,1.6-2.5
		c0.5-0.6,1.3-1.5,1.6-1.4c0.2,0.1,0.1,1.1,0,1.4c0,0.1,0,0.2,0,0.2c0.2,0.7,1.2,4.3,6.1,4.3c5.5,0,12.8-3.9,14-4.6s9.1-4.2,9.1-4.2
		s-4.6-1.7-8.9-1.3c0,0,2.4,1.8,3.1,2.6c0.7,0.7,3,2.9,3.5,3.4s5,4.5,9.5,4.4c4.5-0.2,6.6-1.8,8.6-3.8c0.8-0.8,2.4-3.3,3.2-4
		s1.7-1.6,1.9-1.3c0.1,0.2,0.3,0.3-0.2,2.2c0,0,1,4.8,6.8,4.9c1.6,0,4.6-0.6,6.1-1.5c0.1-0.1,0.1-0.1,0.1-0.2
		c-0.1-0.7-0.4-3.5-1.1-7.2c-0.9-4.2-2.4-11.4-2.6-12.6c-0.3-1.2-1-4.3-1.3-6.1c-0.4-1.8-1.4-6.6-1.9-9.4c-0.5-2.5-0.8-4.3-0.9-5.2
		c0-0.2-0.1-0.4-0.2-0.6l-0.6-1.2C461.5,51.8,461.5,51.7,461.6,51.5z"/>
	<path class="st2" d="M337.4,52.1c0,0,1.4-3.7,2.1-5.5c0.1-0.4,0.6-0.4,0.8,0c0.8,1.6,2.6,5,3.3,6.3c0.9,1.7,4.2,7.3,3.5,8.4
		c-0.3,0.5-2.5-2.4-3.6-3c-0.1,0-0.1,0-0.1,0.1c0.2,0.9,1,4.8,1.7,7.8c0.9,3.4,2.4,9.4,3.2,12.8s4,14.9,0.8,23.3
		c0,0-1.2-9.8-3.8-19.9c-2-8-3.4-12.6-4.6-18.2c-1-4.5-1.7-8.2-1.9-9.6c-0.1-0.4-0.2-0.8-0.4-1.1L337.4,52.1z"/>
	<path class="st2" d="M330.1,90c-1.8-1.5-4.4-2.2-5.9-2.1c-1.5,0.1-3.5,0.6-3.5,0.6s-1.2-3.9-1.9-7c-0.7-3.1-2.3-11.8-2.7-14.6
		c-0.4-2.8-1.5-8.4-1.5-8.4s3.2,4.4,3.8,3.5c0.6-0.9-1.5-5-2.5-7c-0.8-1.6-3.1-6.5-4-8.5c-0.1-0.3-0.6-0.3-0.7,0l-2.1,5.3
		c-0.1,0.1,0,0.3,0,0.4c0.7,1,1.1,2.4,1.8,6.4c0.8,4.2,2.6,14.4,3.6,20.4c1,6,2.5,11.1,2.5,11.1c-2.9,1.4-10,4.3-14.4,4.2
		c-5.4-0.1-5.5-4.6-5.5-4.6s0.7-1.7,0.3-1.8s-1.8,0.9-3.3,3s-2.7,3.7-5.7,4.7c-3,1-7.6,0.3-9.8-2.8c-2.3-3.1-2.6-10.7-2.9-14.3
		c-0.3-3.6-0.8-9.6-1.9-18.7c-1.2-9.2-3.9-14.8-3.9-14.8l-1.7,6.5c1.4,2.6,2.8,9.6,3.3,12.8c0.5,3.2,1.1,8.6,1.5,13.3
		s0,9.4,1.4,16.1c1.4,6.7,6.9,8.9,10.8,8.4s6.8-3.4,8.2-5.5s2.3-2.6,2.3-2.6c-0.1,4.9,2.8,6.4,6.2,6.5c3.4,0.1,10.2-2.4,13.2-3.8
		c2.6-1.2,3.6-1.5,3.6-1.5c2.8,7,6,8.1,7.8,8.1s3.6-2.6,4.7-5.7C332.2,94.3,331.9,91.5,330.1,90z M329,96.7
		c-0.1,0.3-1.3,0.7-2.6,0.2s-2.7-2.2-3-2.9c0,0,1.5,0,3.6,0.9C329,95.9,329,96.4,329,96.7z"/>
	<path class="st2" d="M242.4,79.3l0.2-5.5c0-0.3,0.4-0.5,0.6-0.3c1.6,1.1,6.1,4.1,7.1,4.8c1.3,0.8,2,1.9,1.9,2.1
		c-0.2,0.6-4-0.8-4.1-0.4s0.5,1.1,1.4,2c0.9,0.9,3.6,3.1,5.3,4.5s5.2,4.7,4.3,10.1c-0.2,1.4-0.8,4.6-1.8,5.6s-3.6,3.7-7.8,4
		c-3.7,0.3-3.3-5.3-3-6.6c0.5-2.9,1.1-5.7,2.7-7.9s1.7-2.4,3-4s4.1-5.4,5.6-8.1c1.4-2.4,3.5-6.7,4.4-9.7c0.1-0.2,0.4-0.2,0.4,0
		c0.1,1.3,0,4.1-2,8.7c-2.9,6.6-5.4,9.7-6,10.8c-0.6,1-6,6.6-6.5,9.1c0,0.1,0,0.2,0.1,0.3c0.2,0.4,1,1.5,3.1,1.1
		c2.4-0.5,5.3-2.3,6.1-3c0.1-0.1,0.1-0.2,0.1-0.3c-0.2-0.5-0.9-1.9-2.6-3.7c-2.2-2.1-5.4-4.3-7-6.2c-1.7-1.9-4.4-6.5-4.4-6.5
		l-0.9-0.7C242.4,79.5,242.4,79.4,242.4,79.3z"/>
	<polygon class="st2" points="558.3,66.6 552,62.9 555.4,58 561.7,61.7 	"/>
	<polygon class="st2" points="551.8,60.8 545.5,57.1 548.9,52.2 555.2,55.9 	"/>
	<polygon class="st2" points="549.6,68 543.3,64.3 546.8,59.4 553,63.1 	"/>
	<polygon class="st2" points="300.8,114.8 294.7,110.9 298.2,106.2 304.3,110.1 	"/>
	<polygon class="st2" points="292.1,115.9 286.1,112 289.6,107.3 295.7,111.2 	"/>
	<polygon class="st2" points="368.2,75.1 362.1,71.2 365.7,66.5 371.8,70.4 	"/>
	<polygon class="st2" points="359.6,76.2 353.5,72.3 357.1,67.6 363.1,71.4 	"/>
	<polygon class="st2" points="454.7,75.6 448.6,71.7 452.2,67 458.3,70.9 	"/>
	<polygon class="st2" points="446.1,76.7 440,72.8 443.6,68.1 449.6,72 	"/>
	<polygon class="st2" points="580.8,112.4 574.7,108.6 578.2,103.8 584.3,107.7 	"/>
	<polygon class="st2" points="572.2,113.5 566.1,109.7 569.6,104.9 575.7,108.8 	"/>
	<polygon class="st2" points="640.6,96.8 634.5,92.9 638.1,88.2 644.2,92.1 	"/>
	<polygon class="st2" points="678.3,116.5 672.3,112.6 675.8,107.9 681.9,111.8 	"/>
	<polygon class="st2" points="669.7,117.6 663.6,113.7 667.2,109 673.3,112.9 	"/>
	<polygon class="st2" points="726.8,75.4 720.8,71.5 724.3,66.7 730.4,70.6 	"/>
	<polygon class="st2" points="718.2,76.4 712.1,72.6 715.7,67.8 721.8,71.7 	"/>
	<polygon class="st2" points="799.5,80.6 793.3,76.9 796.7,72 803,75.7 	"/>
	<polygon class="st2" points="793,74.8 786.8,71.1 790.2,66.2 796.5,69.9 	"/>
	<polygon class="st2" points="790.9,82 784.6,78.3 788,73.4 794.3,77.1 	"/>
	<polygon class="st2" points="505.6,119.3 499.5,115.5 503.1,110.7 509.1,114.6 	"/>
	<polygon class="st2" points="407.3,119.1 401.2,115.2 404.7,110.5 410.8,114.4 	"/>
	<path class="st2" d="M600.1,82.1l0.9-5.8c0.1-0.4,0.5-0.5,0.8-0.2c0.9,1,2.6,3,3.5,5.1c1.3,2.9,1.3,6.9,0,10.4
		c-0.3,0.9-0.7,1.7-0.9,2.2c-0.2,0.5-0.6,0.9-1,1.2c-2,1.2-9.9,4.4-16.7,4.4c-7,0-13-2-14.8-5.4c-1.5-2.7-2.3-5-3-9.3
		c-0.6-3.9-1.4-5.9-1.8-6.5c0-0.1-0.1-0.1-0.1,0c-0.1,0.3-0.2,1.2-0.5,2.4c-0.3,1.6-1.1,3.4-2.4,4.8c-1,1.1-2,1.8-2.3,1.9
		c-0.1,0-0.1,0.1-0.1,0.2c0.1,0.5,0.4,2.4,0.3,4.9c-0.1,2.9-0.6,6.8-3.1,9.8s-9.4,7.4-11.1,8.3s-8.5,4.7-13.5,6.4
		c-1.4,0.5-5.9,0.9-9.3,1.3c-3.1,0.3-8,0.5-10.5,0.3c-0.1,0-0.1-0.2,0-0.2c2.4-0.6,12.2-3.2,18.6-6c7.3-3.2,15.3-7.3,20.6-10.8
		c3.8-2.6,5.7-4.4,6.7-5.9c0.1-0.1,0.1-0.2,0.1-0.3c-0.1-0.9-0.9-5.6-6.3-11.3l0.8-5.9c0-0.3,0.4-0.4,0.6-0.2c0.7,0.8,1.9,2.3,3,3.9
		c0.1,0.2,0.3,0.2,0.5,0.2c0.6,0,1.8-0.3,3.1-0.7c1.7-0.5,3.2-1.7,3.9-4.2c0.3-1.1,0.5-5.6,1.4-5.8c0.7-0.1,2.3,5.7,2.6,7.3
		c0.8,3.6,1.3,8.4,4.5,11.6c3.5,3.5,12.4,3.1,14.3,2.9c2.8-0.2,11.9-1.8,15.4-4.4c0.1-0.1,0.1-0.2,0.1-0.3
		C604,87.6,603.1,84.7,600.1,82.1z"/>
	<path class="st2" d="M536.5,84.1l1.1-5.9c0.1-0.4,0.6-0.6,0.9-0.3c1,1.1,2.8,3.3,4.4,6.4c2.1,4,0.9,9.4,0,12.1
		c-0.2,0.7-0.6,1.2-1.2,1.6c-0.6,0.4-1.6,0.9-2.7,1.5c-2.8,1.3-19.9,6.1-33.5,6.1c-12,0-16.9-3-19.5-4.8c-2.5-1.7-4.5-5.3-3.1-10.5
		c0.5-2.1,2.8-7,3.4-6.9s-2,3.6-1.3,8c0.8,4.9,9.5,8.8,23.3,8.1c8.9-0.4,20.2-2.5,24.1-3.5c3.8-1.1,9-2.8,9.7-3.6
		C542.3,92.5,540.5,87.5,536.5,84.1z"/>
	<path class="st2" d="M806.3,91.1l1.6-5.2c0.1-0.3,0.4-0.3,0.6-0.1c0.5,0.8,1.4,2.5,1.3,4.3c0,2.6-0.7,3.9-1.2,5s-2.4,4.4-5.8,4.2
		c-3.3-0.1-4.6-2.7-4.8-4.4c0-0.1-0.1-0.1-0.2-0.1c-0.2,0.2-0.5,0.6-0.8,1.5c-0.6,1.3-2.9,5.2-7.5,5.2c-1.7,0-4-0.5-6.6-2.8
		c-2.6-2.3-3.8-2.5-5.2-2.5s-5.1,0.1-10,3.8c-4.7,3.5-8.5,9.7-9.7,11.4c-2,2.6-7.3,8.9-11.4,8.9s-7.6-5.7-7.5-11.3
		c0-3.5,1.4-10.2,2.1-10.2c0.8-0.1-1.4,5.5-0.6,11.6c0.5,3.7,3,4.6,4.4,4.4c1.4-0.2,3.8-0.5,7.5-4c1.8-1.7,4.6-4.7,5.9-6.5
		c1.3-1.8,4.4-6,8.8-9.4c4.3-3.3,9-4.5,11.3-4.5c5,0,6.1,5.4,12.5,5.4c2.6,0,4.5-1.1,5.8-2.5c1-1.2,2-3.6,2.6-4.5
		c0.6-0.8,1.5-1.8,1.8-1.8s0.3,1.4-0.7,3.6c0,0,2.1,4.2,6.8,2.8c0.1,0,0.1-0.1,0.1-0.2c-0.1-0.2-0.3-0.8-0.9-1.8
		C806.3,91.3,806.3,91.2,806.3,91.1z"/>
	<path class="st2" d="M389.3,81.8l-1.3,1c-0.1,0.1-0.2,0.2-0.3,0.4l-0.9,2.9c0,0.1,0,0.2,0.1,0.3c0,0,0.1,0.1,0.1,0.1
		c0,0,0.1,0,0.1-0.1c0.7-0.5,3-2.4,4.6-3.4c1.7-1,4-2.7,4.5-3c0.1-0.1,0.2-0.2,0.3-0.3c0.3-0.6,1.1-2,1.2-2.8c0-0.1,0-0.2-0.1-0.2
		l-0.1-0.1l-0.1,0.1c-0.7,0.5-3.2,2.1-3.5,2.3c-0.4,0.2-3.4-0.1-5.4-1.6c0.2-0.4,1.1-1.6,1.9-1.6c0.7,0,1,0.8,1.1,1.4
		c0,0.1,0.1,0.3,0.3,0.3c0.1,0,0.3,0,0.3-0.1c0.4-0.6,1.4-2.2,1.1-3.4c-0.1-0.5-0.3-0.8-0.7-1.1c-0.3-0.2-0.7-0.3-1.1-0.2
		c-1.8,0.5-4.1,4.1-4.4,4.6l-1,1.8c-0.2,0.3-0.1,0.8,0.1,1C386.7,80.5,387.6,81.2,389.3,81.8z"/>
</g>
<g>
	<polygon class="st3" points="183,60.9 117.9,6.9 145,61 	"/>
	<polygon class="st4" points="92.1,35.5 145,61 117.9,6.9 	"/>
	<polygon class="st5" points="47.3,26.3 92.1,35.5 117.9,6.9 	"/>
	<polygon class="st6" points="95,63.3 92.1,35.5 145,61 125.4,77.4 	"/>
	<polygon class="st7" points="182.8,133 145,61 183,60.9 	"/>
	<polygon class="st2" points="126.1,111.3 182.8,133 145,61 125.4,77.4 	"/>
	<polygon class="st8" points="91,128.2 85.9,155.8 182.8,133 126.1,111.3 	"/>
	<polygon class="st9" points="120.4,185.8 85.9,155.8 182.8,133 	"/>
	<polygon class="st6" points="69.6,93.6 41.2,87 85.9,155.8 91,128.2 	"/>
	<polygon class="st5" points="39.1,158.9 85.9,155.8 120.4,185.8 	"/>
	<polygon class="st10" points="41.2,87 85.9,155.8 39.1,158.9 	"/>
	<polygon class="st2" points="41.2,87 85.9,155.8 39.1,158.9 	"/>
	<polygon class="st3" points="41.2,87 69.6,93.6 95,63.3 92.1,35.5 	"/>
	<polygon class="st11" points="47.3,26.3 14.5,79.7 41.2,87 92.1,35.5 	"/>
	<polygon class="st12" points="39.1,158.9 41.2,87 14.5,79.7 	"/>
	<polygon class="st13" points="91,128.2 85.9,155.8 182.8,133 126.1,111.3 	"/>
</g>
</svg>
