<?xml version="1.0" encoding="utf-8"?>
<!-- Generator: Adobe Illustrator 22.0.1, SVG Export Plug-In . SVG Version: 6.00 Build 0)  -->
<svg version="1.1" id="Layer_1" xmlns="http://www.w3.org/2000/svg" xmlns:xlink="http://www.w3.org/1999/xlink" x="0px" y="0px"
	 viewBox="0 0 823.2 192.7" style="enable-background:new 0 0 823.2 192.7;" xml:space="preserve">
<style type="text/css">
	.st0{fill:#B1B1B1;}
	.st1{fill:#384347;}
	.st2{fill:#00A19B;}
	.st3{fill:#57ABAF;}
	.st4{fill:#559F9F;}
	.st5{fill:#52A5A2;}
	.st6{fill:#4EA4A4;}
	.st7{fill:#59B5B9;}
	.st8{fill:#456C6D;}
	.st9{fill:#D0D5E2;}
	.st10{fill:#529999;}
	.st11{fill:#478882;}
	.st12{fill:#5CA9AB;}
	.st13{fill:#489593;}
	.st14{fill:#59A8AD;}
	.st15{fill:#477673;}
</style>
<rect x="213" y="9.2" class="st0" width="1.9" height="178.3"/>
<g>
	<g>
		<path class="st1" d="M256.5,151.8l-1.5-4.7h-6.9l-1.5,4.7h-4.2l6.8-19.5h4.8l6.8,19.5H256.5z M251.5,136l-2.5,8h5.1l-2.5-8H251.5z
			"/>
		<path class="st1" d="M275.6,148.4v3.4h-12.6v-19.5h4.1v16.1L275.6,148.4L275.6,148.4z"/>
		<path class="st1" d="M287.1,145.6h-8.9v-3.4h8.9V145.6z"/>
		<path class="st1" d="M303.3,151.8l-1.5-4.7h-6.9l-1.5,4.7h-4.2l6.8-19.5h4.8l6.8,19.5H303.3z M298.3,136l-2.5,8h5.1l-2.5-8H298.3z
			"/>
		<path class="st1" d="M309.4,151.8v-2.7l9.9-13.4v-0.1h-9.7v-3.4h14.6v2.7l-9.9,13.4v0.1h10.1v3.4L309.4,151.8L309.4,151.8z"/>
		<path class="st1" d="M331.5,151.8h-4.1v-19.5h4.1V151.8z"/>
		<path class="st1" d="M334.4,151.8v-2.7l9.9-13.4v-0.1h-9.7v-3.4h14.6v2.7l-9.9,13.4v0.1h10.1v3.4L334.4,151.8L334.4,151.8z"/>
		<path class="st1" d="M356.6,151.8h-4.1v-19.5h4.1V151.8z"/>
		<path class="st1" d="M372.7,151.8l-1.5-4.7h-6.9l-1.5,4.7h-4.2l6.8-19.5h4.8l6.8,19.5H372.7z M367.8,136l-2.5,8h5.1l-2.5-8H367.8z
			"/>
		<path class="st1" d="M396.5,138.5l-3.7,13.3h-3.9l-5.2-19.5h4.2l3.1,14.1h0.1l3.6-14.1h3.5l3.6,14.1h0.1l3.1-14.1h4.2l-5.2,19.5
			h-3.9l-3.7-13.3H396.5z"/>
		<path class="st1" d="M424.5,151.8l-1.5-4.7h-6.9l-1.5,4.7h-4.2l6.8-19.5h4.8l6.8,19.5H424.5z M419.5,136l-2.5,8h5.1l-2.5-8H419.5z
			"/>
		<path class="st1" d="M439.7,151.8h-4.1v-16.2H430v-3.4h15.4v3.4h-5.7V151.8z"/>
		<path class="st1" d="M460.7,148.4v3.4h-12.9v-19.5h12.9v3.4h-8.9v4.7h8.4v3.1h-8.4v4.9H460.7z"/>
		<path class="st1" d="M467.9,144.7v7.1h-4.1v-19.5h8c2.2,0,4,0.6,5.2,1.7s1.9,2.6,1.9,4.6c0,1.3-0.3,2.4-0.9,3.4
			c-0.6,1-1.5,1.7-2.6,2.1l4.1,7.8h-4.6l-3.6-7.1L467.9,144.7L467.9,144.7z M467.9,135.5v6.2h3.5c1,0,1.8-0.3,2.4-0.8
			s0.9-1.3,0.9-2.3c0-0.9-0.3-1.7-0.9-2.3c-0.6-0.6-1.4-0.9-2.4-0.9L467.9,135.5L467.9,135.5z"/>
		<path class="st1" d="M495.9,152.2c-2.9,0-5.1-0.9-6.8-2.7s-2.5-4.3-2.5-7.4c0-3.1,0.8-5.6,2.5-7.4c1.7-1.8,3.9-2.7,6.8-2.7
			c1.5,0,3,0.3,4.2,0.9c1.3,0.6,2.3,1.5,3,2.6c0.8,1.1,1.2,2.4,1.3,3.8h-4c-0.2-1.2-0.7-2.2-1.5-2.9s-1.9-1.1-3-1.1
			c-1.5,0-2.8,0.6-3.7,1.8c-0.9,1.2-1.4,2.8-1.4,4.9c0,2.1,0.5,3.7,1.4,4.9c0.9,1.2,2.1,1.8,3.7,1.8c1.2,0,2.2-0.3,3-1
			s1.3-1.6,1.6-2.7h4c-0.2,2.2-1.1,3.9-2.7,5.2C500.3,151.5,498.3,152.2,495.9,152.2z"/>
		<path class="st1" d="M509.1,134.7c1.7-1.8,4-2.7,6.9-2.7s5.2,0.9,6.9,2.7s2.5,4.3,2.5,7.4c0,3.1-0.8,5.6-2.5,7.4
			c-1.7,1.8-4,2.7-6.9,2.7c-2.9,0-5.2-0.9-6.9-2.7s-2.5-4.3-2.5-7.4C506.6,138.9,507.4,136.5,509.1,134.7z M519.8,137.2
			c-1-1.2-2.2-1.8-3.8-1.8s-2.9,0.6-3.8,1.8c-1,1.2-1.4,2.8-1.4,4.9c0,2,0.5,3.7,1.4,4.9c0.9,1.2,2.2,1.8,3.8,1.8
			c1.6,0,2.9-0.6,3.8-1.8c1-1.2,1.4-2.8,1.4-4.9S520.8,138.4,519.8,137.2z"/>
		<path class="st1" d="M548.8,151.8h-3.6v-13.2h-0.1l-5.3,13h-2.6l-5.3-13h-0.1v13.2h-3.6v-19.5h4.7l5.5,13.8h0.1l5.5-13.8h4.7
			L548.8,151.8L548.8,151.8z"/>
		<path class="st1" d="M552.2,132.3h7.9c2,0,3.6,0.6,4.9,1.8c1.3,1.2,1.9,2.8,1.9,4.8c0,2-0.6,3.6-1.9,4.8s-3,1.9-5,1.9h-3.7v6.2
			h-4.1L552.2,132.3L552.2,132.3z M556.3,135.5v6.9h2.8c1.2,0,2.1-0.3,2.7-0.9c0.7-0.6,1-1.5,1-2.6s-0.3-2-1-2.6
			c-0.7-0.6-1.5-0.9-2.7-0.9H556.3z"/>
		<path class="st1" d="M582.3,151.8l-1.5-4.7h-6.9l-1.5,4.7h-4.2l6.8-19.5h4.8l6.8,19.5H582.3z M577.3,136l-2.5,8h5.1L577.3,136
			L577.3,136z"/>
		<path class="st1" d="M592.7,151.8h-3.9v-19.5h3.4l9.1,12.7h0.1v-12.7h3.9v19.5h-3.4l-9.1-12.8h-0.1L592.7,151.8L592.7,151.8z"/>
		<path class="st1" d="M618.3,151.8h-4.1v-7.3l-6.8-12.2h4.5l4.4,8.3h0.1l4.4-8.3h4.4l-6.8,12.2L618.3,151.8L618.3,151.8z"/>
	</g>
	<g>
		<path class="st2" d="M555.1,95.3c-1.7,2.8-2.9,6.1-3,8.8c-0.4,9.3,4,12.4,7.4,12.6s7.9-4.2,10-6.2c2.1-2,6.9-6.6,11.2-10.3
			c4.3-3.7,9.6-5.3,13.2-5.2c3.6,0.2,5.6,4.2,7.4,5c2.5,1.2,5.7-0.1,6.9-0.9c1.2-0.8,2.6-3.1,3-3.7c0.3-0.7,0.6-0.9,0.6-0.9
			c-0.1,0.6,0.7,3.9,4.9,4.1s4.7-2.4,6-6.1c1.4-3.8,0.5-6.8-0.1-8c-0.1-0.2-0.4-0.2-0.5,0l-2.2,5.2c0,0.1,0,0.2,0,0.3
			c0.8,1.2,0.8,2.2,0.8,2.2s-1,0.5-2,0.5c-4-0.2-4.4-3.3-4.4-3.3c1.8-2.8,1.5-3.3,1.3-3.4c-0.2-0.1-0.4,0-1.1,0.7s-1.1,1.7-2.6,4.1
			s-3.7,3.7-6.9,3.6c-4.9-0.2-4.9-5.3-10.1-5.6c-3.6-0.2-9.2,1.5-13.1,4.5s-7.5,6.3-13.1,11.6c-5.6,5.3-9.2,6.3-11,6.2
			c-1.8-0.1-4.6-1.2-4.4-6.7c0.1-3.2,1.7-6.6,3-8.7L555.1,95.3z"/>
		<path class="st2" d="M546.9,59.1c0,0,0-0.1,0-0.1c12.6-5.2,38.2-8.4,39.7-8.5c1.6-0.2,6.1-0.6,6,2.2s-3.2,5.1-6,9.4
			c-2,3.1-3.3,6.5-3.8,8.1c0,0.1,0.2,0.2,0.2,0.1c1-1.5,3.2-5,6-8.7c2.2-2.8,6.5-11.1,6.6-13.6c0.1-2.6-0.8-3.6-6.1-3.3
			s-19.4,3-23,3.7c-3.3,0.7-12.4,2.7-19.3,5.1c-1,0.4-1.8,1.1-2.3,2c-0.8,1.7-1.8,4.8-1.3,8.1c0,0.1,0.1,0.3,0.2,0.3
			c0.3,0.2,0.9,0.5,1.3,1c0.5,0.7,5.2,7.7,10.2,13.1c5,5.4,11.5,8.7,11.3,12.8c0,0.7-0.6,1-2.9,2.2c-2.3,1.2-5,2.1-7.2,2
			c-2.2-0.1-5.5-1.1-8.1-5.8c-1.9-3.4-2.8-4.9-4.3-5c-1.5-0.1-7,2.8-10,11.2c-1.4,4-3.4,9.2-6,9.1c-2.6-0.1-5.5-4.7-6.4-7.4
			c-0.8-2.5-1.2-6.1-0.6-9.2c0-0.1-0.2-0.2-0.2-0.1c-0.8,1.8-2.2,6.3-0.4,12.5c0.6,2.3,4.3,8.7,7.7,8.8c4.2,0.2,6-7.5,7.3-11.1
			c1.5-4,6.1-7.6,7.5-7.5c1.2,0.1,2.4,1.1,4.1,4.5c1.7,3.4,5.2,6,7.9,6.1s8.2-1.6,10.9-4.2c2.7-2.5,3.4-11.1,0.7-14.8
			c-2.8-3.7-7.9-7.3-10.3-9.8c-2.5-2.6-5-5.6-4.8-6c0.2-0.3,4,1.5,4.8,1.2C557.4,67.2,553,62.8,546.9,59.1"/>
		<polygon class="st2" points="614.1,78.4 607.7,74.1 611.5,69 618,73.3 		"/>
		<polygon class="st2" points="607.5,71.8 601,67.5 604.9,62.3 611.4,66.6 		"/>
		<polygon class="st2" points="604.9,79.6 598.4,75.2 602.3,70.1 608.8,74.4 		"/>
		<polygon class="st2" points="538.3,72.2 531.9,67.8 535.7,62.7 542.2,67 		"/>
		<polygon class="st2" points="540.8,81 534.3,76.7 538.1,71.6 544.6,75.9 		"/>
	</g>
	<path class="st2" d="M364.9,120.9c4.4-0.5,21.5-2.6,23.7-3.4c2.5-0.8,11-5.3,14.8-8c3.5-2.6,5.6-4.8,6.6-6.9
		c0.7-1.6,1.3-4.1,1.5-5.2c0,0,0,0,0.1,0c3.8,1.4,9.9,1.4,12.5,1.4c0,0,0,0,0,0c8.6,0,16.2-2.6,21-4.8c-1.6,2.5-3.7,6.2-4.3,9.4
		c-0.9,4.4-0.1,8.6,2,10.9c1.3,1.4,2.9,2.1,4.9,2.1c4.8,0,9.8-5.6,13.9-10.1c0.9-1,1.8-1.9,2.5-2.7c3.5-3.6,7.5-5.7,12.3-7.6
		c3.6-1.4,6.1-2.4,9.1-3.5c0.6,0.6,1.3,1.1,2,1.7c5.9,5.4,9.2,5.4,12.1,5.4c3.1,0,7.4-2.2,8.3-2.8c0.9-0.6,1.8-1.7,2.9-4.5
		c0.9-2.2,0.9-8.2,0.7-10.7c-0.1-1.6-1.5-11.5-1.7-13.2c-0.4-3.4-1.4-10-1.1-10.1c0.6-0.3,3.8,4.5,4.2,4c0.3-0.4,0-2.2-1.2-4.7
		c-1-2.1-4-8.1-5-10c-0.1-0.3-0.5-0.3-0.6,0l-2.7,5c-0.1,0.1-0.1,0.3,0,0.4c0.2,0.3,0.7,1.1,0.9,1.7c0.3,0.9,1.2,8.8,1.4,10.7
		c0.6,5.1,3.2,22.3,3.1,25.4c-0.6,0.6-3.5,3-8.3,3c-3.9,0-6.9-1.8-9-3.5c2.7-1,5.5-2.1,6.4-2.5c0.8-0.3,1.3-0.5,1.5-0.6
		c0.3-0.1,0.5-0.3,0.6-0.5l1.6-4.2c0.1-0.4,0-0.8-0.4-1c-0.7-0.4-6.8-3.9-15-4c0,0-0.1,0-0.1,0c-7.2,0-11.8,2.1-13.3,2.8
		c-0.4,0.2-0.7,0.5-0.8,0.8c-0.8,1.6-1.5,3.7-1.9,4.5c-0.1,0.2,0,0.4,0.2,0.5c0.2,0.1,0.4,0.1,0.6,0c1-0.8,2.4-1.2,3.1-1.2
		c1.4,0,3.7,1.3,7,3.8c-5.1,1.9-9.7,3.8-11.4,4.7c-2.9,1.6-5.8,4.6-8.9,7.8c-1.4,1.4-2.8,2.9-4.2,4.3c-5.2,4.9-8.4,5.4-9.5,5.4
		c-1.1,0-2-0.4-2.7-1.2c-1.3-1.3-1.9-3.7-1.6-6.2c0.3-3.1,2.9-8.2,4.4-10.4c0.1,0,0.9-0.4,0.9-0.5c0.9-0.4,1.5-1.2,1.9-2.1
		c0.7-1.8,1.8-5.3,1.3-7.8c-0.6-2.9-3.7-5.9-5.2-7.2c-0.2-0.2-0.5-0.1-0.6,0.2l-1.4,4.9c-0.1,0.3,0.1,0.7,0.4,0.8
		c3.1,2,4.2,4.6,4.6,5.6c0,0.1,0,0.1-0.1,0.1c-11.5,5.5-20.7,5.5-27.5,5.5h-0.7c-5.8,0-9.4-2-10.4-2.6c-0.1-0.1-0.2-0.2-0.3-0.3
		c-1.4-2.6-3.6-4.6-4.5-5.2c-0.2-0.1-0.4-0.2-0.6-0.1c-0.2,0.1-0.3,0.2-0.4,0.4l-0.9,4.8c0,0.3,0.1,0.6,0.3,0.8
		c3.3,2.8,4.8,6.7,5.3,8.2c0.1,0.4,0,0.9-0.3,1.2c-0.8,0.8-2.3,2.1-5.4,4.3c-5.2,3.8-18.2,9.2-22.2,10.7c-3.5,1.3-12.3,3.9-17.7,5.5
		C362.3,120.6,362,121.2,364.9,120.9z M486.8,86.4c-1.5-1.2-3.2-2.6-4.1-3.3c0,0,0,0,0.1,0c4.9,0,8.2,0.9,9.6,1.4
		C490.7,85.1,488.8,85.7,486.8,86.4z"/>
	<path class="st2" d="M264.6,46.3l-2.2,5.2l0,0.1c0,0.1,2.3,6.7,3,14.3c0.8,8.3,0.9,11.4,1,14.9l0,1.1c0.1,4,0.3,10.1,1.7,13.8
		c2.1,5.3,7.3,6,8.8,6c2.8,0.1,6.6-1.2,9.2-4.5c0.1-0.1,0.2-0.3,0.3-0.4c0.4-0.5,0.8-1.1,1.5-1.7c0.1,3.5,2.1,5.6,5.9,5.7
		c3.8,0.2,6.7-1.3,8.6-4.3l0.1-0.2c0.1-0.1,0.1-0.2,0.3-0.4c0.4-0.6,1.1-1.7,1.7-2.3c0.2,1.4,1,4.5,5.4,6.7c3.1,1.5,5.2,2.1,6.5,1.6
		c0.6-0.2,1.1-0.7,1.4-1.4c0.1-0.2,0.2-0.4,0.3-0.6c0.8-1.6,2.4-5,0.7-9c0.6-0.3,2.3-1.1,2.9-1.7c1.1-1,1.5-2.1,2.1-3.8
		c0.3-0.8,0.6-1.6,0.8-2.3c0.1,1.7,0.3,4.5,0.4,6.3l0,0.5c0,2.3,0.1,6.7,2.5,8.9c1,0.9,2.4,1.2,4,1.3c4.2,0.2,8.7-3.4,9.4-6.5
		c0.5-2.3,1.2-5.5,0.9-10.4c-0.1-1.6-1.3-12.2-1.6-13.9c-0.5-3.3-1.4-10.1-1.4-10.1c0.6-0.3,4,4.5,4.3,3.9c0.3-0.4,0-2.2-1.3-4.7
		c-1.1-2.1-4.3-8-5.3-9.9c-0.1-0.3-0.5-0.3-0.6,0l-2.6,5c-0.1,0.1-0.1,0.3,0,0.4c0.2,0.3,0.7,1,1,1.7c0.3,0.9,1.2,9.3,1.4,11.2
		c1.1,9,2.9,20.8,3.1,26.1c-0.8,0.3-3.9,1.4-6.4,1.3c-2.6-0.1-4.9-0.9-4.9-8.7c0-7.2-2.2-28.1-4.3-36.5c-0.1-0.2-0.3-0.4-0.5-0.4
		c-0.3,0-0.5,0.1-0.5,0.4l-2.1,6.5c-0.1,0.2-0.1,0.4-0.1,0.6c0.2,1.7,1.9,14.7,2.1,17.8c0.2,2.9,0.6,8.7,0.6,9.7
		c-0.6,0.4-3.1,2.4-6.2,2.7c-2.4,0.2-4,0-5.4-0.2c-0.6-0.1-1.1-0.2-1.6-0.2c-0.4,0-0.7,0.2-0.8,0.4c-0.2,0.4-0.7,1.2-1,2.1
		c0-0.3,0-0.5,0.1-0.7c0-0.2-0.1-0.4-0.3-0.5s-0.4-0.1-0.6,0.1c-0.6,0.4-1.7,1.4-3,3.1l-0.2,0.3c-1.8,2.3-3.8,4.8-8.3,4.6
		c0,0-0.1,0-0.1,0c-3.8-0.2-4.7-3.2-4.8-3.7c0.1-0.2,0.3-1,0.4-1.4c0.1-0.3,0-0.6-0.2-0.8c-0.1-0.1-0.5-0.3-1,0
		c-0.5,0.2-1.5,1.4-2.7,2.8c-0.2,0.3-0.4,0.5-0.5,0.6c-0.8,0.9-4,3.4-8.6,3.2c-5.1-0.2-7.5-4.3-8-13.1l-0.2-3.2
		c-0.5-9.2-0.8-16.2-1.6-20.9c-1-5.9-2-10-2.9-12.3C265,45.7,264.7,46.1,264.6,46.3z M316,96.4c-1.5-0.4-5.4-1.7-7.3-4.6
		c0.9,0.1,2.9,0.2,4.4,1.1C315,94,315.7,95.7,316,96.4z"/>
	<path class="st2" d="M250.3,78c0.2-0.4-0.7-1.3-2.2-2.6c-1.4-1.2-4.7-4.3-5.4-4.8c-0.1-0.1-0.3-0.1-0.4-0.1
		c-0.1,0.1-0.3,0.2-0.3,0.3c-0.1,0.7-0.7,4.2-0.7,5.2c0,0.2,0.1,0.4,0.3,0.5c0.2,0.1,0.6,0.3,0.9,0.8c0.1,0.2,0.5,0.7,0.9,1.4
		c0.9,1.4,2.1,3.4,2.9,4.3c0.4,0.5,1.1,1.2,1.8,1.9c-2.6,2.8-4.6,5.6-5,8.7c-0.4,3.2-0.5,5.5,0.5,6.6c0.5,0.6,1.2,0.9,2.2,1
		c0.1,0,0.1,0,0.2,0c2.6,0.1,6.6-1.9,7.4-2.8c1.4-1.4,2.2-3.5,2.7-6.4c0.5-3.4,0.3-5.9-2.3-8.4c0.4-0.5,0.9-1,1.3-1.6
		c2.3-2.9,5.8-7.8,6-13c0-0.1-0.2-0.2-0.3-0.1c-1.2,2-4.8,7.3-6.9,9.9c-0.7,0.9-1.6,1.7-2.4,2.5c-1.4-1.3-2.6-2.6-3.4-3.5
		C249,78,250.1,78.3,250.3,78z M251.3,88.2c0.8,0.7,2.4,2.7,2.8,4.2c-0.8,0.5-4.7,2.9-7.6,2.8c-0.7,0-1.6-0.8-1.7-1.1
		c0-0.2,0.2-1.4,2.5-3.8c0.4-0.5,0.9-0.9,1.3-1.4c0.5-0.6,1.1-1.1,1.6-1.7C250.7,87.6,251.1,88,251.3,88.2z"/>
	<path class="st2" d="M519.7,52.8l2.7-5.1c0.1-0.3,0.5-0.3,0.7,0c1,2,4.3,8,5.3,10.1c1.3,2.6,1.5,4.4,1.3,4.8
		c-0.3,0.6-4-4.2-4.7-3.9c-0.4,0.1,1,8.4,1.3,10.2s1.7,10.8,1.9,12.4c0.2,1.6,2.3,13.6-1.6,20.2c0,0.1-0.2,0-0.2,0
		c0-1.3,0-6.5-0.9-13c-1.1-7.5-3-20.6-3.3-22.5c-0.3-1.9-1.2-10.1-1.6-10.9c-0.3-0.6-0.7-1.4-1-1.7
		C519.6,53.1,519.6,52.9,519.7,52.8"/>
	<g>
		<path class="st2" d="M371.9,95.9c-1.3-1.4-3.6-3.8-4.7-11.2c0-0.1-0.2-0.1-0.2,0l-1.1,4c-0.2,0.8-0.7,1.5-1.5,1.9
			c-3.1,1.8-7,2.8-8.6,2.7c-1.8-0.1-2.9-1.6-2.7-3.6s1.3-5.6,2.4-7.9c1.4-3,8-8.4,10.6-10.5c2.2-1.8,5.1-5.4,5.9-6.3
			c0-0.1,0.2,0,0.1,0.1c-0.7,4.3-4.4,8.2-5.4,9.4c-1,1.2-7.2,6.9-7.9,7.5c-0.6,0.6-3.8,3.3-3.2,4.4c0.6,1.1,2.1,0.9,5.3,0.1
			c2.3-0.6,4.2-1.8,5.1-2.4c0.3-0.2,0.5-0.6,0.4-1c-0.2-0.8-0.5-2.3-0.8-3.4c-1.3-4.8-3-8.8-3.5-9.8c-0.1-0.2-0.1-0.4,0-0.6l1.4-5.2
			c0.1-0.3,0.5-0.3,0.6-0.1c2.4,4.5,3,6.7,5,16c0.6,2.7,1.5,6.4,3.7,9.7c2.4,3.7,6.5,3.6,8.3,3.2c3.4-0.8,5.9-2.2,6.8-2.8
			c0.1-0.1,0.1-0.1,0.1-0.2c-0.4-1-1.5-3.5-3.8-5.4c-0.3-0.2-0.4-0.6-0.3-0.9l1.3-4.4c0.1-0.2,0.3-0.4,0.5-0.5
			c0.2-0.1,0.5,0,0.6,0.2c1.2,1.2,4,4.4,4.2,8.1c0.1,2.6-0.4,4.9-0.7,6.1c-0.2,0.8-0.7,1.5-1.4,2c-2.2,1.6-6.7,3.7-9.9,4
			C375.5,99,373,97.1,371.9,95.9z"/>
	</g>
	<polygon class="st2" points="463.4,82 456.7,78 460.4,72.7 467,76.7 	"/>
	<polygon class="st2" points="402.3,79.3 395.7,75.3 399.3,70 405.9,74 	"/>
	<polygon class="st2" points="432,112.4 425.4,108.4 429,103.1 435.6,107.1 	"/>
	<polygon class="st2" points="420.3,114 413.8,110 417.3,104.8 423.9,108.8 	"/>
	<polygon class="st2" points="390.8,108.2 384.2,104.2 387.8,98.9 394.5,102.9 	"/>
	<polygon class="st2" points="381.6,109.8 375,105.7 378.6,100.4 385.3,104.4 	"/>
	
		<rect x="355.3" y="51.6" transform="matrix(0.5422 -0.8403 0.8403 0.5422 117.626 326.5609)" class="st2" width="6.3" height="7.5"/>
	<polygon class="st2" points="355,61.5 348.5,57.5 352,52.2 358.5,56.2 	"/>
	<polygon class="st2" points="293.5,115.4 287.1,111.1 290.9,106 297.3,110.3 	"/>
	<polygon class="st2" points="284.4,116.4 278,112.2 281.8,107.1 288.2,111.4 	"/>
</g>
<g>
	<g>
		<polygon class="st3" points="185.8,62.7 120.5,8.6 147.6,62.9 		"/>
		<polygon class="st4" points="94.6,37.3 147.6,62.9 120.5,8.6 		"/>
		<polygon class="st5" points="49.6,28.1 94.6,37.3 120.5,8.6 		"/>
		<polygon class="st6" points="97.4,65.2 94.6,37.3 147.6,62.9 127.9,79.3 		"/>
		<polygon class="st7" points="185.6,135.1 147.6,62.9 185.8,62.7 		"/>
		<polygon class="st8" points="128.7,113.4 185.6,135.1 147.6,62.9 127.9,79.3 		"/>
		<polygon class="st9" points="93.5,130.3 88.3,158 185.6,135.1 128.7,113.4 		"/>
		<polygon class="st10" points="123,188.1 88.3,158 185.6,135.1 		"/>
		<polygon class="st6" points="72,95.6 43.5,89 88.3,158 93.5,130.3 		"/>
		<polygon class="st11" points="41.3,161.2 88.3,158 123,188.1 		"/>
		<polygon class="st12" points="43.5,89 72,95.6 97.4,65.2 94.6,37.3 		"/>
		<polygon class="st13" points="49.6,28.1 16.7,81.6 43.5,89 94.6,37.3 		"/>
		<polygon class="st1" points="41.3,161.2 43.5,89 16.7,81.6 		"/>
		<g>
			<g>
				<polygon class="st14" points="93.5,130.3 88.3,158 185.6,135.1 128.7,113.4 				"/>
			</g>
		</g>
	</g>
	<g>
		<g>
			<polygon class="st15" points="43.5,89 88.3,158 41.3,161.2 			"/>
		</g>
	</g>
</g>
</svg>
