<?xml version="1.0" encoding="utf-8"?>
<!-- Generator: Adobe Illustrator 22.0.1, SVG Export Plug-In . SVG Version: 6.00 Build 0)  -->
<svg version="1.1" id="Layer_1" xmlns="http://www.w3.org/2000/svg" xmlns:xlink="http://www.w3.org/1999/xlink" x="0px" y="0px"
	 viewBox="0 0 823.2 192.7" style="enable-background:new 0 0 823.2 192.7;" xml:space="preserve">
<style type="text/css">
	.st0{fill:#B1B1B1;}
	.st1{fill:#6A150C;}
	.st2{fill:#A71A17;}
	.st3{fill:#EAB9B8;}
	.st4{fill:#DB2A42;}
	.st5{fill:#E04B5C;}
	.st6{fill:#E15C6B;}
	.st7{fill:#F6CDC9;}
	.st8{fill:#A61A17;}
	.st9{fill:#E4B8BF;}
	.st10{fill:#D35D5F;}
	.st11{fill:#CA1519;}
	.st12{fill:#9E1A1D;}
	.st13{fill:#EA8991;}
	.st14{fill:#D21221;}
	.st15{fill:#752511;}
	.st16{opacity:0.2;}
	.st17{fill:#BE152D;}
	.st18{fill:none;}
</style>
<rect x="213" y="7.5" class="st0" width="1.9" height="178.3"/>
<g>
	<g>
		<path class="st1" d="M252.7,152l-1.4-4.7h-6.5l-1.4,4.7h-4l6.4-19.5h4.5l6.4,19.5H252.7z M248,136.3l-2.4,8h4.8L248,136.3
			L248,136.3z"/>
		<path class="st1" d="M270.2,148.7v3.4h-11.9v-19.5h3.9v16.1H270.2z"/>
		<path class="st1" d="M280.6,145.8h-8.4v-3.4h8.4V145.8z"/>
		<path class="st1" d="M282.6,146.5h3.7c0.1,0.8,0.5,1.4,1.2,1.9c0.7,0.5,1.6,0.7,2.6,0.7c1,0,1.9-0.2,2.5-0.7c0.6-0.5,1-1.1,1-1.8
			c0-0.6-0.2-1.1-0.7-1.5s-1.3-0.7-2.4-1l-2.4-0.6c-3.4-0.8-5.1-2.6-5.1-5.4c0-1.8,0.7-3.2,2-4.3c1.3-1.1,3-1.6,5.1-1.6
			c2.1,0,3.8,0.5,5.1,1.6c1.3,1.1,1.9,2.5,2,4.3h-3.6c-0.1-0.8-0.4-1.5-1-1.9s-1.4-0.7-2.4-0.7c-1,0-1.7,0.2-2.3,0.7
			c-0.6,0.4-0.9,1-0.9,1.8c0,0.6,0.2,1.1,0.7,1.4s1.2,0.7,2.3,0.9l2.2,0.5c1.9,0.4,3.2,1.1,4,1.9c0.8,0.9,1.3,2.1,1.3,3.6
			c0,1.9-0.7,3.4-2,4.5c-1.4,1.1-3.2,1.7-5.5,1.7c-2.2,0-4-0.5-5.3-1.6C283.4,149.8,282.7,148.3,282.6,146.5z"/>
		<path class="st1" d="M311.5,152l-1.4-4.7h-6.5l-1.4,4.7h-4l6.4-19.5h4.5l6.4,19.5H311.5z M306.9,136.3l-2.4,8h4.8L306.9,136.3
			L306.9,136.3z"/>
		<path class="st1" d="M320.8,152h-3.7v-19.5h3.2l8.6,12.7h0.1v-12.7h3.7V152h-3.2l-8.6-12.8h-0.1L320.8,152L320.8,152z"/>
		<path class="st1" d="M347.7,148.7v3.4h-12.2v-19.5h12.2v3.4h-8.4v4.7h7.9v3.1h-7.9v4.9H347.7z"/>
		<path class="st1" d="M367.8,152l-1.4-1.6c-0.7,0.6-1.5,1.1-2.5,1.5c-1,0.4-2.1,0.5-3.2,0.5c-2,0-3.5-0.5-4.7-1.5
			c-1.2-1-1.7-2.3-1.7-4c0-1.1,0.3-2.1,0.8-2.9c0.5-0.8,1.4-1.6,2.6-2.3c0,0,0.1-0.1,0.3-0.2c0.1-0.1,0.3-0.1,0.4-0.2
			c0.1-0.1,0.2-0.1,0.2-0.1c-0.8-0.9-1.4-1.7-1.8-2.4s-0.5-1.4-0.5-2.1c0-1.3,0.5-2.4,1.5-3.3s2.2-1.3,3.7-1.3
			c1.5,0,2.7,0.4,3.7,1.3c1,0.8,1.4,1.9,1.4,3.2c0,1-0.3,1.9-0.9,2.7c-0.6,0.8-1.6,1.6-2.8,2.3l3.5,4c0.4-0.8,0.7-2.1,0.7-3.7v-1
			h3.1v1.3c0,2.4-0.5,4.4-1.6,5.9l3.4,3.8L367.8,152L367.8,152z M359.7,143.6c-0.7,0.5-1.2,0.9-1.5,1.4c-0.3,0.5-0.5,1-0.5,1.6
			c0,0.9,0.3,1.6,0.9,2.1s1.4,0.8,2.4,0.8c0.7,0,1.3-0.1,1.9-0.4c0.6-0.2,1.1-0.6,1.5-1l-4.2-4.8
			C360.1,143.4,359.9,143.5,359.7,143.6z M361.1,140c0.8-0.5,1.4-0.9,1.8-1.4c0.4-0.5,0.5-1,0.5-1.6c0-0.6-0.2-1.1-0.6-1.5
			s-0.9-0.6-1.5-0.6c-0.6,0-1.1,0.2-1.5,0.6c-0.4,0.4-0.6,0.9-0.6,1.5c0,0.4,0.1,0.9,0.4,1.3C360,138.7,360.5,139.3,361.1,140z"/>
		<path class="st1" d="M377.7,132.5h7.5c1.9,0,3.4,0.6,4.6,1.8c1.2,1.2,1.8,2.8,1.8,4.8c0,2-0.6,3.6-1.8,4.8
			c-1.2,1.2-2.8,1.9-4.8,1.9h-3.5v6.2h-3.9L377.7,132.5L377.7,132.5z M381.5,135.8v6.9h2.6c1.1,0,2-0.3,2.6-0.9s0.9-1.5,0.9-2.6
			s-0.3-2-0.9-2.6c-0.6-0.6-1.5-0.9-2.6-0.9H381.5z"/>
		<path class="st1" d="M405.6,152l-1.4-4.7h-6.5l-1.4,4.7h-4l6.4-19.5h4.5l6.4,19.5H405.6z M400.9,136.3l-2.4,8h4.8L400.9,136.3
			L400.9,136.3z"/>
		<path class="st1" d="M415,144.9v7.1h-3.9v-19.5h7.6c2.1,0,3.7,0.6,4.9,1.7c1.2,1.1,1.8,2.6,1.8,4.6c0,1.3-0.3,2.4-0.9,3.4
			c-0.6,1-1.4,1.7-2.5,2.1l3.9,7.8h-4.4l-3.4-7.1H415z M415,135.7v6.2h3.3c1,0,1.7-0.3,2.3-0.8c0.5-0.6,0.8-1.3,0.8-2.3
			c0-0.9-0.3-1.7-0.8-2.3c-0.6-0.6-1.3-0.9-2.3-0.9L415,135.7L415,135.7z"/>
		<path class="st1" d="M435.8,152h-3.9v-16.2h-5.3v-3.4h14.5v3.4h-5.4L435.8,152L435.8,152z"/>
		<path class="st1" d="M446.6,152h-3.7v-19.5h3.2l8.6,12.7h0.1v-12.7h3.7V152h-3.2l-8.6-12.8h-0.1L446.6,152L446.6,152z"/>
		<path class="st1" d="M473.5,148.7v3.4h-12.2v-19.5h12.2v3.4h-8.4v4.7h7.9v3.1h-7.9v4.9H473.5z"/>
		<path class="st1" d="M479.7,144.9v7.1h-3.9v-19.5h7.6c2.1,0,3.7,0.6,4.9,1.7c1.2,1.1,1.8,2.6,1.8,4.6c0,1.3-0.3,2.4-0.9,3.4
			c-0.6,1-1.4,1.7-2.5,2.1l3.9,7.8h-4.4l-3.4-7.1H479.7z M479.7,135.7v6.2h3.3c1,0,1.7-0.3,2.3-0.8c0.5-0.6,0.8-1.3,0.8-2.3
			c0-0.9-0.3-1.7-0.8-2.3c-0.6-0.6-1.3-0.9-2.3-0.9L479.7,135.7L479.7,135.7z"/>
		<path class="st1" d="M491.5,146.5h3.7c0.1,0.8,0.5,1.4,1.2,1.9c0.7,0.5,1.6,0.7,2.6,0.7c1,0,1.9-0.2,2.5-0.7c0.6-0.5,1-1.1,1-1.8
			c0-0.6-0.2-1.1-0.7-1.5s-1.3-0.7-2.4-1l-2.4-0.6c-3.4-0.8-5.1-2.6-5.1-5.4c0-1.8,0.7-3.2,2-4.3c1.3-1.1,3-1.6,5.1-1.6
			c2.1,0,3.8,0.5,5.1,1.6c1.3,1.1,1.9,2.5,2,4.3h-3.6c-0.1-0.8-0.4-1.5-1-1.9c-0.6-0.5-1.4-0.7-2.4-0.7c-1,0-1.7,0.2-2.3,0.7
			c-0.6,0.4-0.9,1-0.9,1.8c0,0.6,0.2,1.1,0.7,1.4s1.2,0.7,2.3,0.9l2.2,0.5c1.9,0.4,3.2,1.1,4,1.9c0.8,0.9,1.3,2.1,1.3,3.6
			c0,1.9-0.7,3.4-2,4.5c-1.4,1.1-3.2,1.7-5.5,1.7c-2.2,0-4-0.5-5.3-1.6C492.3,149.8,491.6,148.3,491.5,146.5z"/>
		<path class="st1" d="M512.5,146.5h3.7c0.1,0.8,0.5,1.4,1.2,1.9c0.7,0.5,1.6,0.7,2.6,0.7c1,0,1.9-0.2,2.5-0.7c0.6-0.5,1-1.1,1-1.8
			c0-0.6-0.2-1.1-0.7-1.5s-1.3-0.7-2.4-1l-2.4-0.6c-3.4-0.8-5.1-2.6-5.1-5.4c0-1.8,0.7-3.2,2-4.3c1.3-1.1,3-1.6,5.1-1.6
			c2.1,0,3.8,0.5,5.1,1.6c1.3,1.1,1.9,2.5,2,4.3h-3.6c-0.1-0.8-0.4-1.5-1-1.9s-1.4-0.7-2.4-0.7c-1,0-1.7,0.2-2.3,0.7
			c-0.6,0.4-0.9,1-0.9,1.8c0,0.6,0.2,1.1,0.7,1.4s1.2,0.7,2.3,0.9l2.2,0.5c1.9,0.4,3.2,1.1,4,1.9c0.8,0.9,1.3,2.1,1.3,3.6
			c0,1.9-0.7,3.4-2,4.5s-3.2,1.7-5.5,1.7c-2.2,0-4-0.5-5.3-1.6S512.5,148.3,512.5,146.5z"/>
		<path class="st1" d="M531.1,134.9c1.6-1.8,3.8-2.7,6.5-2.7s4.9,0.9,6.5,2.7s2.4,4.3,2.4,7.4c0,3.1-0.8,5.6-2.4,7.4
			c-1.6,1.8-3.8,2.7-6.5,2.7c-2.7,0-4.9-0.9-6.5-2.7s-2.4-4.3-2.4-7.4C528.7,139.2,529.5,136.7,531.1,134.9z M541.3,137.4
			c-0.9-1.2-2.1-1.8-3.6-1.8s-2.7,0.6-3.6,1.8c-0.9,1.2-1.4,2.8-1.4,4.9c0,2,0.4,3.7,1.3,4.9c0.9,1.2,2.1,1.8,3.6,1.8
			c1.5,0,2.7-0.6,3.6-1.8c0.9-1.2,1.3-2.8,1.3-4.9C542.6,140.2,542.2,138.6,541.3,137.4z"/>
		<path class="st1" d="M552.5,152h-3.9v-19.5h12.1v3.4h-8.2v5.2h7.5v3.2h-7.5L552.5,152L552.5,152z"/>
		<path class="st1" d="M570.9,152H567v-16.2h-5.3v-3.4h14.5v3.4h-5.4L570.9,152L570.9,152z"/>
		<path class="st1" d="M582.8,132.5h7.1c2.8,0,4.9,0.8,6.5,2.5s2.3,4.1,2.3,7.2s-0.8,5.5-2.3,7.2c-1.6,1.7-3.7,2.6-6.5,2.6h-7.1
			V132.5z M586.6,135.9v12.8h2.7c1.7,0,3.1-0.6,4-1.6c0.9-1.1,1.4-2.7,1.4-4.8c0-2-0.5-3.6-1.4-4.7s-2.2-1.6-3.9-1.6H586.6z"/>
		<path class="st1" d="M604.6,144.9v7.1h-3.9v-19.5h7.6c2.1,0,3.7,0.6,4.9,1.7s1.8,2.6,1.8,4.6c0,1.3-0.3,2.4-0.9,3.4
			c-0.6,1-1.4,1.7-2.5,2.1l3.9,7.8h-4.4l-3.4-7.1H604.6z M604.6,135.7v6.2h3.3c1,0,1.7-0.3,2.3-0.8c0.5-0.6,0.8-1.3,0.8-2.3
			c0-0.9-0.3-1.7-0.8-2.3c-0.6-0.6-1.3-0.9-2.3-0.9L604.6,135.7L604.6,135.7z"/>
		<path class="st1" d="M621,152h-3.9v-19.5h3.9V152z"/>
		<path class="st1" d="M627.4,152h-3.7v-19.5h3.2l8.6,12.7h0.1v-12.7h3.7V152h-3.2l-8.6-12.8h-0.1L627.4,152L627.4,152z"/>
		<path class="st1" d="M645.8,152H642v-19.5h3.9v8.9h0.1l6.9-8.9h4.3l-6.8,8.7l7.3,10.9h-4.6l-5.5-8.2l-1.7,2.2L645.8,152L645.8,152
			z"/>
		<path class="st1" d="M658.2,146.5h3.7c0.1,0.8,0.5,1.4,1.2,1.9c0.7,0.5,1.6,0.7,2.6,0.7c1,0,1.9-0.2,2.5-0.7c0.6-0.5,1-1.1,1-1.8
			c0-0.6-0.2-1.1-0.7-1.5s-1.3-0.7-2.4-1l-2.4-0.6c-3.4-0.8-5.1-2.6-5.1-5.4c0-1.8,0.7-3.2,2-4.3s3-1.6,5.1-1.6
			c2.1,0,3.8,0.5,5.1,1.6c1.3,1.1,1.9,2.5,2,4.3h-3.6c-0.1-0.8-0.4-1.5-1-1.9s-1.4-0.7-2.4-0.7c-1,0-1.7,0.2-2.3,0.7
			c-0.6,0.4-0.9,1-0.9,1.8c0,0.6,0.2,1.1,0.7,1.4s1.2,0.7,2.3,0.9l2.2,0.5c1.9,0.4,3.2,1.1,4,1.9c0.8,0.9,1.3,2.1,1.3,3.6
			c0,1.9-0.7,3.4-2,4.5c-1.4,1.1-3.2,1.7-5.5,1.7c-2.2,0-4-0.5-5.3-1.6S658.3,148.3,658.2,146.5z"/>
		<path class="st1" d="M688,152.4c-2.7,0-4.8-0.9-6.4-2.7c-1.6-1.8-2.3-4.3-2.3-7.4c0-3.1,0.8-5.6,2.4-7.4c1.6-1.8,3.7-2.7,6.4-2.7
			c1.5,0,2.8,0.3,4,0.9s2.2,1.5,2.9,2.6c0.7,1.1,1.1,2.4,1.2,3.8h-3.8c-0.2-1.2-0.7-2.2-1.5-2.9s-1.8-1.1-2.9-1.1
			c-1.5,0-2.6,0.6-3.5,1.8c-0.9,1.2-1.3,2.8-1.3,4.9c0,2.1,0.4,3.7,1.3,4.9s2,1.8,3.5,1.8c1.1,0,2.1-0.3,2.9-1s1.3-1.6,1.5-2.7h3.8
			c-0.2,2.2-1,3.9-2.5,5.2C692.1,151.7,690.3,152.4,688,152.4z"/>
		<path class="st1" d="M699.9,134.9c1.6-1.8,3.8-2.7,6.5-2.7s4.9,0.9,6.5,2.7s2.4,4.3,2.4,7.4c0,3.1-0.8,5.6-2.4,7.4
			c-1.6,1.8-3.8,2.7-6.5,2.7c-2.7,0-4.9-0.9-6.5-2.7s-2.4-4.3-2.4-7.4C697.5,139.2,698.3,136.7,699.9,134.9z M710,137.4
			c-0.9-1.2-2.1-1.8-3.6-1.8s-2.7,0.6-3.6,1.8c-0.9,1.2-1.4,2.8-1.4,4.9c0,2,0.4,3.7,1.3,4.9c0.9,1.2,2.1,1.8,3.6,1.8
			c1.5,0,2.7-0.6,3.6-1.8c0.9-1.2,1.3-2.8,1.3-4.9C711.4,140.2,710.9,138.6,710,137.4z"/>
		<path class="st1" d="M737,152h-3.4v-13.2h-0.1l-5,13H726l-5-13h-0.1V152h-3.4v-19.5h4.5l5.2,13.8h0.1l5.2-13.8h4.5L737,152
			L737,152z"/>
		<path class="st1" d="M739.7,132.5h7.5c1.9,0,3.4,0.6,4.6,1.8s1.8,2.8,1.8,4.8c0,2-0.6,3.6-1.8,4.8c-1.2,1.2-2.8,1.9-4.8,1.9h-3.5
			v6.2h-3.9L739.7,132.5L739.7,132.5z M743.5,135.8v6.9h2.6c1.1,0,2-0.3,2.6-0.9c0.6-0.6,0.9-1.5,0.9-2.6s-0.3-2-0.9-2.6
			c-0.6-0.6-1.5-0.9-2.6-0.9H743.5z"/>
		<path class="st1" d="M767.5,152l-1.4-4.7h-6.5l-1.4,4.7h-4l6.4-19.5h4.5l6.4,19.5H767.5z M762.9,136.3l-2.4,8h4.8L762.9,136.3
			L762.9,136.3z"/>
		<path class="st1" d="M776.8,152h-3.7v-19.5h3.2l8.6,12.7h0.1v-12.7h3.7V152h-3.2l-8.6-12.8h-0.1L776.8,152L776.8,152z"/>
		<path class="st1" d="M800.6,152h-3.9v-7.3l-6.4-12.2h4.2l4.1,8.3h0.1l4.1-8.3h4.1l-6.4,12.2L800.6,152L800.6,152z"/>
	</g>
	<path class="st2" d="M740.8,92c-1.5,2.8-2.5,6.1-2.5,8.7c0,9.1,4.2,12,7.5,12c3.3,0,7.3-4.4,9.3-6.4s6.3-6.8,10.2-10.6
		s8.9-5.6,12.3-5.6c3.4,0,5.5,3.8,7.2,4.6c2.4,1.1,5.4-0.3,6.5-1.1c1.1-0.9,2.4-3.1,2.7-3.8s0.5-0.9,0.5-0.9
		c-0.1,0.6,0.8,3.8,4.8,3.8c4,0,4.3-2.5,5.5-6.2c1.2-3.8,0.2-6.7-0.4-7.8c-0.1-0.2-0.4-0.2-0.5,0l-1.9,5.2c0,0.1,0,0.2,0,0.3
		c0.8,1.2,0.9,2.2,0.9,2.2s-0.9,0.5-1.9,0.5c-3.8,0-4.3-3-4.3-3c1.6-2.8,1.3-3.3,1.1-3.4c-0.2-0.1-0.3,0.1-1,0.7
		c-0.7,0.7-1,1.7-2.3,4.1c-1.3,2.4-3.4,3.8-6.4,3.8c-4.6,0-4.9-5-9.8-5c-3.4,0-8.7,1.8-12.3,4.9c-3.6,3.1-6.9,6.5-12,11.9
		s-8.5,6.5-10.2,6.5c-1.8,0-4.4-1-4.4-6.3c0-3.2,1.4-6.5,2.5-8.7L740.8,92z"/>
	<path class="st2" d="M731.6,56.9c-0.1,0-0.1-0.1,0-0.1c11.8-5.6,35.9-9.7,37.4-9.9c1.5-0.2,5.8-0.8,5.8,1.9s-2.8,5.1-5.3,9.4
		c-1.8,3.2-2.9,6.5-3.3,8.1c0,0.1,0.2,0.2,0.2,0.1c0.9-1.5,2.8-5,5.4-8.7c1.9-2.9,5.8-11.1,5.8-13.6s-0.9-3.5-5.9-3
		s-18.4,3.7-21.7,4.5c-3.1,0.8-11.7,3.2-18.1,5.8c-1,0.4-1.7,1.1-2.1,2.1c-0.7,1.7-1.6,4.7-1,8c0,0.1,0.1,0.3,0.2,0.3
		c0.3,0.1,0.9,0.4,1.2,0.9c0.5,0.7,5.2,7.3,10.2,12.4c5,5.1,11.3,8.1,11.3,12c0,0.7-0.5,1-2.7,2.3s-4.7,2.2-6.8,2.2
		c-2.1,0-5.2-0.9-7.9-5.3c-1.9-3.3-2.9-4.7-4.3-4.7c-1.4,0-6.5,3-9,11.4c-1.2,4-2.9,9.2-5.4,9.2c-2.4,0-5.4-4.3-6.4-7
		c-0.9-2.4-1.4-5.9-0.9-9c0-0.1-0.2-0.2-0.2-0.1c-0.7,1.8-1.8,6.3,0.1,12.3c0.7,2.2,4.5,8.3,7.7,8.3c4,0,5.4-7.6,6.6-11.2
		c1.3-3.9,5.5-7.7,6.9-7.7c1.2,0,2.4,0.9,4.1,4.2c1.7,3.3,5.1,5.7,7.7,5.7s7.7-1.9,10.2-4.5s2.8-11,0-14.6
		c-2.8-3.5-7.8-6.8-10.2-9.2c-2.4-2.4-5-5.3-4.8-5.6c0.2-0.3,3.9,1.3,4.6,1C741.8,64.4,737.5,60.3,731.6,56.9"/>
	<polygon class="st2" points="796.2,73.1 789.9,69.2 793.4,64 799.7,67.9 	"/>
	<polygon class="st2" points="789.7,66.9 783.4,63 786.8,57.8 793.1,61.7 	"/>
	<polygon class="st2" points="787.5,74.6 781.2,70.7 784.6,65.5 791,69.4 	"/>
	<path class="st2" d="M706.5,49.7l2.5-4.9c0.1-0.3,0.5-0.3,0.6,0c1,1.9,4,7.7,5,9.7c1.2,2.5,1.4,4.2,1.2,4.6c-0.3,0.5-3.8-4-4.4-3.8
		c-0.3,0.1,1,8.1,1.2,9.7c0.2,1.7,1.6,10.4,1.8,11.9c0.2,1.5,2.2,13-1.4,19.4c0,0.1-0.1,0-0.1,0c0-1.2,0-6.2-0.9-12.5
		c-1-7.2-2.9-19.8-3.2-21.6s-1.2-9.7-1.5-10.5c-0.2-0.6-0.7-1.3-0.9-1.6C706.5,50,706.5,49.9,706.5,49.7"/>
	<path class="st2" d="M690.2,89.5c0,0.1,0,0.2,0.1,0.2c4.4-1.1,5.9-2.1,6.3-2.4c0.1-0.1,0.1-0.2,0.1-0.2c-1-7-3.9-22.9-4.2-24.7
		c-0.3-1.8-1.3-9.6-1.6-10.5c-0.2-0.6-0.7-1.3-0.9-1.6c-0.1-0.1-0.1-0.3,0-0.4l2.5-4.9c0.1-0.3,0.5-0.3,0.6,0c1,1.9,4,7.7,5,9.7
		c1.2,2.5,1.4,4.2,1.2,4.6c-0.3,0.5-3.8-4-4.4-3.8c-0.3,0.1,1.1,8,1.3,9.7c0.2,1.7,1.9,10,2.1,11.6c0.5,3.6,1.2,6.5,0.1,10
		c-0.2,0.8-1,2.6-1.5,4c-0.4,1-1.2,1.9-2.1,2.4c-1.3,0.7-3.5,1.6-6.6,2.3c-5.6,1.2-8.1,0.9-8.1,0.9s-5.6,1.8-10.8,1.8
		s-10.4-1.1-11.6-7.8c0,0-0.7-0.2-2.3,2.4c-1.6,2.6-4,6.1-8.7,6.1S636.6,96,636.6,84c0-11.8-0.4-26.8-3.8-32.8
		c-0.1-0.2-0.1-0.4-0.1-0.6l1.6-5.2c0.1-0.3,0.5-0.3,0.6,0c0.7,1.7,2,5.9,2.6,9.8c1.7,10,1.5,17.3,1.6,23.4c0,6.1,1.5,14.1,7.8,14.1
		c3.3,0,6.8-1.4,8.4-4.2s3.3-5,4.2-4.7c0.4,0.1,0.3,0.8,0.1,2.1c0,0,0.7,6.2,10.9,6.2c8.9,0,17.3-3.7,19.4-5.3
		c0.2-0.1,0.2-0.3,0.1-0.5c-0.8-1.7-4.7-7-8.8-7c-4.2,0-7.7,2.7-12.2,7.6c-4,4.3-6.7,9.1-8.4,12.5c-0.1,0.3-0.5,0.1-0.5-0.2
		c0.2-1.3,0.8-3.5,2.4-6.7c2.8-5.5,12.2-19.1,20-19.1c3.5,0,5.7,2.1,7.3,3.8c0.8,0.8,1.5,1.7,2,2.4c0.6,0.8,0.8,1.8,0.6,2.8
		C692,84.3,691.2,87.5,690.2,89.5"/>
	<polygon class="st2" points="723.9,70 717.6,66.1 721.1,60.9 727.4,64.8 	"/>
	<polygon class="st2" points="726.6,78.6 720.2,74.7 723.7,69.5 730,73.4 	"/>
	<path class="st2" d="M580,80.7c-3.3-6.9-6.5-7.2-7.8-7.2c-2.6,0-7.3,4.4-7.3,8.9c0,4.3,4.5,5.1,5.8,5.1c1.4,0,3.8-0.2,4.6-0.2
		c2.7,0,3.7,2.1,3.9,2.7c0,0.1,0.1,0.3,0,0.4c-0.9,2.6-15.3,13.7-23.2,13.7c-8.2,0-10.6-7.4-10.6-11.1c0-3.7,2.2-7.9,2.2-7.9
		l-1.2-0.2c0,0-3.2,7.1-3,13.1c0.2,4.9,4.5,12.4,12.4,12.4c7.8,0,20.9-11.1,22.3-13.4c0.5-0.9,1.6-1.5,2.5-6.3
		C581.4,86.6,581.3,83.5,580,80.7 M569,81c-0.2-0.1-0.2-0.3,0-0.4c0.4-0.3,1.2-0.9,2.1-0.9c1.3,0,2.9,1.6,2.9,1.6S570.6,81.8,569,81
		"/>
	<path class="st2" d="M555.4,80.4l1.9-5.4c0.1-0.2,0.4-0.3,0.5-0.1c0.4,0.7,1.1,2.1,1.2,3.8c0.2,3.8-1.9,8.3-2.6,9.4
		c-0.7,1.2-2.3,1.6-3.4,1.7c-1.1,0.1-3.8-0.3-5.7-3.5c0,0-2.9,5-7,5c-5.2,0-4.1-4-9.6-4c-1.6,0-6.3,0.8-10.3,5.7
		c-4,4.9-6.8,10.2-9.5,13.3c-2.7,3-5.4,5.3-8.7,5.3c-3.3,0-7.9-3.3-7.9-10.7c0-1.8,0-5.7,2.2-8.9l0.9,0.5c0,0-1.7,2.4-1.7,8.3
		c0,1.5,0.9,5.3,4.2,5.7c3.6,0.4,7.7-3.2,11.1-7.3c1.9-2.3,4.9-6.8,6.8-9.1c1.9-2.4,7.1-9,13.2-9s5.6,4.2,10.2,4.2
		c3.6,0,5.3-2.4,6.1-4.1c0.8-1.6,1.4-3.1,2.1-3.9c0.7-0.8,0.9-1,1.2-0.9c0.3,0.1,0.2,1.2-1.1,4c-0.1,0.1-0.1,0.3,0,0.4
		c0.4,0.7,1.7,2.8,4.4,2.9c2.2,0.1,2.4-0.6,2.4-0.6s-0.2-1.4-1-2.5C555.4,80.6,555.4,80.5,555.4,80.4"/>
	<polygon class="st2" points="552.2,71.3 545.9,67.3 549.3,62.1 555.6,66.1 	"/>
	<polygon class="st2" points="545.6,65.1 539.3,61.1 542.8,55.9 549.1,59.9 	"/>
	<polygon class="st2" points="543.5,72.8 537.1,68.8 540.6,63.6 546.9,67.6 	"/>
	<polygon class="st2" points="611.3,51.9 605,48 608.5,42.8 614.8,46.7 	"/>
	<path class="st2" d="M517.5,67.5c0,0.1-0.2,0.1-0.2,0c0.2-1.3,0.6-4.2,2.2-7.2c2.1-4,4.3-7,4.3-8.2c0-1.2-0.8-2-2.9-1.8
		c-2.1,0.2-7,1.2-15.5,4.5c-8.5,3.4-14.9,6.9-15.5,8c0,0,4.5,2.1,5.9,2.7c1.4,0.6,2.2,1.4,2.1,1.8c-0.1,0.4-3.8-0.2-4.3-0.2
		c0,0,0,0,0,0c0.3,0.2,2.6,1.7,4.7,2.6c2.9,1.3,6.1,2.7,8.3,4c2.1,1.3,5.2,3.8,5,7.4c-0.2,4-1.1,6.8-2.8,8.3
		c-3.3,3.2-9.2,6.6-13.6,6.6c-7.7,0-9.3-7.3-9.4-11.9c-0.2-5.3-1-16.9-1.8-21.7c-0.7-4.7-1.9-8.5-3.4-11.1c-0.1-0.2-0.1-0.4-0.1-0.5
		l1.5-5.3c0.1-0.2,0.4-0.3,0.5-0.1c0.7,1.2,2.4,4.6,3.4,11.7c0.7,4.7,1.5,11.2,1.9,17.4c0.4,6.2,0.9,15.5,7.9,15.5
		c6.9,0,13.6-6.2,13.6-6.2s-0.3-2.4-4.7-4.9c-4.5-2.4-13.8-5.9-17.8-12.4l-0.5-4.2c0,0,0.8-3,3.3-4.9c3.3-2.4,14.2-8,21.8-10.4
		c4.4-1.4,10.2-3.6,13.2-2.6c3,1,0.5,8.3-0.3,9.6C524.1,54.5,519.4,63.3,517.5,67.5"/>
	<path class="st2" d="M477.8,79.9c-0.4-2.3-2.3-4.5-3.1-5.4c-0.7-0.9-1.5-2.3-1.7-2.6c0,0,0-0.1,0-0.1c0.5-0.1,2.8,0.9,3,0.5
		c0.2-0.4-0.6-1.2-1.2-1.9c-0.5-0.6-4-4.5-5.1-5.8c-0.1-0.2-0.4-0.1-0.4,0.1l-1.3,5.8c0,0.1,0,0.3,0.1,0.3c0.2,0.1,0.4,0.3,0.6,0.6
		c0.2,0.3,1,2.6,1.9,4.2c0.9,1.6,2.3,3.8,3.7,5.5c1.1,1.3,1.5,2.2,1.6,2.6c0,0.1,0,0.2-0.1,0.3c-1.5,1.3-6.7,2.8-9.2,3.4
		c-2.6,0.6-6.8,1.6-6.8,1.6s2-3.5,2.4-5.1c1.2-4.9,1.2-6.9,0.7-10c-0.3-1.7-0.9-4.8-1.2-6.2c0-0.2-0.3-0.2-0.4,0
		c-0.5,1.2-1.8,4.1-3.8,7.8c-2.4,4.5-4,10.4-4.2,11.4c0,0.1-0.1,0.2-0.2,0.2c-0.9,0.2-1.8,0.3-2.8,0.3c-7.3,0.3-11.8-5.2-13.1-6.9
		c-0.1-0.2-0.4-0.1-0.5,0.1c-0.4,1.4-0.6,3.2-0.6,3.2c-4.6-0.7-9.8,2.7-12.4,5.5c-2.6,2.9-6.3,7.7-9.1,10.9s-6.6,6.2-9.3,6.2
		c-2.7,0-4.2-1.6-4.3-5.7c-0.1-5.4,5.3-12,5.3-12l-1.6-0.3c-4.9,7.1-5.1,11.5-5.1,13.1c0,6,3.6,10.4,7.9,10.4
		c4.4,0,9.9-7.8,14.8-14.2c4.8-6.4,9.7-7.8,11-7.9c1.3,0,2.8,0.3,2.8,0.3c1.5,6.1,6.5,8.7,8,9.3c0.2,0.1,0.5,0,0.6-0.2
		c0.7-2.2,1.1-5.4,1.2-6c0-0.1,0.1-0.1,0.1-0.1c2,0.4,4.6,0.2,5.2,0.1c0.1,0,0.1,0.1,0.1,0.1l-0.3,2.5c0,0.2,0.1,0.3,0.3,0.3
		c1.1-0.1,2-0.1,2.3-0.1c0.1,0,0.1,0,0.1,0.1c1.6,4,3.1,6.4,6.4,8.6c3.3,2.3,6.6,1.8,7.5,1.5c0.9-0.3,2.6-0.2,3.6-5.8
		c1-5.6-2.3-8.1-2.3-8.1c5.6-1.3,7.1-3.3,7.5-4C476.7,87.8,478.4,82.9,477.8,79.9 M455.3,86.6C455.2,86.6,455.2,86.6,455.3,86.6
		c0-0.3,0.4-4.1,4.7-11.2c0,0,0.1,0,0.1,0c1.3,3.5,1.4,6.8,1.4,6.8C460.8,83.9,458.3,85.6,455.3,86.6 M468.5,100.2
		c-5.9,1.4-9.7-4-10-4.3c0,0,0,0,0,0C466.5,96.1,468.3,99.7,468.5,100.2C468.5,100.2,468.5,100.2,468.5,100.2"/>
	<g>
		<path class="st2" d="M392.5,81.3c1.7,0,6.1-1.4,6.6-3.1c0.4-1.6-0.2-9-0.6-14.3c-0.4-5.3-0.8-10.5-0.8-10.5c0.6-3.1,2-6.7,2-6.7
			c2.3,8.8,2.5,25.3,2.6,31c0.2,7.7,3.5,9,5.9,9.1c2.8,0.1,5.8-1.6,5.8-1.6c0.3-4.2-1.1-12.7-1.5-16.1c-0.4-3.4-1.3-11.5-1.6-13.1
			c-0.3-1.5-1.1-3-1.1-3l2.8-5.7c0,0,4.1,9.4,4.9,11.7s1,2.9,0.7,3.1c-0.7,0.5-3.4-4-3.7-3.8s0,1.8,0.3,3.9
			c0.3,2.1,1.1,8.3,1.4,11.1c0.3,2.7,0.9,7.7-0.8,12.2c-0.9,2.3-1.6,4.7-2.3,5.2c-1.4,1.1-2.9,1.8-6.2,2.2s-6.3-3-6.5-8.8
			c-0.1-1.6-0.2-3.1-0.2-4c0-0.1-0.2-0.2-0.2,0c-0.3,1-0.8,2.8-1.5,3.8c-1.1,1.6-3,2.4-3,2.4s1.9,3.5,0.2,9.9
			c-0.1,0.3-0.3,0.4-0.6,0.3c-1.3-0.6-5.1-2.4-7.2-5.6c-2.5-3.9-2.1-6.6-2.1-6.6s-1,1.2-1.6,2.1c-0.6,0.9-2.5,4.5-6.8,4.8
			c0,0-0.1,0-0.1,0.1c-0.1,0.6-0.5,4.8-1.5,7.1c-1,2.3-3.3,4.3-4.9,5.7s-10.7,7.8-17,7.6c-6.3-0.2-10-5.3-9.8-11
			c0.2-6.2,4.5-10.8,4.5-10.8s-2.3,4-2.4,6.8c0,3.3,1.6,8.7,8.4,9c2.4,0.1,7.7-1.1,13.6-5c4.4-2.9,6-4.4,6.6-4.9
			c0.2-0.2,0.2-0.4,0.2-0.7c-0.2-1.2-1-5.2-4.5-8.9c-0.1-0.1-0.1-0.2-0.1-0.3c0.1-0.4,0.4-1.8,1.5-5.6c0.1-0.2,0.3-0.3,0.5-0.1
			c0.6,0.6,1.7,2,2.8,3.8c0,0,0.7,1,3.3,1.1c2.6,0.1,5.1-1.9,6-3c0.8-1,1.7-2.4,2.4-3.3c0.1-0.1,0.2-0.1,0.3,0
			C387.4,79.5,388.8,81.3,392.5,81.3"/>
		<path class="st2" d="M325.7,95.1c1.8-3,5.5-7,5.5-7c2.4-5.9,1.7-12.6,1.4-15.7c-0.3-3.1-0.8-6.8-1.2-10c-0.3-3.2-0.8-8.5-0.9-9.5
			c-0.1-0.6-0.4-1.4-0.6-1.8c-0.1-0.2-0.1-0.4,0-0.6l2.4-4.8c0.1-0.2,0.4-0.2,0.5,0c0.8,1.6,3.1,6.5,4.1,8.8c1.2,2.7,2.3,5.7,1.5,6
			c-0.4,0.2-2.5-2.3-3.5-3.5c-0.2-0.2-0.5-0.1-0.5,0.2c0.3,2.2,1,8,1.5,14.8c0.6,8.6-3.4,14.4-3.4,14.4c7.5-7.9,12.7-12.5,18.3-12.3
			c4.3,0.2,8.1,4.6,9.7,6.7c0.5,0.7,0.7,1.6,0.5,2.4c-0.9,3.2-2.2,5.7-2.9,7c-0.4,0.7-1,1.1-1.7,1.4c-1,0.4-2.7,1-4.3,1.5
			c-2.5,0.8-17.3,5.6-25.5,5.3c-8.2-0.3-8.4-7.1-8.4-7.1c-1,0.5-1.1,1.4-3,4.1c-1.9,2.7-5.4,3.6-7.6,3.5c-2.3-0.1-5.4-1.4-7.3-5.6
			c-1.9-4.2-1.6-10-1.6-15.2s0.3-9.7-0.2-16.6s-2.1-11.6-2.1-11.6l2.5-6.2c0.5,1.3,1.5,7.8,1.9,13.2c0.4,5.4,0.2,12.5,0.3,23.6
			c0.1,11.1,5.1,12.3,8,12.4c2.9,0.1,5.3-1,7.2-3.8s2.9-4.1,3.6-3.9c0.4,0.1,0.2,1.2,0.1,1.8c-0.1,0.4-0.1,0.8,0.1,1.2
			c2.5,5.3,10.7,4.8,21.3,2.3c11-2.6,15.6-4.7,15.6-4.7c-2.2-2.6-5.3-5.6-9.4-5.7c-4.1-0.1-10.5,5.2-13.4,8.1
			c-2.9,2.9-6.3,6.9-8,9.1c-1.2,1.6-2,2.8-2.4,2.6C323.3,99.5,325.3,95.7,325.7,95.1"/>
		<polygon class="st2" points="273.9,72.7 267.7,68.5 271.4,63.4 277.6,67.6 		"/>
		<polygon class="st2" points="313.5,111 307.3,106.9 310.9,101.8 317.1,106 		"/>
		<polygon class="st2" points="265.2,73.9 259,69.7 262.6,64.6 268.8,68.8 		"/>
		<path class="st2" d="M282.6,103.7c-0.1,0.1-0.2,0-0.2-0.1c0.4-1.4,1.5-4.3,4.1-7.9c1.7-2.3,4.2-5,4.2-5.5c0-0.5-0.4-1.6-2.1-1.7
			c-1.8-0.1-6.1,1.9-8.9,3.1c-2.8,1.1-13.9,4.6-20.6,4.3c-7-0.2-20.1-4.4-19.8-14.5c0.1-3.3,2-7.7,4.8-11.1c0.1-0.1,0.2,0,0.2,0.1
			c-0.7,1.4-2.3,4.9-2.5,7c-0.3,3.1,2.4,11.6,19.2,12.2c5.2,0.2,10.8-0.8,17.2-2.8c6.5-1.9,10-4.5,13.4-3.9c3.4,0.6,1.6,4.7,0,8
			C290.2,94,284.4,100.9,282.6,103.7"/>
	</g>
	<path class="st2" d="M617.5,54.2l1.2-5.3c0-0.2,0.3-0.3,0.5-0.2l4.2,3.9c1,0.9,1.9,2,1.8,2.5c-0.1,0.5-2.9-0.6-2.9-0.6
		s1.4,1.8,2.4,3c1.2,1.5,3.6,3.8,2.9,9.2c-0.7,5.4-1.3,6.6-3.3,7.9s-5.7,3.9-9.5,3.9c-4.3,0-6.7-2.9-12-7.9c-2.8-2.6-7.1-6-10.3-5.6
		c-1.2,0.1-2.7,1-3.5,1.5c-0.2,0.1-0.5-0.1-0.4-0.3c0.2-0.8,0.8-2.4,1.9-5.2c0.1-0.3,0.4-0.6,0.8-0.7c1.6-0.6,6.4-2.2,12.5-2.2
		c6.4,0,12.4,2.8,13.9,3.6c0.2,0.1,0.3,0.3,0.2,0.6c-0.3,1-1.1,3.5-1.8,5c-0.1,0.1-0.2,0.2-0.3,0.2c-0.2,0-0.4,0-0.7,0.1
		c-2.4,0.8-6.3,2-9.2,3.5c-3,1.5-5.5,3.5-7.4,5.4c-1.8,1.8-6.5,7.1-7.6,14.8c-1.2,7.8,4,18.1,14.8,18.1c11.2,0,22.5-9.3,22.5-13.4
		c0-3.5-2.4-10.3-11.4-10.2c-9,0.1-13.5-0.1-17.7-2c-3.9-1.8-6.9-4.1-9.6-6.3c-0.1-0.1,0-0.2,0.1-0.2c1.7,0.7,6.6,2.4,13.5,2.4
		c8.7,0,12.1,0,16,0.2c3.9,0.2,11.5,1.8,11.5,12.7s-11.8,22.6-25,22.6c-13.2,0-16.6-12.4-16.6-19.4c0-7,2.8-14.1,4.2-16.8
		c1.4-2.7,4.2-6.9,10.4-11.8c1.7-1.3,4.4-2.5,5-2.7c0,0,0-0.1,0-0.1c-0.7-0.2-3.7-0.7-5.2-0.6c-0.1,0-0.1,0.1,0,0.1
		c0.5,0.4,2.3,2.1,3.2,2.9c1.1,1,4.4,5.9,9.6,5.9c1.2,0,5.7-0.7,10.6-4.8c0,0-0.3-1.5-1.3-3c-1.1-1.4-2.9-3.5-3.7-4.8
		c-0.6-0.9-2.4-4.3-2.7-4.8c-0.2-0.3-0.7-0.6-0.9-0.7C617.6,54.6,617.5,54.4,617.5,54.2"/>
	<path class="st2" d="M464.7,59.8l-0.9,2.5c0,0.1,0,0.1,0.1,0.1c0.6-0.4,2.9-2,4.5-2.9c1.6-0.8,3.8-2.2,4.4-2.5
		c0.1-0.1,0.2-0.1,0.2-0.2c0.3-0.4,1-1.7,1.2-2.4c0,0,0,0-0.1,0c-0.4,0.3-3.1,1.8-3.5,2c-0.4,0.2-3.6-0.1-5.5-1.4c0,0,0-0.1,0-0.1
		c0.2-0.3,1.1-1.5,2-1.5c0.8,0,1.1,0.8,1.2,1.3c0,0.1,0.2,0.2,0.3,0.1c0.6-0.7,1.9-2.8,0.5-3.6c-1.7-1-4.8,3.3-5.1,3.8
		c-0.3,0.5-0.7,1.1-0.9,1.5c-0.1,0.2-0.1,0.5,0.1,0.7c0.4,0.4,1.4,1,3.3,1.5l-1.6,1.1C464.8,59.6,464.8,59.7,464.7,59.8"/>
</g>
<g>
	<polygon class="st3" points="183.8,61 118.5,6.9 145.7,61.1 	"/>
	<polygon class="st4" points="92.6,35.6 145.7,61.1 118.5,6.9 	"/>
	<polygon class="st5" points="47.7,26.4 92.6,35.6 118.5,6.9 	"/>
	<polygon class="st6" points="95.5,63.5 92.6,35.6 145.7,61.1 126,77.6 	"/>
	<polygon class="st7" points="183.7,133.4 145.7,61.1 183.8,61 	"/>
	<polygon class="st8" points="126.7,111.7 183.7,133.4 145.7,61.1 126,77.6 	"/>
	<polygon class="st9" points="91.5,128.6 86.4,156.3 183.7,133.4 126.7,111.7 	"/>
	<polygon class="st10" points="121,186.4 86.4,156.3 183.7,133.4 	"/>
	<polygon class="st6" points="70,93.9 41.5,87.3 86.4,156.3 91.5,128.6 	"/>
	<polygon class="st11" points="39.4,159.5 86.4,156.3 121,186.4 	"/>
	<polygon class="st12" points="41.5,87.3 86.4,156.3 39.4,159.5 	"/>
	<polygon class="st13" points="41.5,87.3 70,93.9 95.5,63.5 92.6,35.6 	"/>
	<polygon class="st14" points="47.7,26.4 14.8,79.9 41.5,87.3 92.6,35.6 	"/>
	<polygon class="st15" points="39.4,159.5 41.5,87.3 14.8,79.9 	"/>
	<g class="st16">
		<path class="st17" d="M118.5,6.9L47.7,26.4L14.8,79.9l24.6,79.6l81.6,26.9l62.7-53l0.2-72.4L118.5,6.9z M91.5,128.6L70,93.9
			l25.4-30.5L126,77.6l0.8,34L91.5,128.6z"/>
		<rect x="14.8" y="6.9" class="st18" width="169.1" height="179.5"/>
	</g>
</g>
</svg>
