<?xml version="1.0" encoding="utf-8"?>
<!-- Generator: Adobe Illustrator 24.0.2, SVG Export Plug-In . SVG Version: 6.00 Build 0)  -->
<svg version="1.1" id="Layer_1" xmlns="http://www.w3.org/2000/svg" xmlns:xlink="http://www.w3.org/1999/xlink" x="0px" y="0px"
	 viewBox="0 0 939.21 192.69" style="enable-background:new 0 0 939.21 192.69;" xml:space="preserve">
<style type="text/css">
	.st0{fill:#395526;}
	.st1{fill:#B1B1B1;}
	.st2{fill:#5C812D;}
	.st3{fill:#CBD5B3;}
	.st4{fill:#9FB63F;}
	.st5{fill:#B1C15D;}
	.st6{fill:#B5C36B;}
	.st7{fill:#DAE1C0;}
	.st8{fill:#C5CEB2;}
	.st9{fill:#A9B66A;}
	.st10{fill:#B1BE5D;}
	.st11{fill:#81A02A;}
	.st12{fill:#5D7F2D;}
	.st13{fill:#C8D191;}
	.st14{fill:#87A728;}
	.st15{fill:#405D29;}
	.st16{opacity:0.3;}
	.st17{fill:#FFEC00;}
	.st18{fill:none;}
</style>
<g>
	<g>
		<g>
			<path class="st0" d="M245.21,147.55l-1.49-4.74h-6.86l-1.49,4.74h-4.19l6.78-19.52h4.8l6.79,19.52H245.21z M240.24,131.76l-2.5,8
				h5.1l-2.5-8H240.24z"/>
			<path class="st0" d="M259.36,147.55h-8.65v-19.52h8.5c1.83,0,3.28,0.44,4.36,1.31s1.61,2.06,1.61,3.56c0,1.06-0.35,2-1.05,2.8
				s-1.57,1.28-2.62,1.43v0.11c1.33,0.1,2.44,0.59,3.3,1.48c0.87,0.88,1.3,1.97,1.3,3.25c0,1.72-0.6,3.08-1.81,4.09
				S261.44,147.55,259.36,147.55z M254.8,131.07v5.07h2.94c1.09,0,1.94-0.23,2.53-0.68c0.6-0.46,0.89-1.1,0.89-1.93
				c0-0.78-0.26-1.39-0.79-1.82s-1.26-0.64-2.22-0.64H254.8z M254.8,144.51h3.52c1.18,0,2.08-0.25,2.7-0.74
				c0.62-0.49,0.93-1.2,0.93-2.13c0-0.91-0.32-1.61-0.95-2.08c-0.64-0.48-1.56-0.72-2.77-0.72h-3.42V144.51z"/>
			<path class="st0" d="M267.6,128.02h7.46c2.94,0,5.23,0.84,6.86,2.53s2.45,4.07,2.45,7.16c0,3.09-0.82,5.51-2.46,7.24
				c-1.64,1.73-3.92,2.6-6.85,2.6h-7.46V128.02z M271.69,131.39v12.77h2.88c1.83,0,3.23-0.55,4.19-1.64s1.44-2.69,1.44-4.8
				c0-2.04-0.49-3.6-1.46-4.69c-0.97-1.09-2.36-1.64-4.17-1.64H271.69z"/>
			<path class="st0" d="M290.25,128.02v12.22c0,1.27,0.36,2.28,1.08,3.02c0.72,0.74,1.73,1.12,3.02,1.12c1.29,0,2.29-0.37,3.01-1.12
				c0.72-0.74,1.08-1.75,1.08-3.02v-12.22h4.09v12.62c0,2.17-0.74,3.91-2.23,5.24c-1.48,1.33-3.47,2-5.95,2
				c-2.49,0-4.48-0.67-5.96-2c-1.48-1.33-2.23-3.08-2.23-5.24v-12.62H290.25z"/>
			<path class="st0" d="M317.56,144.17v3.38h-12.62v-19.52h4.09v16.14H317.56z"/>
			<path class="st0" d="M340.77,147.55h-4.09v-8.23h-8.79v8.23h-4.09v-19.52h4.09v7.93h8.79v-7.93h4.09V147.55z"/>
			<path class="st0" d="M355.97,147.55l-1.49-4.74h-6.86l-1.49,4.74h-4.19l6.78-19.52h4.8l6.79,19.52H355.97z M351,131.76l-2.5,8
				h5.1l-2.5-8H351z"/>
			<path class="st0" d="M382.14,147.55h-3.64v-13.18h-0.11l-5.3,12.99h-2.57l-5.3-12.99h-0.11v13.18h-3.64v-19.52h4.74l5.55,13.84
				h0.11l5.55-13.84h4.74V147.55z"/>
			<path class="st0" d="M397.49,144.17v3.38h-12.93v-19.52h12.93v3.37h-8.85v4.71h8.35v3.14h-8.35v4.92H397.49z"/>
			<path class="st0" d="M412.55,144.17v3.38h-12.93v-19.52h12.93v3.37h-8.85v4.71h8.35v3.14h-8.35v4.92H412.55z"/>
			<path class="st0" d="M414.66,128.02h7.46c2.94,0,5.23,0.84,6.86,2.53s2.45,4.07,2.45,7.16c0,3.09-0.82,5.51-2.46,7.24
				c-1.64,1.73-3.92,2.6-6.85,2.6h-7.46V128.02z M418.75,131.39v12.77h2.88c1.83,0,3.23-0.55,4.19-1.64s1.44-2.69,1.44-4.8
				c0-2.04-0.49-3.6-1.46-4.69c-0.97-1.09-2.36-1.64-4.17-1.64H418.75z"/>
			<path class="st0" d="M450.66,147.55l-1.49-4.74h-6.86l-1.49,4.74h-4.19l6.78-19.52h4.8l6.79,19.52H450.66z M445.69,131.76l-2.5,8
				h5.1l-2.5-8H445.69z"/>
			<path class="st0" d="M468.78,144.17v3.38h-12.62v-19.52h4.09v16.14H468.78z"/>
			<path class="st0" d="M479.32,141.34h-8.89v-3.45h8.89V141.34z"/>
			<path class="st0" d="M481.05,141.99h3.94c0.09,0.79,0.51,1.44,1.27,1.93c0.75,0.49,1.67,0.74,2.77,0.74
				c1.08,0,1.96-0.23,2.65-0.7c0.68-0.46,1.02-1.06,1.02-1.78c0-0.63-0.25-1.14-0.76-1.53c-0.51-0.39-1.35-0.71-2.53-0.97
				l-2.54-0.55c-3.58-0.77-5.37-2.58-5.37-5.45c0-1.79,0.7-3.23,2.09-4.33s3.19-1.65,5.38-1.65c2.25,0,4.05,0.53,5.4,1.6
				c1.34,1.07,2.03,2.49,2.07,4.27h-3.83c-0.06-0.82-0.43-1.47-1.09-1.94c-0.66-0.47-1.51-0.71-2.54-0.71
				c-1.01,0-1.83,0.22-2.44,0.66c-0.62,0.44-0.93,1.02-0.93,1.75c0,0.59,0.25,1.08,0.75,1.45c0.5,0.37,1.31,0.69,2.44,0.95l2.37,0.5
				c1.96,0.41,3.38,1.06,4.28,1.94c0.89,0.88,1.34,2.06,1.34,3.55c0,1.89-0.71,3.4-2.14,4.51c-1.43,1.11-3.35,1.67-5.78,1.67
				c-2.35,0-4.23-0.53-5.62-1.58S481.12,143.82,481.05,141.99z"/>
			<path class="st0" d="M511.23,147.55l-1.49-4.74h-6.86l-1.49,4.74h-4.19l6.78-19.52h4.8l6.79,19.52H511.23z M506.27,131.76l-2.5,8
				h5.1l-2.5-8H506.27z"/>
			<path class="st0" d="M520.65,147.55h-3.91v-19.52h3.41l9.12,12.72h0.11v-12.72h3.91v19.52h-3.38l-9.13-12.79h-0.12V147.55z"/>
			<path class="st0" d="M548.63,144.17v3.38H535.7v-19.52h12.93v3.37h-8.85v4.71h8.35v3.14h-8.35v4.92H548.63z"/>
			<path class="st0" d="M568.33,144.17v3.38H555.4v-19.52h12.93v3.37h-8.85v4.71h8.35v3.14h-8.35v4.92H568.33z"/>
			<path class="st0" d="M570.45,128.02h7.46c2.94,0,5.23,0.84,6.86,2.53s2.45,4.07,2.45,7.16c0,3.09-0.82,5.51-2.46,7.24
				c-1.64,1.73-3.92,2.6-6.85,2.6h-7.46V128.02z M574.54,131.39v12.77h2.88c1.83,0,3.23-0.55,4.19-1.64s1.44-2.69,1.44-4.8
				c0-2.04-0.49-3.6-1.46-4.69c-0.97-1.09-2.36-1.64-4.17-1.64H574.54z"/>
			<path class="st0" d="M593.1,128.02v12.22c0,1.27,0.36,2.28,1.08,3.02c0.72,0.74,1.73,1.12,3.02,1.12c1.29,0,2.29-0.37,3.01-1.12
				c0.72-0.74,1.08-1.75,1.08-3.02v-12.22h4.09v12.62c0,2.17-0.74,3.91-2.23,5.24c-1.48,1.33-3.47,2-5.95,2
				c-2.49,0-4.48-0.67-5.96-2c-1.48-1.33-2.23-3.08-2.23-5.24v-12.62H593.1z"/>
			<path class="st0" d="M616.42,147.89c-2.85,0-5.1-0.9-6.76-2.7c-1.66-1.8-2.48-4.27-2.48-7.41c0-3.13,0.83-5.59,2.49-7.39
				c1.66-1.8,3.91-2.7,6.75-2.7c1.55,0,2.96,0.31,4.23,0.92c1.27,0.61,2.28,1.48,3.05,2.6c0.77,1.12,1.2,2.39,1.3,3.83h-3.98
				c-0.19-1.2-0.71-2.16-1.55-2.88c-0.84-0.72-1.86-1.08-3.05-1.08c-1.54,0-2.77,0.6-3.69,1.81c-0.92,1.21-1.38,2.84-1.38,4.88
				c0,2.08,0.46,3.73,1.37,4.93s2.15,1.81,3.72,1.81c1.21,0,2.22-0.33,3.04-1c0.82-0.67,1.34-1.58,1.56-2.73h3.98
				c-0.23,2.17-1.11,3.9-2.67,5.19C620.79,147.24,618.82,147.89,616.42,147.89z"/>
			<path class="st0" d="M639.48,147.55l-1.49-4.74h-6.86l-1.49,4.74h-4.19l6.78-19.52h4.8l6.79,19.52H639.48z M634.52,131.76l-2.5,8
				h5.1l-2.5-8H634.52z"/>
			<path class="st0" d="M653.74,147.55h-4.09v-16.16h-5.64v-3.37h15.38v3.37h-5.66V147.55z"/>
			<path class="st0" d="M664.91,147.55h-4.09v-19.52h4.09V147.55z"/>
			<path class="st0" d="M669.25,130.41c1.69-1.81,3.98-2.72,6.88-2.72s5.19,0.91,6.88,2.72c1.69,1.81,2.54,4.28,2.54,7.39
				c0,3.1-0.85,5.56-2.54,7.37c-1.7,1.81-3.99,2.72-6.87,2.72c-2.9,0-5.19-0.91-6.88-2.72c-1.69-1.81-2.54-4.27-2.54-7.37
				C666.71,134.68,667.56,132.22,669.25,130.41z M679.95,132.91c-0.95-1.21-2.22-1.81-3.82-1.81s-2.87,0.6-3.82,1.81
				c-0.95,1.21-1.43,2.84-1.43,4.88c0,2.04,0.47,3.66,1.42,4.86c0.95,1.21,2.22,1.81,3.83,1.81c1.6,0,2.87-0.6,3.82-1.81
				c0.95-1.2,1.42-2.83,1.42-4.86C681.37,135.75,680.89,134.12,679.95,132.91z"/>
			<path class="st0" d="M691.25,147.55h-3.91v-19.52h3.41l9.12,12.72h0.11v-12.72h3.91v19.52h-3.38l-9.13-12.79h-0.12V147.55z"/>
			<path class="st0" d="M723.89,144.17v3.38h-12.93v-19.52h12.93v3.37h-8.85v4.71h8.35v3.14h-8.35v4.92H723.89z"/>
			<path class="st0" d="M725.27,141.99h3.94c0.09,0.79,0.51,1.44,1.27,1.93c0.75,0.49,1.67,0.74,2.77,0.74
				c1.08,0,1.96-0.23,2.65-0.7c0.68-0.46,1.02-1.06,1.02-1.78c0-0.63-0.25-1.14-0.76-1.53c-0.51-0.39-1.35-0.71-2.53-0.97
				l-2.54-0.55c-3.58-0.77-5.37-2.58-5.37-5.45c0-1.79,0.7-3.23,2.09-4.33s3.19-1.65,5.38-1.65c2.25,0,4.05,0.53,5.4,1.6
				c1.34,1.07,2.03,2.49,2.07,4.27h-3.83c-0.06-0.82-0.43-1.47-1.09-1.94c-0.66-0.47-1.51-0.71-2.54-0.71
				c-1.01,0-1.83,0.22-2.44,0.66c-0.62,0.44-0.93,1.02-0.93,1.75c0,0.59,0.25,1.08,0.75,1.45c0.5,0.37,1.31,0.69,2.44,0.95l2.37,0.5
				c1.96,0.41,3.38,1.06,4.28,1.94c0.89,0.88,1.34,2.06,1.34,3.55c0,1.89-0.71,3.4-2.14,4.51c-1.43,1.11-3.35,1.67-5.78,1.67
				c-2.35,0-4.23-0.53-5.62-1.58S725.34,143.82,725.27,141.99z"/>
			<path class="st0" d="M751.42,147.55h-4.09v-16.16h-5.64v-3.37h15.38v3.37h-5.66V147.55z"/>
			<path class="st0" d="M771.29,147.55l-1.49-4.74h-6.86l-1.49,4.74h-4.19l6.78-19.52h4.8l6.79,19.52H771.29z M766.33,131.76l-2.5,8
				h5.1l-2.5-8H766.33z"/>
			<path class="st0" d="M785.44,147.55h-8.65v-19.52h8.5c1.83,0,3.28,0.44,4.36,1.31s1.61,2.06,1.61,3.56c0,1.06-0.35,2-1.05,2.8
				s-1.57,1.28-2.62,1.43v0.11c1.33,0.1,2.44,0.59,3.3,1.48c0.87,0.88,1.3,1.97,1.3,3.25c0,1.72-0.6,3.08-1.81,4.09
				S787.52,147.55,785.44,147.55z M780.88,131.07v5.07h2.94c1.09,0,1.94-0.23,2.53-0.68c0.6-0.46,0.89-1.1,0.89-1.93
				c0-0.78-0.26-1.39-0.79-1.82s-1.26-0.64-2.22-0.64H780.88z M780.88,144.51h3.52c1.18,0,2.08-0.25,2.7-0.74
				c0.62-0.49,0.93-1.2,0.93-2.13c0-0.91-0.32-1.61-0.95-2.08c-0.64-0.48-1.56-0.72-2.77-0.72h-3.42V144.51z"/>
			<path class="st0" d="M806.31,144.17v3.38h-12.62v-19.52h4.09v16.14H806.31z"/>
			<path class="st0" d="M811.99,147.55h-4.09v-19.52h4.09V147.55z"/>
			<path class="st0" d="M813.67,141.99h3.94c0.09,0.79,0.51,1.44,1.27,1.93c0.75,0.49,1.67,0.74,2.77,0.74
				c1.08,0,1.96-0.23,2.65-0.7c0.68-0.46,1.02-1.06,1.02-1.78c0-0.63-0.25-1.14-0.76-1.53c-0.51-0.39-1.35-0.71-2.53-0.97
				l-2.54-0.55c-3.58-0.77-5.37-2.58-5.37-5.45c0-1.79,0.7-3.23,2.09-4.33s3.19-1.65,5.38-1.65c2.25,0,4.05,0.53,5.4,1.6
				c1.34,1.07,2.03,2.49,2.07,4.27h-3.83c-0.06-0.82-0.43-1.47-1.09-1.94c-0.66-0.47-1.51-0.71-2.54-0.71
				c-1.01,0-1.83,0.22-2.44,0.66c-0.62,0.44-0.93,1.02-0.93,1.75c0,0.59,0.25,1.08,0.75,1.45c0.5,0.37,1.31,0.69,2.44,0.95l2.37,0.5
				c1.96,0.41,3.38,1.06,4.28,1.94c0.89,0.88,1.34,2.06,1.34,3.55c0,1.89-0.71,3.4-2.14,4.51c-1.43,1.11-3.35,1.67-5.78,1.67
				c-2.35,0-4.23-0.53-5.62-1.58S813.74,143.82,813.67,141.99z"/>
			<path class="st0" d="M848.03,147.55h-4.09v-8.23h-8.79v8.23h-4.09v-19.52h4.09v7.93h8.79v-7.93h4.09V147.55z"/>
			<path class="st0" d="M871.12,147.55h-3.64v-13.18h-0.11l-5.3,12.99h-2.57l-5.3-12.99h-0.11v13.18h-3.64v-19.52h4.74l5.55,13.84
				h0.11l5.55-13.84h4.74V147.55z"/>
			<path class="st0" d="M886.48,144.17v3.38h-12.93v-19.52h12.93v3.37h-8.85v4.71h8.35v3.14h-8.35v4.92H886.48z"/>
			<path class="st0" d="M892.5,147.55h-3.91v-19.52H892l9.12,12.72h0.11v-12.72h3.91v19.52h-3.38l-9.13-12.79h-0.12V147.55z"/>
			<path class="st0" d="M916.31,147.55h-4.09v-16.16h-5.64v-3.37h15.38v3.37h-5.66V147.55z"/>
		</g>
	</g>
	<rect x="203.32" y="7.78" class="st1" width="1.9" height="178.3"/>
	<g>
		<path class="st2" d="M440.02,47.99c0.05-0.15,2.46,1.59,2.7,1.15c0.14-0.24-0.3-1.38-1.21-2.53c-0.73-0.93-3.58-4.4-4.65-5.71
			c-0.17-0.21-0.51-0.13-0.58,0.13l-1.41,5.5c-0.01,0.05,0,0.1,0.04,0.13c0.22,0.16,0.93,0.72,1.22,1.63
			c0.35,1.07,1.75,4.57,2.79,6.27c1.22,2,4.27,5.67,4.68,7.55c-1.07,1.03-6.85,5.59-11.23,5.59c-4.37,0-6-0.31-10.65-4.35
			c-4.64-4.04-6.15-5.96-6.15-5.96s2.29-0.6,9.12,1.16c0,0-6.05,2.71-7.66,3.92c-5.23,3.93-10.84,8.95-14.69,21.87
			c-3.74,12.55-1.09,30.2,17.11,30.92c11.11,0.44,26.2-10.07,26.91-25.69c0.49-11-7.48-14.25-18.82-14.2
			c-11.33,0.06-22.83-0.99-26.19-1.65c0,0,7.1,6.93,17.77,7.65c10.67,0.72,16.84,0.22,21.07,3.58c3.19,2.53,4.38,7.09,3.96,8.91
			c-0.83,3.63-10.32,14.91-23,14.91c-12.68,0-19.97-8.86-17.94-22.67c2.02-13.68,19.74-22.34,28.79-24.48
			c0.17-0.04,0.3-0.16,0.36-0.32l2.09-5.56c0.04-0.11,0-0.23-0.1-0.29c-1.17-0.65-8.06-4.32-14.44-4.32
			c-6.69,0-12.54,1.66-15.16,2.53c-0.21,0.07-0.37,0.23-0.45,0.44l-1.81,5.26c-0.1,0.29,0.17,0.57,0.47,0.48
			c0.72-0.23,1.92-0.61,3.19-0.99c0,0,3.48,0.2,9.93,6.6c5.36,5.32,9.04,8.67,14.36,8.67c5.69,0,10.78-4.5,12.69-6.4
			c1.18-1.18,2.97-8.34,2.04-11.45c-0.58-1.95-1.75-3.24-2.54-4.35C441.87,50.79,439.93,48.25,440.02,47.99"/>
		
			<rect x="765.32" y="47.91" transform="matrix(0.5423 -0.8402 0.8402 0.5423 308.0126 670.2202)" class="st2" width="7.64" height="9.02"/>
		
			<rect x="768.46" y="58.5" transform="matrix(0.5422 -0.8403 0.8403 0.5422 300.6223 677.7623)" class="st2" width="7.64" height="9.02"/>
		<path class="st2" d="M868.98,76.63c0.24,0.36,0.85,1.38,1.12,2.78c0,0-0.73,0.87-3.89,0.29c-1.53-0.28-2.46-1.1-3.07-1.79
			c-0.21-0.24-0.27-0.57-0.15-0.87c0.54-1.38,2.05-5.32,1.56-5.56c-0.58-0.29-1.99,2.19-3.16,4.57c-1.17,2.38-2.29,6.03-8.71,6.03
			c-1.92,0-4.09-0.99-5.44-2.96c-0.16-0.23-0.17-0.55-0.03-0.8c0.47-0.85,1.46-2.83,0.89-3.4c-0.73-0.73-4.72,2.97-6.81,4.91
			c-2.09,1.95-6.18,3.5-10.02,3.5c-3.84,0-6.52-1.85-7.73-5.69c0,0,0.58-1.95,0-2.19c-0.58-0.24-1.7,3.16-2.68,4.96
			c-0.97,1.8-2.48,3.02-5.23,3.02c-2.75,0-3.79-1.87-3.79-1.87s2.52-4.39,1.7-4.6c-0.39-0.1-2.36,2.14-2.68,2.63
			c-0.32,0.49-1.58,5.08-7.37,5.08c-1.39,0-4.18-0.2-5.3-2.68c0,0,2.09-3.55,1.12-4.06c-0.97-0.51-3.02,2.34-5.01,4.18
			c-1.99,1.85-4.91,4.16-9.29,4.16c-4.38,0-6.36-4.66-8.08-7.54c-1.12-1.87-2.29-3.65-3.7-3.65c-1.41,0-7.35,2.31-10.6,11.19
			c-3.26,8.88-4.52,11.7-6.66,11.7c-2.14,0-9.83-6.57-8.32-17.8l-0.54,0.15c0,0-2.04,7.03,1.22,15.57c1.17,3.06,5.45,8.76,8.85,8.12
			c3.4-0.63,4.62-8.37,6.47-12.65c1.85-4.28,6.1-9.1,8.9-8.76c4.33,0.54,3.7,10.81,11.77,11.19c6.23,0.29,10.36-7.15,11.24-7.2
			c0,0,0.39,5.17,5.74,5.3c5.98,0.15,7.39-5.06,7.98-5.25c0,0,0.54,4.23,4.96,4.18c4.57-0.05,5.25-3.16,5.69-4.33
			c0.44-1.17,0.97-2.68,1.36-2.92c0,0,1.22,7.01,8.51,7.01c9.19,0,13.09-8.08,14.45-7.78c0,0-0.56,5.91,6.47,6.57
			c6.71,0.63,9.58-5.5,9.58-5.5s0.83,2.43,4.33,3.06c3.5,0.63,5.21-1.17,6.18-3.5c0.95-2.29,4.06-8.97,0.75-13.81
			c-0.09-0.13-0.29-0.11-0.35,0.04c-0.43,1.04-1.75,4.31-2.3,6.65C868.9,76.43,868.92,76.54,868.98,76.63"/>
		
			<rect x="422.31" y="35.51" transform="matrix(0.5423 -0.8402 0.8402 0.5423 161.4284 376.3487)" class="st2" width="7.64" height="9.02"/>
		<path class="st2" d="M528.36,38.05l2.88-6.35c0.13-0.28,0.53-0.29,0.66-0.01c1,2.11,3.96,8.39,5.31,11.36
			c1.63,3.6,2.6,6.4,2.21,7.05c-0.39,0.66-2.8-2.41-3.28-2.97c-0.49-0.56-1.27-1.61-1.66-1.44c-0.39,0.17,0.2,2.04,0.51,3.77
			c0.32,1.73,1.65,9.27,2.26,12.72c0.61,3.45,1.67,11.48,1.7,14.4c0.05,3.71-0.44,8.04-2.08,12.31c-0.06,0.15-0.28,0.12-0.29-0.04
			c-0.16-2.35-0.77-10.42-1.9-17.33c-0.97-5.94-3.67-20.05-4.23-23.11c-0.71-3.87-0.63-6.93-0.95-7.86c-0.23-0.68-0.81-1.57-1.1-2
			C528.3,38.41,528.29,38.22,528.36,38.05"/>
		<path class="st2" d="M501.7,61.86c5.41,0,9.36,5.98,10.96,8.89c0.52,0.95,0.64,2.07,0.32,3.11c-0.38,1.25-0.95,3.06-1.54,4.71
			c-0.62,1.76-1.23,3.06-1.61,3.8c-0.14,0.27,0.12,0.57,0.41,0.47c3.97-1.29,6.45-2.81,7.2-3.3c0.16-0.11,0.26-0.28,0.27-0.47
			c0.08-1.7-0.5-5.07-1.08-8.67c-1.51-9.31-3.29-19.45-3.9-22.5c-0.77-3.86-0.75-6.92-1.08-7.84c-0.24-0.68-0.84-1.56-1.13-1.98
			c-0.11-0.15-0.12-0.34-0.05-0.51l2.77-6.4c0.12-0.29,0.52-0.3,0.66-0.02c1.03,2.09,4.1,8.32,5.5,11.26
			c1.69,3.57,2.71,6.35,2.33,7.01c-0.38,0.66-2.84-2.36-3.33-2.91c-0.5-0.55-1.29-1.58-1.68-1.41c-0.39,0.18,0.17,2.25,0.5,3.97
			c1,5.15,2.87,15.22,3.16,18.55c0.51,5.95-0.25,11.37-2.3,16.31c-0.62,1.5-1.48,2.55-4.63,4.01c-3.69,1.72-12.77,4.26-24.34,4.6
			c-11.42,0.33-13.86-4.16-14.48-8.72c0,0-0.54,0.04-1.31,1.35c-0.78,1.31-3.02,8.68-10.8,8.68c-7.78,0-10.91-8.1-11.24-15.21
			c-0.33-7.11-0.55-19.81-1.35-25.76c-0.78-5.77-1.45-9.69-2.56-12.31c-0.06-0.16-0.08-0.33-0.03-0.49l1.74-6.5
			c0.09-0.32,0.53-0.34,0.64-0.03c0.6,1.76,1.73,5.85,2.48,12.1c0.8,6.71,1.17,15.07,1.5,21.64c0.33,6.57-0.18,11.49,3.76,16.24
			c3.94,4.74,8.92,2.74,11.27,1.57c2.46-1.22,4.56-5.15,5.25-6.49c0.69-1.35,1.97-3.14,2.99-2.77c1.02,0.37-0.37,3.72-0.37,3.72
			s2.36,6.86,13.26,5.69c10.3-1.1,17.87-5.51,19.65-6.94c0.15-0.12,0.2-0.33,0.12-0.51c-0.72-1.56-4.38-8.7-10.67-8.7
			c-7.05,0-13.28,10.65-13.82,11.58c-0.49,0.85-5.87,10.57-8.08,15.12c-0.13,0.27-0.54,0.17-0.52-0.14
			c0.09-1.6,0.72-4.94,3.64-10.61C484.55,76.54,493.16,61.86,501.7,61.86"/>
		<g>
			<path class="st2" d="M665.29,40.91l3.16-6.22c0.14-0.28,0.54-0.27,0.66,0.02c0.9,2.15,3.59,8.55,4.8,11.58
				c1.47,3.67,2.32,6.51,1.9,7.15c-0.42,0.64-2.69-2.53-3.15-3.11c-0.46-0.58-1.19-1.66-1.59-1.51c-0.4,0.15,0.1,2.05,0.34,3.79
				c0.24,1.74,1.24,9.33,1.69,12.81c0.45,3.48,1.15,11.54,1.06,14.46c-0.12,3.71-0.8,8.01-2.63,12.2c-0.07,0.15-0.29,0.11-0.29-0.05
				c-0.05-2.35-0.31-10.45-1.13-17.39c-0.71-5.97-2.78-20.19-3.2-23.27c-0.53-3.89-0.32-6.95-0.6-7.89
				c-0.2-0.69-0.74-1.61-1.01-2.04C665.21,41.27,665.21,41.07,665.29,40.91"/>
			
				<rect x="579.85" y="99.47" transform="matrix(0.579 -0.8153 0.8153 0.579 160.9406 519.6489)" class="st2" width="7.64" height="9.02"/>
			
				<rect x="569.32" y="100.83" transform="matrix(0.579 -0.8153 0.8153 0.579 155.407 511.6397)" class="st2" width="7.64" height="9.02"/>
			<path class="st2" d="M656.98,70.06c-0.45-3.3-2.54-13.44-3.31-18.63c-0.26-1.74-0.72-3.83-0.33-3.99
				c0.39-0.16,1.14,0.91,1.61,1.48c0.47,0.57,2.79,3.7,3.2,3.06c0.41-0.65-0.49-3.47-2.02-7.11c-1.26-3-4.05-9.36-4.99-11.5
				c-0.13-0.29-0.53-0.29-0.66-0.01l-3.06,6.27c-0.08,0.17-0.07,0.36,0.03,0.51c0.28,0.43,0.83,1.34,1.04,2.03
				c0.29,0.93,0.13,3.99,0.73,7.88c0.47,3.07,2.29,14.84,3.41,20.67c0.84,4.38,2.01,10.13,1.89,12.83c0,0-3.79,2.17-8.34,1.97
				c-4.56-0.2-5.65-5.18-3.23-9.53l-0.75-0.32c0,0-2.89,4.95-3.12,10.09c-0.08,1.75,0.92,6.32,4.51,6.96
				c3.59,0.63,7.77-1.44,8.78-1.98c1.01-0.54,1.78-1.23,2.84-3.93C656.11,84.53,658.45,80.8,656.98,70.06"/>
			<path class="st2" d="M528.9,77.84c-0.78-0.11-2.48,5.75-3.36,8.92c-3.52,12.26,3.38,14.56,5.69,14.82
				c3.05,0.36,8.41-1.93,12.85-5.53c4.89-3.97,8.14-7.78,9.69-9.64c0.64-0.78,1.14-1.66,1.46-2.62c0.66-1.93,1.29-3.9,1.62-4.92
				c0.05-0.16,0.28-0.13,0.29,0.03c0.16,1.77,0.61,6.19,1.2,7.89c1.94,5.6,5.37,7.87,8.99,8.03c7.85,0.35,9.52-5.4,10.76-7.53
				c0.82-1.4,1.32-1.82,1.48-1.91c0.02-0.01,0.04,0.01,0.04,0.03c-0.19,5.77,3.63,7.66,5.79,7.76c7.22,0.32,9.14-6.68,10.19-9.04
				c0.66-1.48,1.19-2.51,1.5-3.08c0.08-0.15,0.31-0.1,0.32,0.08c0.09,1.96,0.34,4.69,4.48,9.32c4.57,5.12,10.58,3.42,10.58,3.42
				c1.39-1.23,3.75-4.9,3.67-9.19c-0.07-3.72-1.59-6.29-2-6.91c-0.05-0.07-0.01-0.17,0.07-0.19c7.47-1.81,20.49-1.45,23.41-1.32
				c4.31,0.19,8.7,1.23,9.93,1.54c0.21,0.05,0.43-0.03,0.55-0.2l4.08-5.61c0.18-0.25,0.05-0.6-0.24-0.68
				c-7.71-2.02-10.94-3.36-15.63-5.04c-5.1-1.83-11.9-5.03-15.43-6.7c-3.53-1.67-5.45-2.8-8.27-2.93c-2.57-0.11-4.74,0.33-5.69,0.56
				c-0.32,0.08-0.58,0.28-0.74,0.57c-0.34,0.65-1.01,1.92-1.61,3.16c-0.54,1.12-1,2.24-1.26,2.91c-0.1,0.27,0.12,0.53,0.4,0.49
				c0.64-0.09,1.53-0.13,2.51-0.02c2.27,0.26,6.4,1.77,7.77,1.66c0.85-0.07,1.23-0.85,1.23-0.85c3.52,1.71,9.24,4.55,9.24,4.55
				c-9.86,0.96-19.14,3.56-21.43,4.23c-0.34,0.1-0.63,0.33-0.8,0.65L600.91,77c-0.13-0.4-0.24-0.92-0.33-1.42
				c-0.14-0.78-1.13-1.03-1.61-0.41c-0.77,0.98-1.8,2.59-2.88,5.15c-2.24,5.3-7.08,5.69-8.9,5.61c-4.92-0.22-5.37-5.8-5.37-5.8
				c0.71-1.98,0.31-2.14,0.1-2.22c-0.21-0.08-1.16-0.16-2.99,3.19c-1.83,3.35-4.1,6.79-10.37,6.51c-6.27-0.28-9.48-7.8-9.46-13.93
				c0.02-6.13-1.35-12.33-1.73-13.74c-1.32-4.93-4.53-11.99-5.62-14.43c-0.13-0.28-0.54-0.24-0.61,0.06l-1.55,6.27
				c-0.04,0.14-0.03,0.29,0.02,0.44c0.64,1.9,2.62,8.23,4.14,13.49c0.96,3.33,2.63,9.76,2.51,11.62c-0.08,1.27-5.14,6.24-7.11,8.13
				c-2.91,2.8-11.49,9.23-17.23,8.58c-5.98-0.67-4.96-7.87-4.96-7.87C527.6,82.22,529.59,77.94,528.9,77.84 M612,87.01
				c-0.73,0.04-6.11,0.1-9.55-6.17c-0.02-0.04,0-0.1,0.05-0.1c0.53-0.08,3.18-0.36,5.6,1.12c2.46,1.51,3.74,4.54,3.95,5.07
				C612.07,86.96,612.04,87,612,87.01"/>
		</g>
		<g>
			
				<rect x="309.43" y="104.82" transform="matrix(0.5656 -0.8247 0.8247 0.5656 45.9085 305.8084)" class="st2" width="7.64" height="9.02"/>
			
				<rect x="298.93" y="106.34" transform="matrix(0.5657 -0.8246 0.8246 0.5657 40.0844 297.8054)" class="st2" width="7.64" height="9.02"/>
			
				<rect x="269.43" y="104.6" transform="matrix(0.5656 -0.8246 0.8246 0.5656 28.7106 272.726)" class="st2" width="7.64" height="9.02"/>
			
				<rect x="258.93" y="106.13" transform="matrix(0.5656 -0.8246 0.8246 0.5656 22.8905 264.7276)" class="st2" width="7.64" height="9.02"/>
			
				<rect x="356.01" y="50.26" transform="matrix(0.5656 -0.8247 0.8247 0.5656 111.1303 320.5176)" class="st2" width="7.64" height="9.02"/>
			
				<rect x="345.5" y="51.78" transform="matrix(0.5656 -0.8246 0.8246 0.5656 105.3088 312.5181)" class="st2" width="7.64" height="9.02"/>
			
				<rect x="243.7" y="36.01" transform="matrix(0.5656 -0.8246 0.8246 0.5656 74.0962 221.7126)" class="st2" width="7.64" height="9.02"/>
			
				<rect x="233.19" y="37.54" transform="matrix(0.5656 -0.8246 0.8246 0.5656 68.2753 213.7144)" class="st2" width="7.64" height="9.02"/>
			<path class="st2" d="M384.51,39.02l3.06-6.27c0.14-0.28,0.54-0.27,0.66,0.01c0.94,2.14,3.73,8.49,4.98,11.5
				c1.53,3.64,2.42,6.47,2.01,7.11c-0.41,0.65-2.73-2.49-3.2-3.06c-0.47-0.57-1.22-1.64-1.61-1.48c-0.39,0.16,0.14,2.05,0.4,3.78
				c0.27,1.74,1.39,9.31,1.9,12.78c0.51,3.47,1.34,11.52,1.3,14.44c-0.06,3.71-0.66,8.02-2.43,12.24c-0.06,0.15-0.29,0.11-0.29-0.05
				c-0.09-2.35-0.48-10.44-1.41-17.37c-0.8-5.96-3.11-20.14-3.58-23.22c-0.6-3.89-0.44-6.95-0.73-7.88
				c-0.21-0.69-0.77-1.6-1.04-2.03C384.44,39.38,384.43,39.18,384.51,39.02"/>
			<path class="st2" d="M375.81,68.56c-0.79-5.75-2.27-13.67-3.12-18.85c-0.29-1.73-0.78-3.82-0.39-3.98
				c0.39-0.17,1.16,0.89,1.64,1.45c0.48,0.56,2.85,3.66,3.25,3c0.4-0.65-0.54-3.46-2.13-7.08c-1.31-2.98-4.2-9.29-5.18-11.41
				c-0.13-0.28-0.53-0.28-0.66,0l-2.95,6.32c-0.08,0.17-0.07,0.36,0.04,0.52c0.28,0.42,0.85,1.33,1.07,2.01
				c0.31,0.93,0.2,3.99,0.86,7.87c0.52,3.07,2.26,14.48,3.99,25.21c0.76,4.74,1.53,9.24,1.42,12.13c-0.01,0.17-0.11,0.33-0.27,0.4
				c-0.7,0.34-2.81,1.19-6.06,1.1c-3.7-0.1-4.26-4.05-4.34-5.03c-0.01-0.14,0.01-0.28,0.05-0.41c0.09-0.26,0.26-0.74,0.38-1.11
				c0.6-1.72,0.52-2.08,0.23-2.01c-3.08,0.68-4.31,3.44-6.26,5.54s-5.04,3.84-8.39,3.74c-3.36-0.09-5.85-2.06-7.44-4.04
				c-0.52-0.64-1.19-1.51-1.92-2.44c3.3-1.76,6.5-3.16,7.84-3.7c0.84-0.34,1.53-0.37,1.96-0.34c0.31,0.02,0.6-0.15,0.74-0.43
				l2.85-5.52c0.17-0.33,0.08-0.74-0.23-0.96c-2.33-1.65-9.62-5.25-17.13-5.46c-7.12-0.2-13.21,2.1-14.7,2.71
				c-0.22,0.09-0.41,0.26-0.51,0.48c-1.3,2.66-1.99,4.92-2.29,6.04c-0.07,0.28,0.22,0.5,0.48,0.37c0.78-0.41,1.7-0.7,2.38-0.89
				c0.73-0.2,1.5-0.16,2.21,0.12c2.05,0.84,4.69,2.89,5.96,4.36c0.71,0.83,1.38,1.7,2.13,2.73c-2.85,2.19-7.09,4.88-12.65,4.59
				c-7.29-0.38-8.53-9.78-8.83-14.7c-0.3-4.92-0.24-7.21-0.71-16.32c-0.77-14.82-2.93-22.18-2.93-22.18l-2.31,7.72
				c0.57,9.12,1.82,24.66,1.83,25.8c0,1.13,0.14,4.2,0.03,4.62c-0.28,1.14-3.54,2.24-5.09,2.2c-0.9-0.03-3.82-0.11-5.16-3.45
				c-1.34-3.35-2-5.09-3.5-5.14c-3.26-0.09-7.56,4.82-8.55,9.71c-0.47,2.34-1.22,4.44-1.21,6.75c0.01,2.41,2.48,8.03,2.48,8.03
				c-1.56,0.81-4.66,2.13-7.63,2.05c-4.47-0.13-5.82-5.15-5.82-5.15c0.28-1.38,1.29-2.79,0.41-3.15c-0.89-0.37-3.06,3.39-4.82,5.22
				c-1.75,1.82-5.19,3.6-8.35,3.51c-3.16-0.09-4.66-2.05-5.97-3.89c-3-4.2-3.03-11.62-3.08-15.15c-0.02-1.65-0.39-5.63-0.9-9.31
				c0.31-0.31,0.63-0.64,0.96-0.98c2.98-3.09,4.51-6.93,5.14-8.87c0.07-0.23-0.23-0.38-0.37-0.19c-1.56,2.12-3.84,4.36-6.39,6.64
				c-0.69-2.7-1.85-6.35-2.4-8.14c-0.1-0.32-0.55-0.32-0.65,0.01l-1.89,6.65c-0.03,0.1-0.03,0.2-0.01,0.29
				c0.11,0.54,0.52,2.53,0.96,4.62c-1.08,0.91-2.18,1.82-3.26,2.72c-5.61,4.7-8.17,13.89-8.22,15.88c-0.06,1.99,0.13,4.47,2.12,4.53
				c2.32,0.07,5.75-1.46,7.71-2.57c2.36-1.34,2.53-2.53,2.99-3.83c0.41-1.16,1.22-3.25,1.55-4.11c0.03-0.08,0.15-0.06,0.15,0.03
				c0.02,1.49,0.1,6.67,0.36,10.4c0.65,9.44,6.94,12.6,10.17,12.7c5.38,0.15,8.41-4.34,9.85-6.44c1.45-2.1,1.87-2.1,1.87-2.1
				s-0.38,3.09,1.88,5.75c2.2,2.59,5.91,2.63,9.27,1.36c3.41-1.29,6.86-3.7,6.86-3.7c3.8,5.8,7.42,6.83,9.03,6.87
				c1.6,0.05,5.2-1.53,6.29-9.17c1.09-7.63-3.76-8.46-5.71-8.52c-1.95-0.06-3.97,0.77-4.88,1.25c-1.09,0.58-2.21,1.34-3.38,1.89
				c-2.03-3.26-3.37-7.29-3.87-8.92c-0.16-0.53-0.04-1.09,0.32-1.51c0.67-0.77,1.96-2.04,3.97-3.22c3.16-1.84,4.1,2.12,4.34,2.68
				c0.24,0.55,1.8,6,6.71,5.44c4.91-0.56,5.41-2.84,5.99-5.45c0.58-2.61,1.26-3.14,1.26-3.14s-0.19,6.5,1.04,12.26
				c1.32,6.17,4.75,9,8.98,9.12c6.34,0.18,11.93-4.79,16.8-8.17c0.83,1.12,1.8,2.39,2.97,3.87c3.9,4.93,7.18,6.52,10.15,6.6
				c3.92,0.11,6.85-2.11,7.98-3.32c0.86-0.93,2.83-3.88,4.27-5.1c0.51-0.43,1.01-0.56,1.19-0.59c0.03-0.01,0.07,0.02,0.06,0.06
				c-0.04,0.49-0.21,3.47,1.03,5.8c1.35,2.54,3.78,2.39,4.35,2.41c2.19,0.06,3.92-0.55,5.36-1.14c2.21-0.91,3.06-1.51,4.46-6.54
				C377.58,80.7,376.63,74.47,375.81,68.56 M245.65,74.72c-1.14,1.43-4.17,2.91-6.96,3.56c-2.79,0.65-3.82,0.53-3.61-1.23
				c0.25-2.16,2.76-4.63,5.23-6.82c1.34-1.19,2.71-2.31,4.34-3.78c0.19,0.9,0.34,1.6,0.41,1.91
				C245.36,69.73,246.03,74.25,245.65,74.72 M296.52,90.19c1.99,0.48,2.7,1.37,2.79,1.96c0.09,0.59-1.68,0.83-3.34,0.29
				c-1.65-0.54-2.92-1.76-3.27-2.12C292.7,90.32,294.52,89.71,296.52,90.19 M331.95,72.03c5.37,0.08,9.86,1.68,10.57,1.94
				c0.04,0.01,0.04,0.06,0,0.08c-0.56,0.28-3.52,1.79-6.13,3.32c-0.42-0.53-0.81-1-1.13-1.39c-1.17-1.4-2.84-3.13-3.41-3.73
				C331.78,72.16,331.84,72.02,331.95,72.03"/>
		</g>
		<path class="st2" d="M729.59,85.84c0,0-3.05,2.22-8.11,1.66c-4.9-0.54-5.86-4.53-6.04-6.34c-0.04-0.39-0.49-0.59-0.8-0.35
			c-1.39,1.09-2.3,3.08-3.33,4.93c-1.59,2.87-5.04,4.64-8.32,4.41c-9.68-0.68-6.47-11.53-10.9-25.21
			c-2.18-6.73-5.85-14.59-7.4-17.82c-0.22-0.46-0.9-0.35-0.97,0.16l-0.97,6.75c-0.02,0.15,0,0.31,0.07,0.45
			c5.87,12.43,8.19,22.44,8.7,24.86c0.08,0.4,0.03,0.79-0.16,1.15c-1.36,2.63-5.84,8.06-11.44,12.48c-6.07,4.78-11.4,6.1-13.97,6.1
			c-2.56,0-4.71-2.43-4.61-6.2c0.06-2.39,1.38-7.25,2.16-9.86c0.09-0.29-0.32-0.46-0.47-0.2c-2.08,3.49-3.01,7.15-3.49,9.3
			c-0.82,3.62-2.32,14.38,5.72,14.38c7.68,0,17.93-9.46,24.39-16.93c0.58-0.67,1-1.47,1.24-2.33l1.4-5
			c0.03-0.11,0.19-0.09,0.21,0.03c1.39,12.61,4.88,14.94,10.03,14.96c5.3,0.02,7.72-4.44,8.71-6.19c0.99-1.76,1.73-2.36,1.73-2.36
			c0.81,4.67,3.77,6.12,8.15,6.12c4.39,0,15.39-5.5,18.02-6.84c2.39-1.22,16.57-8.17,19.18-9.45c0.27-0.13,0.48-0.35,0.62-0.62
			l2.76-5.64c0.15-0.31-0.17-0.64-0.48-0.5c-3.84,1.8-18.19,8.53-19.71,9.06c-1.22,0.42-5.82,0.97-12.23-3.55
			c-5.68-4-6.79-9.98-6.97-11.3c-0.02-0.16,0.05-0.31,0.2-0.39c0.96-0.54,4.99-2.62,11.76-3.78c6-1.04,11.34,0.83,13.52,1.77
			c0.28,0.12,0.52-0.21,0.33-0.44c-2.27-2.77-7.77-7.84-15.86-6.98c-9.11,0.97-12.5,7.46-13.13,9.51c-0.62,2.04-1,7.02,1.55,11.87
			C722.87,81.7,726.27,84.25,729.59,85.84"/>
		
			<rect x="706.17" y="102.04" transform="matrix(0.5696 -0.8219 0.8219 0.5696 217.8936 629.1199)" class="st2" width="7.02" height="8.93"/>
		<path class="st2" d="M882.05,55.37c0,0,0.63,1,0.78,1.34c0.15,0.34,0.24,0.37,0.61-0.17c0.37-0.54,1.93-1.98,1.44-3.68
			c-0.49-1.71-1.34-2.34-1.9-2.42s-1.15,0.41-1.63,0.78c-0.78,0.59-3.99,4.66-5.13,7.57c-0.2,0.5-0.62,0.99-0.11,1.33
			c0.51,0.34,1.92,1.07,2.51,1.32c0.59,0.24,1.54,0.59,1.68,0.61c0.15,0.02,0.46,0.05,0,0.56c-0.46,0.51-1.68,2.71-1.85,3.37
			c-0.17,0.66-0.51,1.27,0.2,0.66c0.71-0.61,3.61-3.07,6.1-4.34c2.49-1.27,3.51-1.49,3.95-2.24c0.44-0.76,1.27-2.37,1.34-2.71
			c0.07-0.34,0.32-0.9-0.29-0.63c-0.61,0.27-2.9,2.1-5.34,1.83c-2.44-0.27-4.44-1.1-5.29-1.63c0,0-0.37-0.12-0.02-0.68
			c0.34-0.56,1.07-1.49,1.37-1.63C880.74,54.45,881.44,54.25,882.05,55.37z"/>
		<path class="st2" d="M892.81,91.79c-3.97,4.42-16.21,14.37-26.21,14.37c-5.11,0-8.85-4.18-9.39-10.27
			c-0.54-6.08,3.4-13.18,3.4-13.18l-0.44-0.49c0,0-5.55,7.49-5.55,15.76c0,8.27,3.79,15.62,11.53,15.62
			c7.73,0,17.46-7.44,19.94-9.73c3.47-3.2,6.18-4.91,7.35-7.83c2.51-6.26,2.68-11.72,0.7-15.96c-1.98-4.23-5.71-7.83-7.99-7.79
			c-4.92,0.09-8.85,6.23-9.19,10.22c-0.29,3.42,0.64,7.01,8.99,7.53c5.53,0.35,12.5-0.84,16.73-4.27c1.11-0.9,1.76-1.76,2.51-2.43
			c1.92,3.25,8.86,5.05,11.78,5.68c0.7,0.15,1.41-0.19,1.73-0.83l2.42-4.79c0.17-0.35,0.27-0.72,0.27-1.09
			c0.09-4.17-0.31-11.31-4.09-12.23c-3.56-0.87-7.09,4-8.45,6.14c-0.1-0.18-0.19-0.37-0.27-0.56c-0.07-0.18-0.22-0.31-0.4-0.36
			c-0.18-0.04-0.36,0-0.5,0.12c-0.79,0.66-2.71,3.03-5.26,5.26c-3.13,2.74-7.88,3.13-10,3.24c-1.93,0.1-5.63-0.69-7.2-0.98
			c-1.52-0.28-3.26-1.01-4.02-1.4c-0.2-0.1-0.23-0.37-0.06-0.52c0.63-0.53,2.04-1.53,3.45-1.24c1.84,0.38,6.25,3.83,8.47,10.84
			C893.19,91.04,893.09,91.48,892.81,91.79 M917.91,81.1c-1.39-0.32-4.93-1.3-7.62-3.3c1.24-0.87,3.24-1.94,4.86-1.25
			C917.12,77.39,917.73,79.96,917.91,81.1z"/>
	</g>
	<g>
		<polygon class="st3" points="174.98,60.73 109.7,6.61 136.84,60.85 		"/>
		<polygon class="st4" points="83.79,35.31 136.84,60.85 109.7,6.61 		"/>
		<polygon class="st5" points="38.81,26.09 83.79,35.31 109.7,6.61 		"/>
		<polygon class="st6" points="86.62,63.17 83.79,35.31 136.84,60.85 117.13,77.32 		"/>
		<polygon class="st7" points="174.82,133.11 136.84,60.85 174.98,60.73 		"/>
		<polygon class="st2" points="117.89,111.35 174.82,133.11 136.84,60.85 117.13,77.32 		"/>
		<polygon class="st8" points="82.66,128.27 77.52,155.98 174.82,133.11 117.89,111.35 		"/>
		<polygon class="st9" points="112.17,186.07 77.52,155.97 174.82,133.11 		"/>
		<polygon class="st10" points="61.17,93.63 32.66,86.97 77.52,155.98 82.66,128.27 		"/>
		<polygon class="st11" points="30.54,159.16 77.52,155.98 112.17,186.07 		"/>
		<polygon class="st12" points="32.66,86.97 77.52,155.98 30.54,159.16 		"/>
		<polygon class="st13" points="32.66,86.97 61.17,93.63 86.62,63.17 83.79,35.31 		"/>
		<polygon class="st14" points="38.81,26.09 5.93,79.58 32.66,86.97 83.79,35.31 		"/>
		<polygon class="st15" points="30.54,159.16 32.66,86.97 5.93,79.58 		"/>
		<g class="st16">
			<path class="st17" d="M109.7,6.61L38.81,26.09L5.93,79.58l24.61,79.58l81.64,26.91l62.65-52.96l0.16-72.39L109.7,6.61z
				 M82.66,128.27L61.17,93.63l25.45-30.47l30.51,14.16l0.76,34.03L82.66,128.27z"/>
			<rect x="5.93" y="6.62" class="st18" width="169.05" height="179.46"/>
		</g>
	</g>
</g>
</svg>
