<?xml version="1.0" encoding="utf-8"?>
<!-- Generator: Adobe Illustrator 22.0.1, SVG Export Plug-In . SVG Version: 6.00 Build 0)  -->
<svg version="1.1" id="Layer_1" xmlns="http://www.w3.org/2000/svg" xmlns:xlink="http://www.w3.org/1999/xlink" x="0px" y="0px"
	 viewBox="0 0 794.6 191.2" style="enable-background:new 0 0 794.6 191.2;" xml:space="preserve">
<style type="text/css">
	.st0{fill:#003A70;}
	.st1{fill:#0069A7;}
	.st2{fill:#BDCEDD;}
	.st3{fill:#3DB8DD;}
	.st4{fill:#5EC0E1;}
	.st5{fill:#69C3E3;}
	.st6{fill:#BAD9EB;}
	.st7{fill:#D0D5E2;}
	.st8{fill:#69AED0;}
	.st9{fill:#0097CE;}
	.st10{fill:#006B9B;}
	.st11{fill:#8BCFE8;}
	.st12{fill:#00ABD7;}
	.st13{fill:#D1EBF5;}
	.st14{fill:#B1B1B1;}
	.st15{fill:#A35C1C;}
</style>
<g>
	<path class="st0" d="M243.1,147.2l-1.5-4.7h-6.9l-1.5,4.7H229l6.8-19.5h4.8l6.8,19.5H243.1z M238.1,131.4l-2.5,8h5.1l-2.5-8H238.1z
		"/>
	<path class="st0" d="M258.8,147.2h-8.6v-19.5h8.5c1.8,0,3.3,0.4,4.4,1.3s1.6,2.1,1.6,3.6c0,1.1-0.4,2-1,2.8s-1.6,1.3-2.6,1.4v0.1
		c1.3,0.1,2.4,0.6,3.3,1.5s1.3,2,1.3,3.3c0,1.7-0.6,3.1-1.8,4.1S260.8,147.2,258.8,147.2z M254.2,130.7v5.1h2.9
		c1.1,0,1.9-0.2,2.5-0.7s0.9-1.1,0.9-1.9c0-0.8-0.3-1.4-0.8-1.8s-1.3-0.6-2.2-0.6L254.2,130.7L254.2,130.7z M254.2,144.1h3.5
		c1.2,0,2.1-0.3,2.7-0.7c0.6-0.5,0.9-1.2,0.9-2.1c0-0.9-0.3-1.6-1-2.1c-0.6-0.5-1.6-0.7-2.8-0.7h-3.4L254.2,144.1L254.2,144.1z"/>
	<path class="st0" d="M268.5,127.7h7.5c2.9,0,5.2,0.8,6.9,2.5s2.5,4.1,2.5,7.2s-0.8,5.5-2.5,7.2c-1.6,1.7-3.9,2.6-6.9,2.6h-7.5
		V127.7z M272.6,131v12.8h2.9c1.8,0,3.2-0.6,4.2-1.6s1.4-2.7,1.4-4.8c0-2-0.5-3.6-1.5-4.7s-2.4-1.6-4.2-1.6L272.6,131L272.6,131z"/>
	<path class="st0" d="M292.7,127.7v12.2c0,1.3,0.4,2.3,1.1,3s1.7,1.1,3,1.1s2.3-0.4,3-1.1c0.7-0.7,1.1-1.8,1.1-3v-12.2h4.1v12.6
		c0,2.2-0.7,3.9-2.2,5.2s-3.5,2-6,2s-4.5-0.7-6-2s-2.2-3.1-2.2-5.2v-12.6C288.6,127.7,292.7,127.7,292.7,127.7z"/>
	<path class="st0" d="M321.5,143.8v3.4h-12.6v-19.5h4.1v16.1H321.5z"/>
	<path class="st0" d="M334.9,140v7.1h-4.1v-19.5h8c2.2,0,4,0.6,5.2,1.7c1.2,1.1,1.9,2.6,1.9,4.6c0,1.3-0.3,2.4-0.9,3.4
		s-1.5,1.7-2.6,2.1l4.1,7.8h-4.6l-3.6-7.1h-3.4V140z M334.9,130.9v6.2h3.5c1,0,1.8-0.3,2.4-0.8c0.6-0.6,0.9-1.3,0.9-2.3
		c0-0.9-0.3-1.7-0.9-2.3s-1.4-0.9-2.4-0.9L334.9,130.9L334.9,130.9z"/>
	<path class="st0" d="M362,147.2l-1.5-4.7h-6.9l-1.5,4.7H348l6.8-19.5h4.8l6.8,19.5H362z M357.1,131.4l-2.5,8h5.1l-2.5-8H357.1z"/>
	<path class="st0" d="M368.6,147.2v-2.7l9.9-13.4V131h-9.7v-3.4h14.6v2.7l-9.9,13.4v0.1h10.1v3.4H368.6L368.6,147.2z"/>
	<path class="st0" d="M386.8,147.2v-2.7l9.9-13.4V131H387v-3.4h14.6v2.7l-9.9,13.4v0.1h10.1v3.4H386.8L386.8,147.2z"/>
	<path class="st0" d="M418.2,147.2l-1.5-4.7h-6.9l-1.5,4.7h-4.2l6.8-19.5h4.8l6.8,19.5H418.2z M413.2,131.4l-2.5,8h5.1l-2.5-8H413.2
		z"/>
	<path class="st0" d="M434,147.5c-2.9,0-5.2-0.9-6.9-2.7c-1.7-1.8-2.5-4.3-2.5-7.4c0-3.1,0.9-5.6,2.5-7.4s4-2.7,6.9-2.7
		s5.2,0.9,6.9,2.7s2.5,4.3,2.5,7.4c0,1.7-0.3,3.3-0.8,4.6c-0.5,1.4-1.3,2.4-2.3,3.3l2.5,3.7h-4l-1.4-2
		C436.4,147.3,435.3,147.5,434,147.5z M434,144.1c0.5,0,0.9-0.1,1.4-0.2l-2.1-3.2h3.7l0.9,1.2c1-1.1,1.4-2.6,1.4-4.5
		c0-2.1-0.5-3.7-1.4-4.9c-1-1.2-2.2-1.8-3.8-1.8c-1.6,0-2.9,0.6-3.8,1.8c-1,1.2-1.4,2.9-1.4,4.9s0.5,3.7,1.4,4.9
		C431.1,143.5,432.4,144.1,434,144.1z"/>
	<path class="st0" d="M465.7,147.2l-1.5-4.7h-6.9l-1.5,4.7h-4.2l6.8-19.5h4.8l6.8,19.5H465.7z M460.8,131.4l-2.5,8h5.1l-2.5-8H460.8
		z"/>
	<path class="st0" d="M485.4,143.8v3.4h-12.6v-19.5h4.1v16.1H485.4z"/>
	<path class="st0" d="M497.4,141h-8.9v-3.4h8.9V141z"/>
	<path class="st0" d="M500.7,141.6h3.9c0.1,0.8,0.5,1.4,1.3,1.9s1.7,0.7,2.8,0.7c1.1,0,2-0.2,2.6-0.7c0.7-0.5,1-1.1,1-1.8
		c0-0.6-0.3-1.1-0.8-1.5s-1.4-0.7-2.5-1l-2.5-0.6c-3.6-0.8-5.4-2.6-5.4-5.4c0-1.8,0.7-3.2,2.1-4.3s3.2-1.7,5.4-1.7
		c2.3,0,4.1,0.5,5.4,1.6s2,2.5,2.1,4.3h-3.8c-0.1-0.8-0.4-1.5-1.1-1.9s-1.5-0.7-2.5-0.7s-1.8,0.2-2.4,0.7c-0.6,0.4-0.9,1-0.9,1.8
		c0,0.6,0.3,1.1,0.8,1.4s1.3,0.7,2.4,0.9l2.4,0.5c2,0.4,3.4,1.1,4.3,1.9c0.9,0.9,1.3,2.1,1.3,3.6c0,1.9-0.7,3.4-2.1,4.5
		s-3.4,1.7-5.8,1.7s-4.2-0.5-5.6-1.6S500.7,143.5,500.7,141.6z"/>
	<path class="st0" d="M532.4,147.2l-1.5-4.7H524l-1.5,4.7h-4.2l6.8-19.5h4.8l6.8,19.5H532.4z M527.4,131.4l-2.5,8h5.1L527.4,131.4
		L527.4,131.4z"/>
	<path class="st0" d="M543.3,147.2h-3.9v-19.5h3.4l9.1,12.7h0.1v-12.7h3.9v19.5h-3.4l-9.1-12.8h-0.1V147.2L543.3,147.2z"/>
	<path class="st0" d="M572.8,143.8v3.4h-12.9v-19.5h12.9v3.4H564v4.7h8.3v3.1H564v4.9L572.8,143.8L572.8,143.8z"/>
	<path class="st0" d="M596.3,147.2l-1.5-1.6c-0.7,0.6-1.6,1.1-2.7,1.5c-1.1,0.4-2.2,0.5-3.4,0.5c-2.1,0-3.7-0.5-5-1.5
		c-1.2-1-1.8-2.3-1.8-4c0-1.1,0.3-2.1,0.9-2.9c0.6-0.8,1.5-1.6,2.7-2.3c0,0,0.2-0.1,0.3-0.2c0.1-0.1,0.3-0.1,0.4-0.2
		c0.1-0.1,0.2-0.1,0.2-0.1c-0.9-0.9-1.5-1.7-1.9-2.4s-0.5-1.4-0.5-2.1c0-1.3,0.5-2.4,1.6-3.3s2.4-1.3,4-1.3s2.9,0.4,3.9,1.2
		c1,0.8,1.5,1.9,1.5,3.2c0,1-0.3,1.9-1,2.7c-0.6,0.8-1.6,1.6-3,2.3l3.7,4c0.5-0.8,0.7-2.1,0.7-3.7v-1h3.3v1.3c0,2.4-0.5,4.4-1.7,5.9
		l3.6,3.8L596.3,147.2L596.3,147.2z M587.7,138.8c-0.7,0.5-1.3,0.9-1.6,1.4s-0.5,1-0.5,1.6c0,0.9,0.3,1.6,1,2.1s1.5,0.8,2.5,0.8
		c0.7,0,1.4-0.1,2-0.4c0.7-0.2,1.2-0.6,1.5-1l-4.5-4.8C588.1,138.5,588,138.6,587.7,138.8z M589.2,135.1c0.9-0.5,1.5-0.9,1.9-1.4
		s0.6-1,0.6-1.6s-0.2-1.1-0.6-1.5c-0.4-0.4-0.9-0.6-1.5-0.6s-1.2,0.2-1.6,0.6c-0.4,0.4-0.6,0.9-0.6,1.5c0,0.4,0.1,0.9,0.4,1.3
		S588.5,134.5,589.2,135.1z"/>
	<path class="st0" d="M608.2,141.6h3.9c0.1,0.8,0.5,1.4,1.3,1.9s1.7,0.7,2.8,0.7s2-0.2,2.7-0.7s1-1.1,1-1.8c0-0.6-0.3-1.1-0.8-1.5
		s-1.3-0.7-2.5-1l-2.5-0.6c-3.6-0.8-5.4-2.6-5.4-5.4c0-1.8,0.7-3.2,2.1-4.3s3.2-1.7,5.4-1.7c2.3,0,4,0.5,5.4,1.6
		c1.3,1.1,2,2.5,2.1,4.3h-3.8c-0.1-0.8-0.4-1.5-1.1-1.9c-0.7-0.5-1.5-0.7-2.5-0.7s-1.8,0.2-2.4,0.7c-0.6,0.4-0.9,1-0.9,1.8
		c0,0.6,0.3,1.1,0.8,1.4s1.3,0.7,2.4,0.9l2.4,0.5c2,0.4,3.4,1.1,4.3,1.9c0.9,0.9,1.3,2.1,1.3,3.6c0,1.9-0.7,3.4-2.1,4.5
		s-3.3,1.7-5.8,1.7c-2.3,0-4.2-0.5-5.6-1.6S608.3,143.5,608.2,141.6z"/>
	<path class="st0" d="M629.1,130c1.7-1.8,4-2.7,6.9-2.7s5.2,0.9,6.9,2.7s2.5,4.3,2.5,7.4c0,3.1-0.8,5.6-2.5,7.4
		c-1.7,1.8-4,2.7-6.9,2.7s-5.2-0.9-6.9-2.7s-2.5-4.3-2.5-7.4C626.5,134.3,627.4,131.9,629.1,130z M639.8,132.5
		c-1-1.2-2.2-1.8-3.8-1.8s-2.9,0.6-3.8,1.8c-1,1.2-1.4,2.8-1.4,4.9c0,2,0.5,3.7,1.4,4.9c1,1.2,2.2,1.8,3.8,1.8s2.9-0.6,3.8-1.8
		c1-1.2,1.4-2.8,1.4-4.9C641.2,135.4,640.7,133.8,639.8,132.5z"/>
	<path class="st0" d="M652.6,147.2h-3.9v-19.5h3.4l9.1,12.7h0.1v-12.7h3.9v19.5h-3.4l-9.1-12.8h-0.1V147.2L652.6,147.2z"/>
	<path class="st0" d="M668.4,141.6h3.9c0.1,0.8,0.5,1.4,1.3,1.9s1.7,0.7,2.8,0.7s2-0.2,2.7-0.7s1-1.1,1-1.8c0-0.6-0.3-1.1-0.8-1.5
		s-1.3-0.7-2.5-1l-2.5-0.6c-3.6-0.8-5.4-2.6-5.4-5.4c0-1.8,0.7-3.2,2.1-4.3s3.2-1.7,5.4-1.7c2.3,0,4,0.5,5.4,1.6
		c1.3,1.1,2,2.5,2.1,4.3H680c-0.1-0.8-0.4-1.5-1.1-1.9c-0.7-0.5-1.5-0.7-2.5-0.7s-1.8,0.2-2.4,0.7c-0.6,0.4-0.9,1-0.9,1.8
		c0,0.6,0.3,1.1,0.8,1.4s1.3,0.7,2.4,0.9l2.4,0.5c2,0.4,3.4,1.1,4.3,1.9c0.9,0.9,1.3,2.1,1.3,3.6c0,1.9-0.7,3.4-2.1,4.5
		s-3.3,1.7-5.8,1.7c-2.3,0-4.2-0.5-5.6-1.6S668.5,143.5,668.4,141.6z"/>
	<path class="st0" d="M711,139c0,2.7-0.8,4.8-2.3,6.3s-3.7,2.3-6.4,2.3c-2.9,0-5.2-0.9-6.9-2.7s-2.5-4.3-2.5-7.5
		c0-3.1,0.8-5.6,2.5-7.4s3.9-2.7,6.8-2.7c2.3,0,4.2,0.6,5.8,1.8c1.6,1.2,2.5,2.8,2.8,4.8h-4.1c-0.3-1-0.8-1.8-1.6-2.4
		c-0.8-0.6-1.7-0.9-2.8-0.9c-1.6,0-2.9,0.6-3.8,1.8c-0.9,1.2-1.4,2.8-1.4,4.9c0,2.1,0.5,3.8,1.4,5s2.2,1.8,3.9,1.8
		c1.3,0,2.4-0.4,3.3-1.1c0.8-0.8,1.3-1.7,1.3-2.9v-0.3h-4.3v-3h8.2L711,139L711,139z"/>
	<path class="st0" d="M718.5,140v7.1h-4.1v-19.5h8c2.2,0,4,0.6,5.2,1.7s1.9,2.6,1.9,4.6c0,1.3-0.3,2.4-0.9,3.4
		c-0.6,1-1.5,1.7-2.6,2.1l4.1,7.8h-4.6l-3.6-7.1h-3.4L718.5,140L718.5,140z M718.5,130.9v6.2h3.5c1,0,1.8-0.3,2.4-0.8
		c0.6-0.6,0.9-1.3,0.9-2.3c0-0.9-0.3-1.7-0.9-2.3c-0.6-0.6-1.4-0.9-2.4-0.9L718.5,130.9L718.5,130.9z"/>
	<path class="st0" d="M734.7,130c1.7-1.8,4-2.7,6.9-2.7s5.2,0.9,6.9,2.7s2.5,4.3,2.5,7.4c0,3.1-0.8,5.6-2.5,7.4
		c-1.7,1.8-4,2.7-6.9,2.7s-5.2-0.9-6.9-2.7s-2.5-4.3-2.5-7.4S733,131.9,734.7,130z M745.4,132.5c-1-1.2-2.2-1.8-3.8-1.8
		s-2.9,0.6-3.8,1.8c-1,1.2-1.4,2.8-1.4,4.9c0,2,0.5,3.7,1.4,4.9c1,1.2,2.2,1.8,3.8,1.8s2.9-0.6,3.8-1.8c1-1.2,1.4-2.8,1.4-4.9
		C746.8,135.4,746.4,133.8,745.4,132.5z"/>
	<path class="st0" d="M758.4,127.7v12.2c0,1.3,0.4,2.3,1.1,3c0.7,0.7,1.7,1.1,3,1.1s2.3-0.4,3-1.1c0.7-0.7,1.1-1.8,1.1-3v-12.2h4.1
		v12.6c0,2.2-0.7,3.9-2.2,5.2s-3.5,2-6,2s-4.5-0.7-6-2s-2.2-3.1-2.2-5.2v-12.6C754.3,127.7,758.4,127.7,758.4,127.7z"/>
	<path class="st0" d="M774.7,127.7h7.9c2,0,3.6,0.6,4.9,1.8s1.9,2.8,1.9,4.8s-0.7,3.6-1.9,4.8c-1.3,1.2-3,1.9-5,1.9h-3.7v6.2h-4.1
		L774.7,127.7L774.7,127.7z M778.7,130.9v6.9h2.8c1.2,0,2.1-0.3,2.7-0.9s1-1.5,1-2.6s-0.3-2-1-2.6s-1.5-0.9-2.7-0.9h-2.8V130.9z"/>
</g>
<g>
	<g>
		<path class="st1" d="M790.6,79.3c-0.1,0.3-2.3,4.3-2.3,4.3s-0.2,0.5-0.5,0.5s-5.2-0.9-9-0.2c-3.9,0.7-8.8,2-15.9,4.7
			c-2,0.8-6.7,3.7-14.1,2.6c0,0-0.4-0.2-0.5,0.1l-1.3,4.8c0,0-0.4,0.8-1,0.4c-0.6-0.3-4.6-2.3-5.8-6.3c-0.8-2.6-0.7-5.7-0.7-5.9
			s0-0.6-0.3-0.4c0,0-2.3,1.2-4.1,2.7s-2.4,1.5-2.5,3.7s-0.3,2-0.3,2s-0.9,4.9-3.4,7.5s-8.5,6.1-14,8.3c-5.5,2.2-9.5,3.3-9.5,3.3
			s-1.9,0.2-3.1,0.3s-16.7,1-17.5,1s-2.5-0.1-0.8-0.5s17.6-4.3,20-5.2s8-2.3,13-4.6c5-2.4,10.5-5,12-6.6c1.5-1.5,2.4-2.4,1.7-4.1
			s-0.6-1.5-0.6-1.5s0-0.3-0.4-0.2c-0.4,0.1-4.6,1.7-8,0.7s-2.9-4.8-2.9-5.7c0-0.9,2.1-5.2,5.2-6.4c3.1-1.3,5.9,3,5.9,3l1.5,2.2
			c0,0,0.2,0.7,0.6,0.6s2.5-1.3,4.2-2.8s4.8-3.2,5.2-3.3c0.3-0.1,0.4,0.3,0.2,0.9c-0.1,0.6,1.4,3.1,3.5,4.6
			c1.9,1.3,6.8,3.6,12.6,2.1s11.1-3.9,11.1-3.9s1-0.2,0.1-0.3c-0.8-0.2-8-1.5-10.3-1.9s-8.7-1.9-11-1.7c-0.7,0.1-0.4-0.7,0-1.4
			c0.3-0.7,1-2.9,1.3-3.2s0-0.6,2.2-1.8c2.2-1.2,11.8-5.9,15.4-7.1c0,0,0.4-0.1,0-0.5c0,0-3.4-4-1.3-7.7c1.8-3.2,4-3.1,5-3
			c1.1,0.1,3.7,1.4,5.5,2.8c1.8,1.4,3.5,3.3,3.8,3.5s1.1,0.8,0.4,2c-0.7,1.1-1.9,3.5-1.9,3.5s-0.5,0.8-1,1c-0.4,0.1-4,0.8-6.8,1.5
			c0.1,0.6,0,1,0,1c0.1,1.8-0.5-0.3-0.5-0.3l-0.3-0.5c-0.7,0.2-1.3,0.4-1.8,0.6c-2.5,1-9.1,3.7-11.3,4.9c0,0-0.9,0.3,0,0.4
			s14,2.9,20.1,3.8c6,0.9,12.5,1.5,13.3,1.5C790.5,79,790.7,79,790.6,79.3z M766.5,59.3c0,0,1.4,1.6,2,2.5s0.7,1.4,1,1.4
			s3.8-1,4.2-1s0.8,0,0.5-0.3s-2.6-2-3.6-2.4c-1-0.5-2.5-1.3-4-0.6C766.3,58.9,766.4,59.1,766.5,59.3z M723,85.3
			c1.8,0.4,3.5,0.3,3.7,0.3s1,0.2,0-0.7c-1.3-1.1-2.4-1.4-3.1-1.4c-0.7,0-1.4,0.7-1.4,0.7C721.5,84.6,721.3,84.8,723,85.3z"/>
		<path class="st1" d="M350.2,83c0,0-0.3,5-2.4,7.9s-7.6,7.2-12.7,10.2c-5.1,2.9-8.9,4.6-8.9,4.6s-1.8,0.5-3,0.7s-16.4,3.3-17.2,3.4
			c-0.7,0.1-2.5,0.2-0.9-0.4s16.8-6.7,19.1-7.9c2.3-1.2,7.6-3.3,12.2-6.4c4.6-3,9.7-6.4,11-8.2c0.6-0.9,1.8-2.3,0.9-3.5
			c-1.1-1.4-3-1.9-4.4-1.7c-1.1,0.2-2.6,0.6-4.3,0.2c-3.5-0.9-3.8-4-3.7-5.3c0.2-1.5,1.4-5.4,4.3-7.1s6.3,2.2,6.3,2.2
			s3.9,4.3,3.9,7.7C350.4,82.8,350.2,83,350.2,83z M340.1,76.5c1.9,0.2,3.5-0.2,3.7-0.2s1,0-0.1-0.7c-1.4-0.9-2.6-1.1-3.3-1
			c-0.7,0.1-1.3,0.9-1.3,0.9C338.6,76,338.4,76.3,340.1,76.5z"/>
		<path class="st1" d="M767.7,96l-1.9,3.2c0,0-0.5,0.8,0,1.1s4.3,3,4.3,3s0.7,0.6,1,0c0.2-0.3,0.7-1.3,1.2-2.1
			c0.6-0.9,1.1-1.7,1.1-1.7s0.2-0.5-0.4-0.9c-0.6-0.4-4.4-2.9-4.4-3S768,95.4,767.7,96z"/>
		<path class="st1" d="M667.8,57.1l-1.9,3.2c0,0-0.5,0.8,0,1.1s4.3,3,4.3,3s0.7,0.6,1,0c0.2-0.3,0.7-1.3,1.2-2.1
			c0.6-0.9,1.1-1.7,1.1-1.7s0.2-0.5-0.4-0.9c-0.6-0.4-4.4-2.9-4.4-3C668.7,56.7,668.1,56.5,667.8,57.1z"/>
		<path class="st1" d="M541.3,52.3l-1.9,3.2c0,0-0.5,0.8,0,1.1s4.3,3,4.3,3s0.7,0.6,1,0c0.2-0.3,0.7-1.3,1.2-2.1
			c0.6-0.9,1.1-1.7,1.1-1.7s0.2-0.5-0.4-0.9c-0.6-0.4-4.4-2.9-4.4-3S541.6,51.7,541.3,52.3z"/>
		<path class="st1" d="M381,40.8l-1.9,3.2c0,0-0.5,0.8,0,1.1s4.3,3,4.3,3s0.7,0.6,1,0c0.2-0.3,0.7-1.3,1.2-2.1
			c0.6-0.9,1.1-1.7,1.1-1.7s0.2-0.5-0.4-0.9s-4.4-2.9-4.4-3C381.9,40.3,381.4,40.2,381,40.8z"/>
		<path class="st1" d="M618.3,101.3l-1.9,3.2c0,0-0.5,0.8,0,1.1s4.3,3,4.3,3s0.7,0.6,1,0c0.2-0.3,0.7-1.3,1.2-2.1
			c0.6-0.9,1.1-1.7,1.1-1.7s0.2-0.5-0.4-0.9c-0.6-0.4-4.4-2.9-4.4-3C619.2,100.8,618.6,100.6,618.3,101.3z"/>
		<path class="st1" d="M618.3,101.3l-1.9,3.2c0,0-0.5,0.8,0,1.1s4.3,3,4.3,3s0.7,0.6,1,0c0.2-0.3,0.7-1.3,1.2-2.1
			c0.6-0.9,1.1-1.7,1.1-1.7s0.2-0.5-0.4-0.9c-0.6-0.4-4.4-2.9-4.4-3C619.2,100.8,618.6,100.6,618.3,101.3z"/>
		<path class="st1" d="M659.5,58.1l-1.9,3.2c0,0-0.5,0.8,0,1.1s4.3,3,4.3,3s0.7,0.6,1,0c0.2-0.3,0.7-1.3,1.2-2.1
			c0.6-0.9,1.1-1.7,1.1-1.7s0.2-0.5-0.4-0.9c-0.6-0.4-4.4-2.9-4.4-3C660.4,57.7,659.8,57.5,659.5,58.1z"/>
		<path class="st1" d="M518.1,53.6l-1.9,3.2c0,0-0.5,0.8,0,1.1s4.3,3,4.3,3s0.7,0.6,1,0c0.2-0.3,0.7-1.3,1.2-2.1
			c0.6-0.9,1.1-1.7,1.1-1.7s0.2-0.5-0.4-0.9c-0.6-0.4-4.4-2.9-4.4-3C519,53.1,518.4,53,518.1,53.6z"/>
		<path class="st1" d="M509.8,54.6l-1.9,3.2c0,0-0.5,0.8,0,1.1s4.3,3,4.3,3s0.7,0.6,1,0c0.2-0.3,0.7-1.3,1.2-2.1
			c0.6-0.9,1.1-1.7,1.1-1.7s0.2-0.5-0.4-0.9c-0.6-0.4-4.4-2.9-4.4-3C510.7,54.1,510.1,54,509.8,54.6z"/>
		<path class="st1" d="M651.1,86.4c2.8-1.3,6.4-3.3,6.8-3.4c0.4-0.1,0.7-0.5,0.9-0.9s1.8-3.6,1.9-3.9c0.1-0.3,0.3-0.9-1.6,0.1
			c-1.9,1-13.6,6.4-14.4,6.8c-0.8,0.3-1.3,0.2-1.3,0.2c-5-0.8-6.7-1.9-9.3-4.1c-2.5-2.1-4-6.1-4-6.1s-0.8-1.3,0.2-1.7
			c1-0.4,4.6-1.8,9.3-2.5s6.4-0.2,6.9-0.1s2.1,0.5,3,0.9c1,0.4,0.3-0.4,0.3-0.4c-4.1-3.4-8.2-4.1-10.5-4.3
			c-2.3-0.3-7.7,0.1-10.9,4.2s-1.7,7.6,0.3,11.4s6.3,6,6.6,6.1c0.3,0.2,0.1,0.2,0.1,0.2c-1.9,0.8-3.9,1.2-4.9,1.2s-3.4-0.4-4.3-1.1
			c-0.9-0.7-1.6-2.7-1.7-3.5s-0.3-0.7-0.6-0.6c-0.2,0.1-1.3,1.8-2.7,4s-3.9,3.1-7,3.1s-4.4-3.2-5-4.6c-0.6-1.3-1.3-7.2-1.8-9.9
			c-0.4-2.8-2.5-9.1-3.1-10.3s-3.7-8-3.9-8.5c-0.3-0.5-0.7-0.1-0.8,0.1s-0.6,3.8-0.7,4.4c-0.1,0.6,0.2,1.1,0.2,1.1s1,3.1,3.3,8.6
			c2.6,6.4,3.4,10.2,3.5,10.9s-0.1,0.9-2.4,4c-2.3,3.2-7.7,7.3-10.8,9.2c-3.2,1.8-5.5,2.2-7.4,2s-2.9-2.1-3.1-4.5s1.2-5.6,1.6-6.8
			c0.4-1.2,0.4-1.4,0.2-1.5s-0.4,0.3-0.7,0.9s-2.4,6.1-2.8,8.3s-0.5,8.5,4,9.2s10.2-3.6,13.2-6.1s6.3-6.4,6.9-7.2s0.7-1.8,0.8-2.3
			c0.1-0.4,0.8-2.9,1-3.4c0.2-0.4,0.3,0.3,0.3,0.3s0.3,2.8,1.4,6.8c1.1,4.1,4.7,4.7,6.3,4.7c5.2,0.1,7.3-5.6,7.8-6.3
			c0.4-0.7,1.1,1,1.1,1c2,6.4,11.4,2.4,17.8-1C647.2,88.1,648.1,87.8,651.1,86.4z"/>
		<path class="st1" d="M579.5,47.3c0,0,1.6,10.7,2.9,18.1c1.3,7.3,3.7,19.2,3.4,24.8c-0.3,5.6,2-4.9,2.1-6.8c0.1-1.8-0.1-7-1-12
			c-0.8-4.9-3.7-20.7-3.8-21.5s0.2-2,0.6-1.3s2.1,2.3,2.4,2.7c0.3,0.4,1.4,1.5,1,0.2s-1.3-3.7-2.9-6.2c-1.6-2.5-2.8-4.8-3-5.2
			s-0.4-0.8-0.8-0.4s-1.5,3.1-2,3.8c-0.4,0.7-0.2,1.2,0,1.5s0.9,1.4,0.9,1.5S579.5,46.9,579.5,47.3z"/>
		<path class="st1" d="M528.6,47.3c0,0,1.6,10.7,2.9,18.1c1.3,7.3,3.7,19.2,3.4,24.8c-0.3,5.6,2-4.9,2.1-6.8c0.1-1.8-0.1-7-1-12
			c-0.8-4.9-3.7-20.7-3.8-21.5s0.2-2,0.6-1.3s2.1,2.3,2.4,2.7c0.3,0.4,1.4,1.5,1,0.2s-1.3-3.7-2.9-6.2c-1.6-2.5-2.8-4.8-3-5.2
			s-0.4-0.8-0.8-0.4s-1.5,3.1-2,3.8c-0.4,0.7-0.2,1.2,0,1.5s0.9,1.4,0.9,1.5C528.6,46.8,528.6,46.9,528.6,47.3z"/>
		<path class="st1" d="M468,47.3c0,0,1.6,10.7,2.9,18.1s3.7,19.2,3.4,24.8s2-4.9,2.1-6.8c0.1-1.8-0.1-7-1-12
			c-0.8-4.9-3.7-20.7-3.8-21.5s0.2-2,0.6-1.3s2.1,2.3,2.4,2.7s1.4,1.5,1,0.2s-1.3-3.7-2.9-6.2s-2.9-4.8-3-5.2
			c-0.2-0.4-0.4-0.8-0.8-0.4c-0.4,0.4-1.5,3.1-2,3.8c-0.4,0.7-0.2,1.2,0,1.5s0.9,1.4,0.9,1.5S468,46.9,468,47.3z"/>
		<path class="st1" d="M318.4,47.3c0,0,1.6,10.7,2.9,18.1s3.7,19.2,3.4,24.8s2-4.9,2.1-6.8c0.1-1.8-0.1-7-1-12
			c-0.8-4.9-3.7-20.7-3.8-21.5s0.2-2,0.6-1.3s2.1,2.3,2.4,2.7s1.4,1.5,1,0.2s-1.3-3.7-2.9-6.2s-2.9-4.8-3-5.2
			c-0.2-0.4-0.4-0.8-0.8-0.4c-0.4,0.4-1.5,3.1-2,3.8c-0.4,0.7-0.2,1.2,0,1.5s0.9,1.4,0.9,1.5C318.4,46.8,318.4,46.9,318.4,47.3z"/>
		<path class="st1" d="M569.8,64.9c-1.3-7.3-2.9-18.1-2.9-18.1c-0.1-0.4,0-1-0.1-1.2c-0.1-0.1-0.6-1-0.8-1.3s-0.4-0.8,0-1.5
			s1.2-3.3,1.6-3.7s0.6,0,0.8,0.4s1.7,2.8,3.3,5.3s2.4,5.1,2.8,6.5c0.3,0.9-0.7,0.2-1-0.2s-1.9-1.6-2.3-2.2
			c-0.4-0.6-0.5,0.6-0.4,1.3c0.1,0.8,2.6,14.4,3.4,19.3c0,0,0.6,3.4,0.3,4.6c-0.4,2-1,5-1.4,5.9c-0.5,0.9-1,2.9-4.9,3.5
			c0,0-1,0-1,0.4c0,0.5-0.6,3.6-0.9,4.6c-0.3,1,0,2.3-1.8,4.5s-3.9,4.3-8.1,7s-11.5,6.3-12.1,6.6c-0.6,0.3-1.7,0.5-4.2,0.8
			c-2.5,0.2-12.3,0.9-15.6,1.4s-1.4-0.4-0.1-0.7s14.7-4.8,18.6-6.3c3.9-1.5,16.2-7.9,19.1-10.8c2.8-2.8,4.2-3.3,3.1-6.2
			c-1.1-2.8-2.3-4.9-3.4-6s-0.5-1.4-0.4-2.4s0.3-2.7,0.4-3c0-0.4,0.3-1.2,0.9-0.4c0.6,0.8,1.7,2.6,2.8,3.6s1.9,1.4,3.2,1.4
			c1.3-0.1,2.6-0.7,3-0.8c0.4-0.2,0.9-0.4,0.7-1C572.1,75.7,570.2,67,569.8,64.9z"/>
		<path class="st1" d="M550.9,71.7c-0.3-0.5-2.9-3.4-3.3-3.8c-0.4-0.4-2.3-2.6-2.4-2.9c-0.1-0.3-0.3-0.3-0.5,0.2s-1.3,3.9-1.5,4.6
			s0.3,1,0.8,1.4s0.6,1.4,0.6,1.4s0.4,1.8,1.6,4.4c0.6,1.4,1.8,3.2,2.2,4.2c1.1,2.8-0.2,3.4-3.1,6.2c-2.8,2.8-19.7,12.1-23.5,13.6
			c-3.9,1.5-13.9,5.9-15.3,6.2s-2.2,1.3,1.1,0.8c3.3-0.5,7.9-1,10.4-1.2s3.5-0.4,4.2-0.8c0.6-0.3,6.7-3.3,12.6-6.6
			c4.4-2.4,11.2-7.7,13-9.9c1.8-2.2,1.5-3.5,1.8-4.5s0.8-4.1,0.9-4.6c0,0,0.6-1.7-0.7-4.4c-0.8-1.7-1.5-2.9-1.8-3.5l0,0
			c-0.6-1.1-0.4-1.2-0.1-1c0.4,0.2,1.3,0.5,2.7,1.3C552.1,73.3,551.3,72.2,550.9,71.7z"/>
		<path class="st1" d="M524.6,68c0,0,3.8,4.5,4.3,8.5s-1,8.1-1.3,8.8c-0.3,0.8-0.7,1.9-3,3.8s-7.3,6.2-12,8.2c-4.6,2-9.1,4-15.9,2.7
			s-12.9-8.5-12.8-14.3c0.1-5.7,1.7-10.2,2.5-11.3c0.7-1.2,0.7,0.1,0.5,0.6s-1.9,5.4-0.9,9.1s6.4,10.2,12.3,10.4
			c5.9,0.2,10.9,0,17.8-3.9c6.9-4,9.9-6.9,10.3-7.4s1.3-1.4,0.8-2.3s-1.3-1.9-2.3-2.3s-2.6-0.5-4.3-0.2s-5.7,0.1-6.4-3.3
			c-0.3-1.2-0.1-3.8,0.7-5.4c2.1-4.3,5-4.5,5.8-4.4C522.1,65.5,523,66,524.6,68z M517.5,71.4c0,0-0.8,0.6,0,0.9s1.4,0.4,2.3,0.4
			c0.9,0,1.8-0.1,2.1-0.1s0.5,0,0.2-0.2s-1.3-1.4-2.6-1.6C518.2,70.7,517.6,71.3,517.5,71.4z"/>
		<path class="st1" d="M393.3,100.8c-2.9,3.5-9,10.3-19,10.2c-10-0.1-13.2-6.9-14.5-9.6c-3-6.4-1.5-16.2,2-23.8
			c0-0.1,0.1-0.2,0.2-0.3c-1-0.7-2.3-1.6-2.8-1.8c-0.7-0.4-0.2-0.4,1.5-0.1c0.5,0.1,1.3,0.1,2.2,0.2c3.3-6.1,7.1-8.6,7.4-8.9
			s-0.1-0.4-0.1-0.4s-1.2-1-2.5-2.1c-1.3-1-2.6-1.6-3.4-2s-1.5-0.3-1.9-0.2s-1.5,0.5-2.1,0.7s-0.6-0.2-0.5-0.8
			c0.2-0.6,1.1-3.3,1.3-3.9c0.2-0.6,0.6-0.7,0.8-0.8c0.1-0.1,8.5-2.6,14.2-2s10.9,3.4,11.2,3.6s0.1,0.7,0.1,0.7
			c-0.8,1.5-1.5,4.1-1.7,4.5c-0.2,0.4-0.3,0.2-0.3,0.2c-2.3,0.3-6.2,2.2-6.9,2.5s-0.3,0.6-0.3,0.6c1.6,1.1,2.9,2.3,7.1,2.4
			c4.7,0.1,9.3-4.1,9.8-4.5c0.6-0.4,0.4-1.1,0-1.7c-0.4-0.7-2.2-3.4-3.1-4.6c-0.9-1.2-1.7-2.9-2.2-4.2c0,0-0.2-0.5-0.5-1.3
			c-0.1-0.4-0.1-0.7-0.2-0.9c-0.2-0.3-0.5-0.6-0.7-0.9c-0.5-0.5-0.3-0.8-0.3-0.8c0.6-2,0.8-3.6,1-4.1s0.4-0.5,0.7,0
			c0.3,0.5,3.7,4.1,4.6,5.7c0.9,1.5,0.3,1.2,0,1.1s-1.3-0.7-1.7-0.9c-0.4-0.2-0.2,0.1,0,0.4s3,4.2,3.9,5.7s0.6,4.2,0.5,4.6
			c-0.6,3.8-1.4,6-2.4,7c-2.3,2.3-7.4,4.7-9.2,4.9c-1.8,0.1-3.7,0.1-6-1.1s-5.7-4.6-5.9-4.7s-0.3,0-0.3,0c-4.5,2.7-7.3,5.9-7.6,6.2
			s0.3,0.2,0.3,0.2c2,0.3,12,0.6,15.5,0.6c8.2,0,13.4,1.2,15.6,6.9C399.5,89.8,396.2,97.3,393.3,100.8z M371.2,60.8
			c0,0,2.5,2.6,2.8,2.7c0.2,0.1,0.3,0.3,0.6,0.2s3.5-1.7,4-1.8c0,0,0.7-0.2,0.3-0.4c-0.4-0.1-2.7-0.7-4-0.9s-2.8-0.3-3.6-0.2
			C371.2,60.4,370.8,60.4,371.2,60.8z M363.1,78.7c-0.4,0.6-2.1,3.2-3.1,7.9c-1,4.7,1.1,10.1,4,14.2s9.6,5.2,15.2,4.4
			c5.6-0.8,11-5.1,14.5-9s2.8-6.1,0.9-9.5c-2-3.4-7.5-4.6-10.2-4.8c-2.7-0.2-6.7-0.1-11.1-0.4s-9.5-3-9.5-3
			C363.3,78.2,363.1,78.7,363.1,78.7z"/>
		<path class="st1" d="M318.7,32.6c0,0,0.4,0.6,0.4,0.7c0.1,0.2,0.1,0.2,0.3-0.1c0.2-0.3,1.1-1.1,0.8-2c-0.3-1-0.7-1.3-1.1-1.3
			c-0.3,0-0.6,0.2-0.9,0.4c-0.4,0.3-2.2,2.6-2.9,4.2c-0.1,0.3-0.3,0.5-0.1,0.7c0.3,0.2,1.1,0.6,1.4,0.7c0.3,0.1,0.9,0.3,0.9,0.3
			s0.3,0,0,0.3s-0.9,1.5-1,1.9s-0.3,0.7,0.1,0.4s2-1.7,3.4-2.4s2-0.8,2.2-1.3s0.7-1.3,0.7-1.5s0.2-0.5-0.2-0.3s-1.6,1.2-3,1
			s-2.5-0.6-2.9-0.9c0,0-0.2-0.1,0-0.4s0.6-0.8,0.8-0.9C317.9,32.1,318.3,32,318.7,32.6z"/>
		<path class="st1" d="M309.4,69.9c1.3,0,4.8,1.9,6.8,6.6s1.3,6.5,0.9,8.5c-0.4,1.9-0.3,4.2-3.1,7.3c0,0-4.1,4.9-9,8.1
			s-9,5.5-12.5,4.7s-7.9-3.9-8.6-9.3c-0.3-2.6-0.4-4.1,0-6.1c0,0,0.3-2.7,0.9-2.7s0.6,0,0.5,1.4c0,1.5,0,5.7,2.6,8.3
			c2.6,2.6,4.5,3.2,6.5,3s5.3,0,10.7-4.2s9.1-7.4,9.9-8.6s1.2-1.8,0.1-2.6c-1.1-0.8-2-1.4-4.8-1.4s-5.4,0-6.5-1s-1.1-4.2-0.4-6.3
			S305.9,70,309.4,69.9z M306.1,76.5c0,0,0.5,0.6,2.3,0.7c1.8,0.2,2.4-0.1,2.4-0.1s0.7-0.2,0.1-0.4c-0.6-0.3-1.7-1.2-2.8-1.4
			C307,75.2,306,76,306,76S305.6,76.2,306.1,76.5z"/>
		<path class="st1" d="M268.5,81.1c-0.9-2.4-3.3-3.4-7.5-5.3s-6.5-4.2-6.5-4.2c-0.4-0.4-0.2-0.5,0.2-0.6s1.1,0,2.2,0.1
			c0.5,0,0.7-0.1,0.3-0.4c-0.4-0.3-0.9-0.9-2.3-1.5s-4.7-1.9-5.5-2.3s-0.9,0.1-0.8,0.3c0,0.3,0.1,2.8,0.1,3.9
			c0.1,1.1,0.4,1.2,0.4,1.2c0.8,0.1,1.2,0.3,4.2,3.7c3,3.5,5.4,4.4,9.4,6.2c3.9,1.8,4,2.6,4.7,3.6c0.6,1.1-0.2,1.3-1.7,2.4
			S251.4,97.9,248,100s-4.3,3-6.8,2.1s-2.4-2.9-2.4-5s1-5.7,1.9-10.8s0.6-5.8,0.1-7.4c-0.6-1.7-2.2-2.7-2.6-3
			c-0.4-0.3-0.1-0.5,0.3-0.9c0.3-0.4,3.5-5.2,4.6-7s1.6-4.3,1.9-5.2c0.3-0.9,0.5-2.7-0.5-0.4s-1.5,2.7-3.8,5.7
			c-1.9,2.5-4.1,4.9-4.8,5.6l-0.1,0.1c-0.1,0-0.1,0-0.1,0c-0.2-0.1-0.3-0.3-0.6-0.5c-0.5-0.3-2.3-2.3-2.8-3s0.1-0.4,0.4-0.3
			c0.4,0.1,1.5,0.3,2.2,0.5c0.7,0.1,0.8,0.1,0.5-0.3c-0.2-0.3-0.7-0.9-1.8-1.6s-5.2-3.5-5.5-3.7s-0.6-0.2-0.5,0.5s-0.2,3.5-0.1,4
			c0.1,0.5,0.1,0.9,0.3,1c0.2,0.2,0.8,0.6,1.1,0.7s0.4,0.7,1.1,2c0.6,1,2.3,3.1,3.1,4.2c-1.7,2.4-2.8,8.1-3.1,10.1
			c-0.3,2.2,0.1,5,2.2,5.3c2.1,0.4,6.1-2.3,6.5-2.8c0.5-0.4,0.5-0.2,0.4,0.3s-1.3,6.5-1.7,10.5s1.7,6,3.4,6.8s4.5-0.6,5.7-1.3
			s11.5-7.8,11.5-7.8s7.9-5.4,8.8-6.1s1.2-2,1.9-4.3C269.2,85.8,269.4,83.5,268.5,81.1z M235.1,86.8c-1.9,0.5-2.8,0.5-3.2,0
			s-0.9-1.6-0.2-3.3c0.7-1.7,2.5-4,2.7-4.3s0.4-0.3,0.5-0.2c0,0,2,1.4,3.1,2.6c1.1,1.1,1.4,1.5,1.5,1.8s0.4,0.5-0.1,0.8
			C238.9,84.7,237.1,86.3,235.1,86.8z"/>
		<path class="st1" d="M313.5,38c-0.6,0.8-1.7,3.2-5.2,7.2c-2.3,2.6-5.5,6.2-10,11c-6.7,7.1-12.6,12.7-16.4,16.9
			c-5.7-3.1-10.8-6.7-15.2-9.7c-4.8-3.3-8.8-8-9.4-8.6s0-0.4,0.4-0.3c0.5,0,2.7,0.5,3.4,0.8c0.7,0.2,0.5-0.2,0.1-0.8
			c-0.5-0.6-2.7-1.8-3.5-2.3s-6-3.4-6.3-3.7s-0.6,0-0.6,0.3s0,3.4,0,4.2s0.8,1.2,0.8,1.2s0.3-0.3,2.7,2.9c2.4,3.3,7.9,8.8,13,12.5
			c4,2.9,8.1,5.3,8.1,5.3c0.5,0.3,1.8,1.2,3.2,2.1c-0.5,0.7-0.8,1.3-1,1.9c-2,5-3.6,11.3-0.2,12.5c2.1,0.7,6-1.2,7.8-3.8
			c0.4-0.6,2.2-6.6,1.7-8.2c-0.4-1.5-1-3.3-2.5-4.6c0,0-0.5-0.3-0.2-0.8s12.8-13.4,15.1-15.7s10.1-11.5,11.2-13.2s3-6.3,3.2-6.8
			C314,37.9,314.1,37.2,313.5,38z M285.3,81.8c0.1,0.2,0.6,0.8-0.3,1.3s-3,2.2-4.2,2.5s-2.3,0.5-2.7,0.2c-0.5-0.3-1.3-1.2-0.7-2.7
			c0.6-1.6,2.6-4.5,3-4.9s1,0,1,0s1.5,0.9,2.4,1.9C284.7,81,285.3,81.6,285.3,81.8z"/>
		<path class="st1" d="M463.8,79.9c-0.4,2-1,5-1.4,5.9c0,0-1.3,3.4-3.2,4.7s-10.4,3.6-17.8,4.1s-10,1.1-16.7-2.1
			c0,0-0.1-0.1-0.2-0.2c-0.7,1-1.9,2.7-2.3,3.4c-0.6,0.9-0.5-0.1-0.4-0.3c0.1-0.2,1.1-3,1.6-4.2c-0.8-1-1.7-2.4-1.9-4
			c0,0-0.1-1-0.7-0.2s-2.2,4.4-3.7,5.4c-1.5,1.1-2.6,2.2-6.2,1.7s-5.8-4.6-6.2-8s-0.8-14.8-0.8-17.2c0-2.4-1.4-18.5-3.2-22.7
			c0,0-0.8-1.7-0.5-2.3s1.1-3.6,1.2-3.9c0.1-0.3,0.5-1.1,0.8,0s1.5,5,1.9,7.4s1.5,9.6,1.8,15.6s0.3,9.1,0.4,12.2
			c0.2,3.1,0.3,5.4,1,8.4s2,5.1,5.6,5.1c3.6,0.1,5.2-1.7,6.4-3.5c1.2-1.7,2.3-3.6,2.8-4.1s0.8-0.6,1.1-0.4s0,1.1-0.1,1.4
			s-0.4,1.4,0.2,2.1c0.5,0.7,0.9,1.4,1.5,2s1,1.2,1.4,0.8s6-8,10-11.2s7-6,12.8-3.3c5.7,2.8,6.7,6.8,6.7,7.3s0.1,1.3-0.9,3.7
			c-0.9,2.4-1.4,3.5-1.4,3.5s-0.6,0.7,0.3,0.4c0.9-0.2,5.1-1.2,6.6-2.1c1.5-1,1.3-2.8,1.4-3.4s-2.1-14.8-2.5-17
			c-1.3-7.3-2.9-18.1-2.9-18.1c-0.1-0.4,0-1-0.1-1.2c-0.1-0.1-0.6-1-0.8-1.3c-0.2-0.3-0.4-0.8,0-1.5s1.2-3.3,1.6-3.7s0.6,0,0.8,0.4
			c0.2,0.4,1.7,2.8,3.3,5.3s2.4,5.1,2.8,6.5c0.3,0.9-0.7,0.2-1-0.2s-1.9-1.6-2.3-2.2c-0.4-0.6-0.5,0.6-0.4,1.3
			c0.1,0.8,2.6,20,3.4,25C463.5,75.3,464.1,78.6,463.8,79.9z M428,88.3c1,0.4,4.4,1.3,9.8,1.2c5.3-0.1,7.5-1.2,10.8-2.4
			s4-2.2,4.4-2.6s0-0.9,0-0.9c-0.8-1.3-2.8-4.3-6-5.7c-3.1-1.4-5.9-1.8-10.3,1.2s-8.7,8.8-8.7,8.8C427.8,88.2,428,88.3,428,88.3z"/>
	</g>
	<path class="st1" d="M714.9,78.9C714.6,79.2,702,85,702,85s-1.6,0.8-4.1,0.6c-1.7-0.1-4.4-1-6.1-2c-0.5-0.3-3-2-4.5-4.3
		s-2.1-5.2-2.1-5.2c-0.1-0.3,0-0.3,0.3-0.6c0.8-0.6,2.9-1.3,6.4-2.5c3.5-1.1,7.7-0.6,8.7-0.4s3.8,1.1,4,1.2s1.1,0.4,0.6-0.4
		s-2.3-2.2-2.3-2.2c-4-2.8-8.4-3.1-10.5-2.9s-4.7,0.8-6.8,2.8s-3.3,4.1-3.4,7.5c0,3.5,2.1,7,3.7,9c1.6,2,3.7,3,4.1,3.2
		c0.4,0.2,0,0.2,0,0.2s-0.8,0.3-1.7,0.7c-0.9,0.3-4,1.2-6.9,0.4c-2.8-0.8-4.6-3.6-5.3-4.7s-1.5-3.6-3.3-3.7s-5.5,3.7-7.3,6.1
		s-3.2,8.9-3.7,10c-0.4,1.1-1.9,3.5-3.2,3.6s-1.6-0.2-2.9-1.2c-1.3-1-2.9-3.5-3.8-5.9c-0.8-2.3-1-6.9-1.1-7.4c0-0.4-0.1-0.8-0.1-1
		c-0.1-0.5-0.1-1.3-0.5-0.5c-0.2,0.4-0.2,1.5-0.2,1.5s-0.1,1.2,0.1,4.2c0.4,7,3.2,10.7,4.4,12.3c1.1,1.5,3.1,2.5,4.2,2.4
		c1-0.1,2.3-1.6,2.8-2.5s1.3-4.1,2.7-7.9c1.3-3.8,3.7-5.9,5.7-7.4c1.5-1.1,2.3-1,2.9-0.9c0.4,0.1,1.2,0.7,2,2.4
		c0.8,1.7,1.9,3.4,3.5,4.7c4.6,4,12.9-0.7,19.7-3.4c2.4-1,4.6-2.2,6.8-3.2c4-2,7.3-3.6,7.6-3.8c0.5-0.2,0.6-0.5,0.7-0.8
		s1.8-3.5,2.1-4C715.5,79,715.3,78.7,714.9,78.9z"/>
</g>
<polygon class="st2" points="173.4,60.2 108.2,6.1 135.3,60.3 "/>
<polygon class="st3" points="82.2,34.8 135.3,60.3 108.2,6.1 "/>
<polygon class="st4" points="37.3,25.6 82.2,34.8 108.2,6.1 "/>
<polygon class="st5" points="85.1,62.6 82.2,34.8 135.3,60.3 115.6,76.8 "/>
<polygon class="st6" points="173.3,132.6 135.3,60.3 173.4,60.2 "/>
<polygon class="st1" points="116.3,110.8 173.3,132.6 135.3,60.3 115.6,76.8 "/>
<polygon class="st7" points="81.1,127.7 76,155.4 173.3,132.6 116.3,110.8 "/>
<polygon class="st8" points="110.6,185.5 76,155.4 173.3,132.6 "/>
<polygon class="st5" points="59.6,93.1 31.1,86.4 76,155.4 81.1,127.7 "/>
<polygon class="st9" points="29,158.6 76,155.4 110.6,185.5 "/>
<polygon class="st9" points="31.1,86.4 76,155.4 29,158.6 "/>
<polygon class="st10" points="31.1,86.4 76,155.4 29,158.6 "/>
<polygon class="st11" points="31.1,86.4 59.6,93.1 85.1,62.6 82.2,34.8 "/>
<polygon class="st12" points="37.3,25.6 4.4,79.1 31.1,86.4 82.2,34.8 "/>
<polygon class="st0" points="29,158.6 31.1,86.4 4.4,79.1 "/>
<polygon class="st13" points="81.1,127.7 76,155.4 173.3,132.6 116.3,110.8 "/>
<rect x="201.8" y="7.2" class="st14" width="1.9" height="178.3"/>
<path class="st15" d="M15.6,141.7"/>
</svg>
