<?xml version="1.0" encoding="utf-8"?>
<!-- Generator: Adobe Illustrator 24.0.2, SVG Export Plug-In . SVG Version: 6.00 Build 0)  -->
<svg version="1.1" id="Layer_1" xmlns="http://www.w3.org/2000/svg" xmlns:xlink="http://www.w3.org/1999/xlink" x="0px" y="0px"
	 viewBox="0 0 700.21 192.69" style="enable-background:new 0 0 700.21 192.69;" xml:space="preserve">
<style type="text/css">
	.st0{fill:#C4B7A0;}
	.st1{fill:#AB753F;}
	.st2{fill:#B88B54;}
	.st3{fill:#B89555;}
	.st4{fill:#D2C4A1;}
	.st5{fill:#7E472B;}
	.st6{fill:#BDB49D;}
	.st7{fill:#B2915C;}
	.st8{fill:#B89247;}
	.st9{fill:#9B601A;}
	.st10{fill:#8C4829;}
	.st11{fill:#C2A66A;}
	.st12{fill:#A35C1C;}
	.st13{fill:#5C2E12;}
	.st14{opacity:0.4;fill:#FFDE00;}
	.st15{fill:#B2B2B2;}
</style>
<g>
	<g>
		<polygon class="st0" points="175.18,60.94 109.89,6.83 137.03,61.06 		"/>
		<polygon class="st1" points="83.98,35.52 137.03,61.06 109.89,6.83 		"/>
		<polygon class="st2" points="39.01,26.3 83.98,35.52 109.89,6.83 		"/>
		<polygon class="st3" points="86.82,63.38 83.98,35.52 137.03,61.06 117.33,77.54 		"/>
		<polygon class="st4" points="175.02,133.33 137.03,61.06 175.18,60.94 		"/>
		<polygon class="st5" points="118.09,111.57 175.02,133.33 137.03,61.06 117.33,77.54 		"/>
		<polygon class="st6" points="82.85,128.49 77.72,156.2 175.02,133.33 118.09,111.57 		"/>
		<polygon class="st7" points="112.37,186.29 77.72,156.2 175.02,133.33 		"/>
		<polygon class="st8" points="61.37,93.85 32.85,87.19 77.72,156.2 82.85,128.49 		"/>
		<polygon class="st9" points="30.73,159.39 77.72,156.2 112.37,186.29 		"/>
		<polygon class="st10" points="32.85,87.19 77.72,156.2 30.73,159.39 		"/>
		<polygon class="st11" points="32.85,87.19 61.37,93.85 86.82,63.38 83.98,35.52 		"/>
		<polygon class="st12" points="39.01,26.3 6.12,79.8 32.85,87.19 83.98,35.52 		"/>
		<polygon class="st13" points="30.73,159.39 32.85,87.19 6.12,79.8 		"/>
	</g>
	<path class="st14" d="M109.89,6.83L39.01,26.3L6.12,79.8l24.61,79.58l81.64,26.91l62.65-52.96l0.16-72.39L109.89,6.83z
		 M82.85,128.49L61.37,93.85l25.45-30.47l30.51,14.16l0.76,34.03L82.85,128.49z"/>
</g>
<rect x="203.51" y="7.99" class="st15" width="1.9" height="178.3"/>
<g>
	<path class="st13" d="M235.94,147.93h-3.91V128.4h3.41l9.12,12.72h0.11V128.4h3.91v19.52h-3.38l-9.13-12.79h-0.12V147.93z"/>
	<path class="st13" d="M264.61,147.93l-1.49-4.74h-6.86l-1.49,4.74h-4.19l6.78-19.52h4.8l6.79,19.52H264.61z M259.65,132.14l-2.5,8
		h5.1l-2.5-8H259.65z"/>
	<path class="st13" d="M279.59,147.93h-8.65V128.4h8.5c1.83,0,3.28,0.44,4.36,1.31s1.61,2.06,1.61,3.56c0,1.06-0.35,2-1.05,2.8
		s-1.57,1.28-2.62,1.43v0.11c1.33,0.1,2.44,0.59,3.3,1.48c0.87,0.88,1.3,1.97,1.3,3.25c0,1.72-0.6,3.08-1.81,4.09
		S281.68,147.93,279.59,147.93z M275.03,131.45v5.07h2.94c1.09,0,1.94-0.23,2.53-0.68c0.6-0.46,0.89-1.1,0.89-1.93
		c0-0.78-0.26-1.39-0.79-1.82s-1.26-0.64-2.22-0.64H275.03z M275.03,144.89h3.52c1.18,0,2.08-0.25,2.7-0.74
		c0.62-0.49,0.93-1.2,0.93-2.13c0-0.91-0.32-1.61-0.95-2.08c-0.64-0.48-1.56-0.72-2.77-0.72h-3.42V144.89z"/>
	<path class="st13" d="M301.61,144.55v3.38h-12.93V128.4h12.93v3.37h-8.85v4.71h8.35v3.14h-8.35v4.92H301.61z"/>
	<path class="st13" d="M317.49,144.55v3.38h-12.93V128.4h12.93v3.37h-8.85v4.71h8.35v3.14h-8.35v4.92H317.49z"/>
	<path class="st13" d="M333.06,144.55v3.38h-12.62V128.4h4.09v16.14H333.06z"/>
	<path class="st13" d="M348.27,147.93l-1.49-4.74h-6.86l-1.49,4.74h-4.19l6.78-19.52h4.8l6.79,19.52H348.27z M343.31,132.14l-2.5,8
		h5.1l-2.5-8H343.31z"/>
	<path class="st13" d="M364.17,140.79v7.14h-4.09V128.4h8c2.23,0,3.96,0.55,5.2,1.66c1.24,1.11,1.86,2.63,1.86,4.57
		c0,1.27-0.31,2.41-0.94,3.4c-0.63,1-1.5,1.71-2.6,2.14l4.11,7.75h-4.63l-3.64-7.14H364.17z M364.17,131.6v6.22h3.52
		c1.03,0,1.83-0.27,2.4-0.83c0.57-0.55,0.86-1.31,0.86-2.29c0-0.95-0.3-1.7-0.89-2.27c-0.6-0.56-1.4-0.85-2.41-0.85H364.17z"/>
	<path class="st13" d="M390.76,144.55v3.38h-12.93V128.4h12.93v3.37h-8.85v4.71h8.35v3.14h-8.35v4.92H390.76z"/>
	<path class="st13" d="M406.49,147.93l-1.49-4.74h-6.86l-1.49,4.74h-4.19l6.78-19.52h4.8l6.79,19.52H406.49z M401.53,132.14l-2.5,8
		h5.1l-2.5-8H401.53z"/>
	<path class="st13" d="M425.45,144.55v3.38h-12.62V128.4h4.09v16.14H425.45z"/>
	<path class="st13" d="M446.29,144.55v3.38h-12.93V128.4h12.93v3.37h-8.85v4.71h8.35v3.14h-8.35v4.92H446.29z"/>
	<path class="st13" d="M448.5,142.37h3.94c0.09,0.79,0.51,1.44,1.27,1.93c0.75,0.49,1.67,0.74,2.77,0.74c1.08,0,1.96-0.23,2.65-0.7
		c0.68-0.46,1.02-1.06,1.02-1.78c0-0.63-0.25-1.14-0.76-1.53c-0.51-0.39-1.35-0.71-2.53-0.97l-2.54-0.55
		c-3.58-0.77-5.37-2.58-5.37-5.45c0-1.79,0.7-3.23,2.09-4.33s3.19-1.65,5.38-1.65c2.25,0,4.05,0.53,5.4,1.6
		c1.34,1.07,2.03,2.49,2.07,4.27h-3.83c-0.06-0.82-0.43-1.47-1.09-1.94c-0.66-0.47-1.51-0.71-2.54-0.71c-1.01,0-1.83,0.22-2.44,0.66
		c-0.62,0.44-0.93,1.02-0.93,1.75c0,0.59,0.25,1.08,0.75,1.45c0.5,0.37,1.31,0.69,2.44,0.95l2.37,0.5c1.96,0.41,3.38,1.06,4.28,1.94
		c0.89,0.88,1.34,2.06,1.34,3.55c0,1.89-0.71,3.4-2.14,4.51c-1.43,1.11-3.35,1.67-5.78,1.67c-2.35,0-4.23-0.53-5.62-1.58
		S448.57,144.2,448.5,142.37z"/>
	<path class="st13" d="M475.48,147.93h-4.09v-16.16h-5.64v-3.37h15.38v3.37h-5.66V147.93z"/>
	<path class="st13" d="M496.18,147.93l-1.49-4.74h-6.86l-1.49,4.74h-4.19l6.78-19.52h4.8l6.79,19.52H496.18z M491.22,132.14l-2.5,8
		h5.1l-2.5-8H491.22z"/>
	<path class="st13" d="M511.27,147.93h-4.09v-16.16h-5.64v-3.37h15.38v3.37h-5.66V147.93z"/>
	<path class="st13" d="M532.12,144.55v3.38h-12.93V128.4h12.93v3.37h-8.85v4.71h8.35v3.14h-8.35v4.92H532.12z"/>
	<path class="st13" d="M554.66,148.27c-2.85,0-5.1-0.9-6.76-2.7c-1.66-1.8-2.48-4.27-2.48-7.41c0-3.13,0.83-5.59,2.49-7.39
		c1.66-1.8,3.91-2.7,6.75-2.7c1.55,0,2.96,0.31,4.23,0.92c1.27,0.61,2.28,1.48,3.05,2.6c0.77,1.12,1.2,2.39,1.3,3.83h-3.98
		c-0.19-1.2-0.71-2.16-1.55-2.88c-0.84-0.72-1.86-1.08-3.05-1.08c-1.54,0-2.77,0.6-3.69,1.81c-0.92,1.21-1.38,2.84-1.38,4.88
		c0,2.08,0.46,3.73,1.37,4.93s2.15,1.81,3.72,1.81c1.21,0,2.22-0.33,3.04-1c0.82-0.67,1.34-1.58,1.56-2.73h3.98
		c-0.23,2.17-1.11,3.9-2.67,5.19C559.04,147.62,557.06,148.27,554.66,148.27z"/>
	<path class="st13" d="M567.7,130.79c1.69-1.81,3.98-2.72,6.88-2.72s5.19,0.91,6.88,2.72c1.69,1.81,2.54,4.28,2.54,7.39
		c0,3.1-0.85,5.56-2.54,7.37c-1.7,1.81-3.99,2.72-6.87,2.72c-2.9,0-5.19-0.91-6.88-2.72c-1.69-1.81-2.54-4.27-2.54-7.37
		C565.16,135.06,566.01,132.6,567.7,130.79z M578.39,133.29c-0.95-1.21-2.22-1.81-3.82-1.81s-2.87,0.6-3.82,1.81
		c-0.95,1.21-1.43,2.84-1.43,4.88c0,2.04,0.47,3.66,1.42,4.86c0.95,1.21,2.22,1.81,3.83,1.81c1.6,0,2.87-0.6,3.82-1.81
		c0.95-1.2,1.42-2.83,1.42-4.86C579.81,136.13,579.34,134.5,578.39,133.29z"/>
	<path class="st13" d="M607.29,147.93h-3.64v-13.18h-0.11l-5.3,12.99h-2.57l-5.3-12.99h-0.11v13.18h-3.64V128.4h4.74l5.55,13.84
		h0.11l5.55-13.84h4.74V147.93z"/>
	<path class="st13" d="M610.54,128.4h7.94c2.01,0,3.64,0.61,4.89,1.84c1.25,1.23,1.87,2.84,1.87,4.84c0,1.99-0.65,3.61-1.93,4.84
		c-1.29,1.23-2.97,1.85-5.03,1.85h-3.65v6.16h-4.09V128.4z M614.63,131.64v6.94h2.76c1.17,0,2.08-0.3,2.73-0.91s0.97-1.46,0.97-2.57
		c0-1.11-0.32-1.96-0.97-2.56c-0.65-0.6-1.55-0.9-2.73-0.9H614.63z"/>
	<path class="st13" d="M640.44,147.93l-1.49-4.74h-6.86l-1.49,4.74h-4.19l6.78-19.52h4.8l6.79,19.52H640.44z M635.48,132.14l-2.5,8
		h5.1l-2.5-8H635.48z"/>
	<path class="st13" d="M650.69,147.93h-3.91V128.4h3.41l9.12,12.72h0.11V128.4h3.91v19.52h-3.38l-9.13-12.79h-0.12V147.93z"/>
	<path class="st13" d="M676.2,147.93h-4.09v-7.29l-6.79-12.23h4.45l4.37,8.33h0.09l4.38-8.33h4.38l-6.81,12.23V147.93z"/>
</g>
<path class="st12" d="M677.43,83.5l2.3-5.53c0.08-0.2,0.38-0.2,0.46,0c0.39,0.97,1.12,3.04,1.08,4.77
	c-0.05,1.87-0.85,4.51-1.69,6.11c-0.6,1.16-1.75,3.59-5.1,3.51c-1.9-0.05-5.17-1.03-5.51-4.3c0-0.03-0.03-0.06-0.07-0.05
	c-0.15,0.05-0.56,0.26-1.24,1.17c-0.87,1.15-3.68,4.44-7.68,4.34c-6.65-0.17-4.69-4.66-11.01-4.82c-3.24-0.08-7.43,0.69-12.32,5.63
	c-4.88,4.94-7.75,8.29-9.62,9.97c-1.87,1.68-8,6.99-12.1,6.89c-5.19-0.13-7-5.23-6.62-11.6c0.22-3.73,2.1-10.12,4.62-14.5
	c0.66-1.14,0.59,0.69-0.11,2.76c-0.7,2.07-2.81,6.1-3.05,10.93c-0.15,3.01,2.27,5.9,4.85,5.96c2.58,0.06,7.79-2.8,12.1-6.68
	c4.31-3.88,8.17-9.17,14.75-13.51c2.43-1.61,5.84-2.36,8.27-2.3c7.47,0.19,4.71,4.72,11.7,4.89c5.08,0.13,7.48-3.41,8.06-4.97
	c0.33-0.88,1.15-2.15,1.63-2.6c0.48-0.45,1.04-1.1,1.29-1.01c0.24,0.09,0.33,0.56-0.06,1.7c-0.39,1.14-0.56,1.5-0.67,1.87
	c-0.11,0.36-0.49,3.88,4.19,4c0.71,0.02,1.7-0.01,2.36-0.35c0.04-0.02,0.06-0.07,0.05-0.11c-0.08-0.26-0.37-1.15-0.84-1.88
	C677.4,83.71,677.39,83.6,677.43,83.5z"/>
<g>
	<polygon class="st12" points="670.07,71.1 663,66.42 667.07,60.61 674.15,65.29 	"/>
</g>
<g>
	<polygon class="st12" points="662.82,63.85 655.74,59.16 659.81,53.35 666.89,58.03 	"/>
</g>
<g>
	<polygon class="st12" points="660.11,72.53 653.03,67.85 657.11,62.04 664.19,66.72 	"/>
</g>
<g>
	<polygon class="st12" points="341.69,66.73 334.63,62.01 338.74,56.22 345.8,60.93 	"/>
</g>
<g>
	<polygon class="st12" points="331.72,68.11 324.66,63.39 328.77,57.6 335.82,62.31 	"/>
</g>
<g>
	<polygon class="st12" points="267.03,99.13 259.98,94.41 264.08,88.62 271.14,93.34 	"/>
</g>
<g>
	<polygon class="st12" points="257.06,100.51 250,95.79 254.11,90 261.17,94.72 	"/>
</g>
<g>
	<polygon class="st12" points="247.43,43.8 240.38,39.08 244.49,33.29 251.54,38 	"/>
</g>
<g>
	<polygon class="st12" points="237.46,45.18 230.41,40.46 234.51,34.67 241.57,39.38 	"/>
</g>
<g>
	<polygon class="st12" points="533.19,50.46 526.11,45.78 530.19,39.96 537.26,44.65 	"/>
</g>
<g>
	<polygon class="st12" points="523.22,51.89 516.14,47.21 520.22,41.4 527.3,46.08 	"/>
</g>
<path class="st12" d="M407.55,42.74c0.45-1.01,1.79-3.99,2.46-5.4c0.12-0.26,0.49-0.27,0.63-0.02c1.24,2.23,5.58,10.08,6.05,10.96
	c0.55,1.03,2.09,4.62,1.47,5.19c-0.63,0.57-4.23-4.25-4.78-4.04c-0.12,0.05-0.05,0.65,0.07,1.34c0.12,0.69,1.88,10.11,2.34,12.92
	c0.47,2.81,1.91,10.8,1.92,16.17c0.01,5.37-1.19,9.67-1.8,9.65c-0.61-0.02-0.64-6.83-2.07-15.03c-1.44-8.2-3.97-21.27-4.3-23.78
	c-0.33-2.51-0.36-4.07-0.54-4.73c-0.16-0.6-0.54-1.62-1.36-2.62C407.5,43.19,407.46,42.95,407.55,42.74z"/>
<path class="st12" d="M389.89,50.12c-0.33-2.51-0.36-4.07-0.54-4.73c-0.16-0.6-0.54-1.63-1.36-2.62c-0.15-0.18-0.19-0.41-0.1-0.62
	c0.45-1.01,1.82-4.06,2.49-5.46c0.11-0.24,0.45-0.24,0.58-0.01c1.2,2.17,5.6,10.12,6.08,11.01c0.55,1.03,2.09,4.62,1.47,5.19
	c-0.63,0.57-4.23-4.25-4.78-4.04c-0.12,0.05-0.03,0.65,0.07,1.34c0.29,1.95,2.51,16.7,2.97,19.95c0.45,3.25,1.59,8.04,0.01,13.25
	c-1.58,5.21-2.39,5.36-3.02,5.87c-0.62,0.52-5.99,3.67-10.71,3.53c-4.72-0.14-7.7-3.32-9.64-5.21c-1.94-1.89-6.28-6.24-8.46-7.93
	c-2.18-1.7-5.41-3.34-6.8-3.41c-1.05-0.05-3.21,1.01-4.19,1.53c-0.2,0.1-0.43-0.07-0.37-0.28c0.15-0.61,0.44-1.63,0.86-2.63
	c0.57-1.36,1.3-2.76,1.55-3.24c0.06-0.12,0.15-0.2,0.27-0.25c1.12-0.5,7.33-3.07,15.09-2.84c7.7,0.23,14.56,3.63,15.89,4.32
	c0.14,0.07,0.21,0.22,0.17,0.38c-0.23,0.86-1.07,3.76-2.17,5.61c-0.1,0.17-0.29,0.24-0.49,0.23c-0.57-0.05-1.73,0.18-3.24,0.67
	c-1.84,0.6-5.45,2.24-7.04,3.4c-2.58,1.88-7.01,4.66-8.47,5.59s-8.15,4.48-14.83,4.66c-5.63,0.15-12.77-3.12-15.2-6.11
	c-2.43-2.98-3.61-4.35-2.7-7.27c0.91-2.93,1.11-3.44,1.57-4.66c0.61-1.61,5.57-7.69,8.48-7.47c1.32,0.1,2.33,4.37,1.86,9
	c-0.46,4.63-3.09,10.14-3.09,10.14s-8.95,5.66-14.77,5.49c-5.82-0.17-9.54-4.93-10.07-16.31c-0.53-11.38-0.61-17.51-1.01-21.55
	c-0.39-3.9-1.29-10.49-2.66-13.28c-0.09-0.19-0.12-0.39-0.06-0.59c0.3-1,1.29-4.18,2.11-5.67c0.07-0.13,0.27-0.12,0.33,0.02
	c0.54,1.36,2.49,6.78,2.95,14.64c0.54,9.13,0.81,17.6,0.91,19.97c0.1,2.37,0.57,8.93,2.56,12.12c1.99,3.18,3.79,4.14,6.22,4.21
	c3.01,0.09,6.51-1.15,9.96-2.65c0.92-0.4,3.18-1.52,3.99-2.44c0.08-0.09,0.11-0.2,0.11-0.32c-0.04-1-0.28-5.75-1.68-6.48
	c-1.47-0.76-4.39,2.72-5.09,3.91c-0.08,0.13-0.08,0.28-0.02,0.42c0.51,1.19,4.61,8.06,15.83,8.5c4.66,0.19,10.85-0.78,18.28-6.43
	c1.44-1.09,6.18-3.84,7.15-4.41c0.07-0.04,0.06-0.14-0.02-0.16c-0.95-0.29-5.17-1.5-8.58-1.14c-0.09,0.01-0.13,0.12-0.07,0.18
	c0.78,0.74,4.17,3.96,4.74,4.55c0.65,0.67,5.28,6.6,11.04,6.74c4.66,0.12,9.1-2.04,9.97-2.69c0.15-0.11,0.23-0.28,0.22-0.45
	c-0.03-0.8-0.16-3.28-0.55-6.13c-0.48-3.47-3.06-20.6-3.06-20.6L389.89,50.12z"/>
<path class="st12" d="M298.72,61.71l1.3-5.84c0.08-0.36,0.56-0.47,0.8-0.19c1.11,1.3,3.44,4.05,4.16,4.98
	c0.95,1.24,2.25,2.99,1.89,3.69c-0.27,0.51-2.5-1.16-2.71-0.83c-0.16,0.25,0.84,1.82,1.21,2.38c0.37,0.56,4.22,5.44,3.33,10.71
	c-0.49,2.91-0.94,5.51-2.07,7.28c-1.43,2.24-5.08,5.95-12.47,11.02c-7.4,5.07-13.36,7.67-14.64,7.89
	c-1.12,0.19-16.39,1.95-23.26,2.94c-0.28,0.04-0.38-0.34-0.12-0.44c4.68-1.68,15.33-5.51,19.6-7.17
	c4.57-1.78,14.34-6.52,19.66-10.07c5.32-3.55,11.47-8.54,11.53-10.57c0.02-0.79-0.69-2.21-1.63-3.65c-0.94-1.43-3.43-5.36-4.11-7.1
	c-0.63-1.64-0.8-3.36-2.27-4.49C298.76,62.12,298.67,61.91,298.72,61.71z"/>
<path class="st12" d="M286.21,61.33c-0.26,1.37-0.86,4.47-1.04,5.8c-0.03,0.22,0.05,0.43,0.23,0.58c0.87,0.71,3.54,3.18,4.18,7.01
	c0.02,0.1-0.03,0.19-0.12,0.24c-1.3,0.64-12.16,5.18-23.44,4.84c-12.13-0.36-14.37-4.17-16.44-14.19
	c-1.97-9.51-2.65-11.71-5.01-16.33c-0.13-0.26-0.54-0.23-0.61,0.06l-1.38,5.32c-0.05,0.19-0.03,0.4,0.05,0.58
	c0.47,1.08,2.21,5.19,3.48,10.04c0.29,1.09,0.6,2.62,0.77,3.47c0.08,0.4-0.08,0.8-0.42,1.04c-0.89,0.63-2.79,1.82-5.08,2.44
	c-3.19,0.86-4.64,1.01-5.24-0.07c-0.61-1.09,2.49-3.89,3.12-4.46c0.63-0.57,6.76-6.41,7.79-7.64c1.01-1.21,4.65-5.2,5.35-9.62
	c0.01-0.08-0.1-0.13-0.15-0.06c-0.77,0.99-3.64,4.6-5.83,6.48c-2.56,2.2-9.13,7.71-10.5,10.77c-1.07,2.39-2.15,6.1-2.36,8.11
	c-0.21,2.02,0.94,3.58,2.67,3.63c1.55,0.05,5.39-0.93,8.5-2.78c0.72-0.43,1.22-1.13,1.44-1.92l1.09-4.04
	c0.03-0.1,0.17-0.1,0.19,0.01c0.22,1.43,1,5.86,2.42,8.33c1.71,2.98,4.66,7,13.75,7.27c8.85,0.27,20.08-2.53,25.38-5.06
	c0.29-0.14,0.53-0.36,0.69-0.64c0.85-1.48,3.43-6.59,1.82-11.81c-1.34-4.36-3.56-6.71-4.59-7.61
	C286.66,60.9,286.27,61.02,286.21,61.33z"/>
<path class="st12" d="M535.68,85.6c-1.41-2.47-2.23-6.89-2.46-8.32c-0.02-0.1-0.16-0.11-0.19-0.01l-1.07,4.05
	c-0.21,0.79-0.71,1.5-1.43,1.93c-3.09,1.87-6.94,2.87-8.48,2.83c-1.74-0.04-2.89-1.6-2.69-3.62c0.2-2.02,1.26-5.73,2.32-8.13
	c1.35-3.06,7.89-8.61,10.44-10.82c2.19-1.9,5.03-5.52,5.8-6.51c0.05-0.07,0.16-0.02,0.15,0.06c-0.68,4.42-4.3,8.43-5.3,9.64
	c-1.03,1.24-7.13,7.11-7.76,7.68c-0.62,0.58-3.71,3.39-3.1,4.48c0.61,1.08,2.06,0.92,5.24,0.05c2.28-0.63,4.18-1.83,5.06-2.46
	c0.34-0.24,0.5-0.64,0.42-1.04c-0.17-0.85-0.49-2.38-0.79-3.47c-1.3-4.85-3.05-8.94-3.53-10.02c-0.08-0.18-0.1-0.39-0.05-0.58
	l1.35-5.33c0.07-0.29,0.47-0.33,0.61-0.06c2.38,4.61,2.97,6.82,5.09,16.3c1.23,5.51,2.52,8.61,4.47,10.94
	c4.35,5.16,10.4,5.66,16.09,5.8c5.69,0.14,17.56-0.43,24.48-1.46c6.92-1.03,23.24-3.72,27.77-4.71c4.17-0.91,13.26-2.14,14.64-2.33
	c0.08-0.01,0.12-0.1,0.08-0.17c-3.37-5.07-8.16-6.76-14.14-6.81c-6.04-0.04-14.77,1.38-22.14,2.17c-7.37,0.79-21.68,2.1-26.24-0.65
	c-4.56-2.75-3.56-4.45-0.91-9.83c2.66-5.38,9.69-11,14.27-13.73c7.41-4.41,11.2-6.47,13.98-6.4c1.63,0.04,2.69,1.06,3.22,1.73
	c0.28,0.35,0.37,0.8,0.3,1.24c-0.48,2.69-1.62,4.26-2.21,4.92c-0.18,0.2-0.49,0.18-0.65-0.03c-1.06-1.42-2.43-1.79-3.41-1.82
	c-3.76-0.09-15.55,7.21-19.21,10.28c-2.72,2.28-4.42,4.32-4.95,5c-0.13,0.16-0.16,0.38-0.09,0.57c0.67,1.86,4.24,3.5,10.61,3.62
	c6.76,0.13,10.27-0.27,13.42-0.45c3.16-0.17,16.34-1.49,24.03-2.08c7.69-0.59,10.27,0.47,14.48,3.17c3.23,2.07,4.39,5.26,4.75,6.64
	c0.12,0.44,0.08,0.89-0.09,1.31c-0.23,0.54-0.66,1.5-1.48,3.1c-0.87,1.71-1.62,2.7-2.1,3.23c-0.31,0.35-0.74,0.56-1.22,0.62
	c-4.39,0.54-12.61,1.85-18.39,3.04c-6.07,1.24-18.11,4.11-34,5.52c-9.07,0.81-20.3,0.79-24.8-0.31
	C541,93.18,537.93,89.53,535.68,85.6z"/>
<g>
	<polygon class="st12" points="494.46,108.18 487.53,103.27 491.8,97.59 498.72,102.5 	"/>
</g>
<g>
	<polygon class="st12" points="504.61,61.56 497.68,56.65 501.95,50.97 508.87,55.88 	"/>
</g>
<g>
	<polygon class="st12" points="476.96,108.25 470.03,103.34 474.3,97.67 481.22,102.58 	"/>
</g>
<g>
	<polygon class="st12" points="466.95,109.36 460.03,104.45 464.29,98.77 471.21,103.68 	"/>
</g>
<g>
	<g>
		<polygon class="st12" points="440.98,50.26 434.06,45.35 438.32,39.67 445.24,44.58 		"/>
	</g>
	<g>
		<polygon class="st12" points="430.97,51.36 424.05,46.45 428.31,40.77 435.24,45.68 		"/>
	</g>
</g>
<path class="st12" d="M438.73,77.82c-0.01-0.1-0.16-0.12-0.19-0.02l-1.33,3.97c-0.26,0.78-0.81,1.45-1.55,1.84
	c-3.21,1.67-7.11,2.42-8.65,2.28c-1.73-0.15-2.78-1.77-2.45-3.78c0.33-2,1.63-5.64,2.84-7.96c1.55-2.97,8.44-8.09,11.13-10.14
	c2.31-1.76,5.38-5.19,6.21-6.13c0.06-0.06,0.17-0.01,0.15,0.07c-0.97,4.37-4.84,8.14-5.92,9.29c-1.11,1.17-7.58,6.64-8.24,7.17
	c-0.66,0.53-3.92,3.15-3.38,4.27c0.54,1.12,2,1.05,5.23,0.38c2.32-0.48,4.29-1.57,5.21-2.14c0.35-0.22,0.54-0.61,0.48-1.01
	c-0.12-0.86-0.34-2.4-0.56-3.51c-0.98-4.92-2.46-9.12-2.87-10.22c-0.07-0.19-0.07-0.39-0.01-0.58l1.7-5.23
	c0.09-0.28,0.49-0.29,0.61-0.02c2.08,4.75,2.63,6.98,4.02,16.59c1.82,12.63,6.29,13.97,9.88,13.94c1.36-0.01,7.23-1.4,7.33-4.35
	c0.1-2.95-1.06-14.95-1.21-16.5c-0.15-1.51-1.17-14.25-2.14-18.39c-0.04-0.18-0.04-0.37,0.01-0.55l1.92-7.09
	c0.04-0.14,0.24-0.16,0.31-0.03c0.4,0.77,1.29,3.06,2.04,9c1,7.89,1.6,21.38,2.17,26.61c0.57,5.23,1.55,11.58,8.45,11.98
	c2.17,0.12,6.33-0.57,8.23-3.41c1.9-2.85,3.32-5.22,4.29-4.91c0.97,0.31,0.28,2.18,0.24,2.44c-0.04,0.25-0.15,4.71,4.59,4.88
	c2.61,0.09,7.26-1.48,7.12-2.77c-0.28-2.6-2.41-12.51-5.03-18.58c-0.06-0.14-0.07-0.3-0.02-0.45l1.61-5.15
	c0.11-0.34,0.6-0.38,0.75-0.05c1,2.14,3.42,7.49,4.06,10.62c0.82,3.99,1.46,8,1.93,9.8c0.48,1.8,1.72,5.96,5.77,6.19
	c3.27,0.19,5.79-1.74,6.64-2.49c0.2-0.17,0.27-0.43,0.2-0.68c-0.35-1.16-1.53-4.66-3.8-7.01c-0.22-0.23-0.32-0.55-0.25-0.86
	l1.35-5.4c0.09-0.34,0.53-0.45,0.77-0.19c0.88,0.98,2.59,3.27,3.87,7.36c0.47,1.51,0.96,4.86-0.22,10.47
	c-0.03,0.13-0.09,0.26-0.18,0.36c-0.77,0.87-4.7,4.97-9.41,4.85c-5.07-0.13-6.55-7.22-6.64-7.52c0,0-0.47,0.27-0.86,1.64
	c-0.38,1.37-1.09,3.82-3.15,4.87c-2.01,1.01-4.22,1.49-5.96,1.39c-1.74-0.1-3.83-1.04-4.75-4.12c-0.36-1.22-0.51-2.44-0.75-2.47
	c-0.24-0.03-1.25,0.84-2.44,3.05c-1.19,2.21-3.88,4.66-9.38,4.61c-5.5-0.04-8.24-4.63-9.22-9.95c0,0-0.69,2.9-1.47,4.73
	c-0.78,1.83-2.49,2.75-4.12,3.46c-1.63,0.71-7.44,1.67-10.97-2.74C441.51,88,439.4,85.42,438.73,77.82z"/>
</svg>
