<?xml version="1.0" encoding="utf-8"?>
<!-- Generator: Adobe Illustrator 24.0.2, SVG Export Plug-In . SVG Version: 6.00 Build 0)  -->
<svg version="1.1" id="Layer_1" xmlns="http://www.w3.org/2000/svg" xmlns:xlink="http://www.w3.org/1999/xlink" x="0px" y="0px"
	 viewBox="0 0 831.21 192.69" style="enable-background:new 0 0 831.21 192.69;" xml:space="preserve">
<style type="text/css">
	.st0{fill:#2C1C52;}
	.st1{fill:#B1B1B1;}
	.st2{fill:#5B358B;}
	.st3{fill:#BEB9DC;}
	.st4{fill:#745FA5;}
	.st5{fill:#8770AF;}
	.st6{fill:#947FB8;}
	.st7{fill:#D4C7E2;}
	.st8{fill:#5A358B;}
	.st9{fill:#C5B8DA;}
	.st10{fill:#997AB4;}
	.st11{fill:#5E4C99;}
	.st12{fill:#59348A;}
	.st13{fill:#B5A0CC;}
	.st14{fill:#5F519C;}
	.st15{fill:#362467;}
</style>
<g>
	<g>
		<g>
			<path class="st0" d="M244.01,140.57v7.14h-4.09v-19.52h8c2.23,0,3.96,0.55,5.2,1.66c1.24,1.11,1.86,2.63,1.86,4.57
				c0,1.27-0.31,2.41-0.94,3.4c-0.63,1-1.5,1.71-2.6,2.14l4.11,7.75h-4.63l-3.64-7.14H244.01z M244.01,131.38v6.22h3.52
				c1.03,0,1.83-0.27,2.4-0.83c0.57-0.55,0.86-1.31,0.86-2.29c0-0.95-0.3-1.7-0.89-2.27c-0.6-0.56-1.4-0.85-2.41-0.85H244.01z"/>
			<path class="st0" d="M270.79,144.33v3.38h-12.93v-19.52h12.93v3.37h-8.85v4.71h8.35v3.14h-8.35v4.92H270.79z"/>
			<path class="st0" d="M291.39,139.52c0,2.66-0.76,4.75-2.29,6.26c-1.53,1.51-3.65,2.27-6.37,2.27c-2.92,0-5.22-0.9-6.89-2.71
				c-1.67-1.8-2.51-4.29-2.51-7.46c0-3.12,0.83-5.57,2.5-7.36c1.67-1.79,3.94-2.68,6.81-2.68c2.27,0,4.2,0.61,5.78,1.84
				c1.58,1.23,2.51,2.83,2.8,4.8h-4.1c-0.3-1.02-0.84-1.82-1.63-2.4c-0.79-0.58-1.73-0.87-2.83-0.87c-1.61,0-2.88,0.58-3.79,1.75
				c-0.91,1.16-1.37,2.78-1.37,4.86c0,2.11,0.48,3.77,1.43,4.99c0.95,1.22,2.24,1.83,3.88,1.83c1.33,0,2.42-0.37,3.27-1.12
				c0.84-0.75,1.29-1.73,1.33-2.94l0.01-0.31h-4.25v-2.98h8.23V139.52z"/>
			<path class="st0" d="M307.21,144.33v3.38h-12.93v-19.52h12.93v3.37h-8.85v4.71h8.35v3.14h-8.35v4.92H307.21z"/>
			<path class="st0" d="M314.26,147.72h-3.91v-19.52h3.41l9.12,12.72h0.11v-12.72h3.91v19.52h-3.38l-9.13-12.79h-0.12V147.72z"/>
			<path class="st0" d="M338.97,148.05c-2.85,0-5.1-0.9-6.76-2.7c-1.66-1.8-2.48-4.27-2.48-7.41c0-3.13,0.83-5.59,2.49-7.39
				c1.66-1.8,3.91-2.7,6.75-2.7c1.55,0,2.96,0.31,4.23,0.92c1.27,0.61,2.28,1.48,3.05,2.6c0.77,1.12,1.2,2.39,1.3,3.83h-3.98
				c-0.19-1.2-0.71-2.16-1.55-2.88c-0.84-0.72-1.86-1.08-3.05-1.08c-1.54,0-2.77,0.6-3.69,1.81c-0.92,1.21-1.38,2.84-1.38,4.88
				c0,2.08,0.46,3.73,1.37,4.93s2.15,1.81,3.72,1.81c1.21,0,2.22-0.33,3.04-1c0.82-0.67,1.34-1.58,1.56-2.73h3.98
				c-0.23,2.17-1.11,3.9-2.67,5.19C343.35,147.41,341.37,148.05,338.97,148.05z"/>
			<path class="st0" d="M359.91,147.72h-4.09v-7.29l-6.79-12.23h4.45l4.37,8.33h0.09l4.38-8.33h4.38l-6.81,12.23V147.72z"/>
			<path class="st0" d="M391.54,147.72h-4.09v-8.23h-8.79v8.23h-4.09v-19.52h4.09v7.93h8.79v-7.93h4.09V147.72z"/>
			<path class="st0" d="M396.91,130.57c1.69-1.81,3.98-2.72,6.88-2.72s5.19,0.91,6.88,2.72c1.69,1.81,2.54,4.28,2.54,7.39
				c0,3.1-0.85,5.56-2.54,7.37c-1.7,1.81-3.99,2.72-6.87,2.72c-2.9,0-5.19-0.91-6.88-2.72c-1.69-1.81-2.54-4.27-2.54-7.37
				C394.37,134.85,395.22,132.38,396.91,130.57z M407.6,133.08c-0.95-1.21-2.22-1.81-3.82-1.81s-2.87,0.6-3.82,1.81
				c-0.95,1.21-1.43,2.84-1.43,4.88c0,2.04,0.47,3.66,1.42,4.86c0.95,1.21,2.22,1.81,3.83,1.81c1.6,0,2.87-0.6,3.82-1.81
				c0.95-1.2,1.42-2.83,1.42-4.86C409.02,135.91,408.55,134.28,407.6,133.08z"/>
			<path class="st0" d="M424.78,147.72h-4.09v-16.16h-5.64v-3.37h15.38v3.37h-5.66V147.72z"/>
			<path class="st0" d="M445.82,144.33v3.38h-12.93v-19.52h12.93v3.37h-8.85v4.71h8.35v3.14h-8.35v4.92H445.82z"/>
			<path class="st0" d="M461.59,144.33v3.38h-12.62v-19.52h4.09v16.14H461.59z"/>
			<path class="st0" d="M463.47,142.15h3.94c0.09,0.79,0.51,1.44,1.27,1.93c0.75,0.49,1.67,0.74,2.77,0.74
				c1.08,0,1.96-0.23,2.65-0.7c0.68-0.46,1.02-1.06,1.02-1.78c0-0.63-0.25-1.14-0.76-1.53c-0.51-0.39-1.35-0.71-2.53-0.97
				l-2.54-0.55c-3.58-0.77-5.37-2.58-5.37-5.45c0-1.79,0.7-3.23,2.09-4.33s3.19-1.65,5.38-1.65c2.25,0,4.05,0.53,5.4,1.6
				c1.34,1.07,2.03,2.49,2.07,4.27h-3.83c-0.06-0.82-0.43-1.47-1.09-1.94c-0.66-0.47-1.51-0.71-2.54-0.71
				c-1.01,0-1.83,0.22-2.44,0.66c-0.62,0.44-0.93,1.02-0.93,1.75c0,0.59,0.25,1.08,0.75,1.45c0.5,0.37,1.31,0.69,2.44,0.95l2.37,0.5
				c1.96,0.41,3.38,1.06,4.28,1.94c0.89,0.88,1.34,2.06,1.34,3.55c0,1.89-0.71,3.4-2.14,4.51c-1.43,1.11-3.35,1.67-5.78,1.67
				c-2.35,0-4.23-0.53-5.62-1.58S463.54,143.99,463.47,142.15z"/>
			<path class="st0" d="M501.22,147.72l-1.5-1.62c-0.72,0.62-1.61,1.11-2.68,1.46c-1.06,0.35-2.19,0.52-3.37,0.52
				c-2.07,0-3.72-0.5-4.95-1.49c-1.24-0.99-1.85-2.32-1.85-3.98c0-1.11,0.29-2.08,0.87-2.92c0.58-0.83,1.5-1.59,2.74-2.28
				c0.05-0.03,0.15-0.08,0.3-0.16c0.14-0.08,0.27-0.15,0.39-0.21c0.11-0.06,0.18-0.1,0.2-0.11c-0.88-0.91-1.51-1.71-1.87-2.38
				s-0.55-1.37-0.55-2.08c0-1.31,0.53-2.39,1.58-3.25c1.05-0.86,2.37-1.29,3.96-1.29c1.6,0,2.9,0.42,3.92,1.25
				c1.01,0.83,1.52,1.91,1.52,3.21c0,1-0.32,1.91-0.96,2.73c-0.64,0.82-1.64,1.6-2.99,2.34l3.71,4c0.47-0.83,0.7-2.06,0.7-3.69
				v-1.03h3.29v1.26c0,2.41-0.55,4.38-1.65,5.9l3.64,3.8H501.22z M492.63,139.29c-0.74,0.47-1.27,0.94-1.59,1.4
				c-0.32,0.46-0.48,1-0.48,1.6c0,0.88,0.32,1.58,0.97,2.11s1.5,0.8,2.54,0.8c0.7,0,1.38-0.12,2.03-0.37
				c0.65-0.24,1.16-0.57,1.54-0.99l-4.48-4.84C493.06,139.06,492.88,139.15,492.63,139.29z M494.13,135.63
				c0.88-0.46,1.52-0.92,1.91-1.39c0.39-0.46,0.58-0.99,0.58-1.58c0-0.62-0.2-1.13-0.6-1.52c-0.4-0.39-0.91-0.59-1.54-0.59
				c-0.63,0-1.15,0.2-1.56,0.59c-0.41,0.4-0.61,0.9-0.61,1.52c0,0.45,0.13,0.9,0.41,1.33S493.46,134.98,494.13,135.63z"/>
			<path class="st0" d="M529.85,147.72h-4.09v-8.23h-8.79v8.23h-4.09v-19.52h4.09v7.93h8.79v-7.93h4.09V147.72z"/>
			<path class="st0" d="M535.21,130.57c1.69-1.81,3.98-2.72,6.88-2.72s5.19,0.91,6.88,2.72c1.69,1.81,2.54,4.28,2.54,7.39
				c0,3.1-0.85,5.56-2.54,7.37c-1.7,1.81-3.99,2.72-6.87,2.72c-2.9,0-5.19-0.91-6.88-2.72c-1.69-1.81-2.54-4.27-2.54-7.37
				C532.68,134.85,533.52,132.38,535.21,130.57z M545.91,133.08c-0.95-1.21-2.22-1.81-3.82-1.81s-2.87,0.6-3.82,1.81
				c-0.95,1.21-1.43,2.84-1.43,4.88c0,2.04,0.47,3.66,1.42,4.86c0.95,1.21,2.22,1.81,3.83,1.81c1.6,0,2.87-0.6,3.82-1.81
				c0.95-1.2,1.42-2.83,1.42-4.86C547.33,135.91,546.86,134.28,545.91,133.08z"/>
			<path class="st0" d="M553.6,142.15h3.94c0.09,0.79,0.51,1.44,1.27,1.93c0.75,0.49,1.67,0.74,2.77,0.74c1.08,0,1.96-0.23,2.65-0.7
				c0.68-0.46,1.02-1.06,1.02-1.78c0-0.63-0.25-1.14-0.76-1.53c-0.51-0.39-1.35-0.71-2.53-0.97l-2.54-0.55
				c-3.58-0.77-5.37-2.58-5.37-5.45c0-1.79,0.7-3.23,2.09-4.33s3.19-1.65,5.38-1.65c2.25,0,4.05,0.53,5.4,1.6
				c1.34,1.07,2.03,2.49,2.07,4.27h-3.83c-0.06-0.82-0.43-1.47-1.09-1.94c-0.66-0.47-1.51-0.71-2.54-0.71
				c-1.01,0-1.83,0.22-2.44,0.66c-0.62,0.44-0.93,1.02-0.93,1.75c0,0.59,0.25,1.08,0.75,1.45c0.5,0.37,1.31,0.69,2.44,0.95l2.37,0.5
				c1.96,0.41,3.38,1.06,4.28,1.94c0.89,0.88,1.34,2.06,1.34,3.55c0,1.89-0.71,3.4-2.14,4.51c-1.43,1.11-3.35,1.67-5.78,1.67
				c-2.35,0-4.23-0.53-5.62-1.58S553.66,143.99,553.6,142.15z"/>
			<path class="st0" d="M572.02,128.19h7.94c2.01,0,3.64,0.61,4.89,1.84c1.25,1.23,1.87,2.84,1.87,4.84c0,1.99-0.65,3.61-1.93,4.84
				c-1.29,1.23-2.97,1.85-5.03,1.85h-3.65v6.16h-4.09V128.19z M576.11,131.43v6.94h2.76c1.17,0,2.08-0.3,2.73-0.91
				s0.97-1.46,0.97-2.57c0-1.11-0.32-1.96-0.97-2.56c-0.65-0.6-1.55-0.9-2.73-0.9H576.11z"/>
			<path class="st0" d="M593.42,147.72h-4.09v-19.52h4.09V147.72z"/>
			<path class="st0" d="M605.61,147.72h-4.09v-16.16h-5.64v-3.37h15.38v3.37h-5.66V147.72z"/>
			<path class="st0" d="M626.51,147.72l-1.49-4.74h-6.86l-1.49,4.74h-4.19l6.78-19.52h4.8l6.79,19.52H626.51z M621.54,131.93l-2.5,8
				h5.1l-2.5-8H621.54z"/>
			<path class="st0" d="M645.66,144.33v3.38h-12.62v-19.52h4.09v16.14H645.66z"/>
			<path class="st0" d="M647.54,142.15h3.94c0.09,0.79,0.51,1.44,1.27,1.93c0.75,0.49,1.67,0.74,2.77,0.74
				c1.08,0,1.96-0.23,2.65-0.7c0.68-0.46,1.02-1.06,1.02-1.78c0-0.63-0.25-1.14-0.76-1.53c-0.51-0.39-1.35-0.71-2.53-0.97
				l-2.54-0.55c-3.58-0.77-5.37-2.58-5.37-5.45c0-1.79,0.7-3.23,2.09-4.33s3.19-1.65,5.38-1.65c2.25,0,4.05,0.53,5.4,1.6
				c1.34,1.07,2.03,2.49,2.07,4.27h-3.83c-0.06-0.82-0.43-1.47-1.09-1.94c-0.66-0.47-1.51-0.71-2.54-0.71
				c-1.01,0-1.83,0.22-2.44,0.66c-0.62,0.44-0.93,1.02-0.93,1.75c0,0.59,0.25,1.08,0.75,1.45c0.5,0.37,1.31,0.69,2.44,0.95l2.37,0.5
				c1.96,0.41,3.38,1.06,4.28,1.94c0.89,0.88,1.34,2.06,1.34,3.55c0,1.89-0.71,3.4-2.14,4.51c-1.43,1.11-3.35,1.67-5.78,1.67
				c-2.35,0-4.23-0.53-5.62-1.58S647.6,143.99,647.54,142.15z"/>
			<path class="st0" d="M680.27,148.05c-2.85,0-5.1-0.9-6.76-2.7c-1.66-1.8-2.48-4.27-2.48-7.41c0-3.13,0.83-5.59,2.49-7.39
				c1.66-1.8,3.91-2.7,6.75-2.7c1.55,0,2.96,0.31,4.23,0.92c1.27,0.61,2.28,1.48,3.05,2.6c0.77,1.12,1.2,2.39,1.3,3.83h-3.98
				c-0.19-1.2-0.71-2.16-1.55-2.88c-0.84-0.72-1.86-1.08-3.05-1.08c-1.54,0-2.77,0.6-3.69,1.81c-0.92,1.21-1.38,2.84-1.38,4.88
				c0,2.08,0.46,3.73,1.37,4.93s2.15,1.81,3.72,1.81c1.21,0,2.22-0.33,3.04-1c0.82-0.67,1.34-1.58,1.56-2.73h3.98
				c-0.23,2.17-1.11,3.9-2.67,5.19C684.64,147.41,682.67,148.05,680.27,148.05z"/>
			<path class="st0" d="M693.5,130.57c1.69-1.81,3.98-2.72,6.88-2.72s5.19,0.91,6.88,2.72c1.69,1.81,2.54,4.28,2.54,7.39
				c0,3.1-0.85,5.56-2.54,7.37c-1.7,1.81-3.99,2.72-6.87,2.72c-2.9,0-5.19-0.91-6.88-2.72c-1.69-1.81-2.54-4.27-2.54-7.37
				C690.96,134.85,691.81,132.38,693.5,130.57z M704.19,133.08c-0.95-1.21-2.22-1.81-3.82-1.81s-2.87,0.6-3.82,1.81
				c-0.95,1.21-1.43,2.84-1.43,4.88c0,2.04,0.47,3.66,1.42,4.86c0.95,1.21,2.22,1.81,3.83,1.81c1.6,0,2.87-0.6,3.82-1.81
				c0.95-1.2,1.42-2.83,1.42-4.86C705.61,135.91,705.14,134.28,704.19,133.08z"/>
			<path class="st0" d="M733.29,147.72h-3.64v-13.18h-0.11l-5.3,12.99h-2.57l-5.3-12.99h-0.11v13.18h-3.64v-19.52h4.74l5.55,13.84
				H723l5.55-13.84h4.74V147.72z"/>
			<path class="st0" d="M736.73,128.19h7.94c2.01,0,3.64,0.61,4.89,1.84c1.25,1.23,1.87,2.84,1.87,4.84c0,1.99-0.65,3.61-1.93,4.84
				c-1.29,1.23-2.97,1.85-5.03,1.85h-3.65v6.16h-4.09V128.19z M740.81,131.43v6.94h2.76c1.17,0,2.08-0.3,2.73-0.91
				s0.97-1.46,0.97-2.57c0-1.11-0.32-1.96-0.97-2.56c-0.65-0.6-1.55-0.9-2.73-0.9H740.81z"/>
			<path class="st0" d="M766.82,147.72l-1.49-4.74h-6.86l-1.49,4.74h-4.19l6.78-19.52h4.8l6.79,19.52H766.82z M761.86,131.93l-2.5,8
				h5.1l-2.5-8H761.86z"/>
			<path class="st0" d="M777.26,147.72h-3.91v-19.52h3.41l9.12,12.72h0.11v-12.72h3.91v19.52h-3.38l-9.13-12.79h-0.12V147.72z"/>
			<path class="st0" d="M802.97,147.72h-4.09v-7.29l-6.79-12.23h4.45l4.37,8.33h0.09l4.38-8.33h4.38l-6.81,12.23V147.72z"/>
		</g>
	</g>
	<rect x="211.4" y="7.77" class="st1" width="1.9" height="178.3"/>
	<g>
		
			<rect x="685.87" y="86.38" transform="matrix(0.833 0.5533 -0.5533 0.833 164.6189 -366.5274)" class="st2" width="7.2" height="6.1"/>
	</g>
	<g>
		
			<rect x="677.51" y="87.73" transform="matrix(0.833 0.5533 -0.5533 0.833 163.9652 -361.674)" class="st2" width="7.2" height="6.1"/>
	</g>
	<g>
		
			<rect x="651.96" y="98.83" transform="matrix(0.833 0.5533 -0.5533 0.833 165.8392 -345.682)" class="st2" width="7.2" height="6.1"/>
	</g>
	<g>
		
			<rect x="625.7" y="108.33" transform="matrix(0.833 0.5533 -0.5533 0.833 166.7099 -329.5693)" class="st2" width="7.2" height="6.1"/>
	</g>
	<g>
		
			<rect x="617.33" y="109.67" transform="matrix(0.833 0.5533 -0.5533 0.833 166.0562 -324.716)" class="st2" width="7.2" height="6.1"/>
	</g>
	<g>
		
			<rect x="306.78" y="104.35" transform="matrix(0.8245 0.5658 -0.5658 0.8245 115.2312 -156.773)" class="st2" width="7.2" height="6.1"/>
	</g>
	<g>
		
			<rect x="298.39" y="105.57" transform="matrix(0.8245 0.5658 -0.5658 0.8245 114.4483 -151.8145)" class="st2" width="7.2" height="6.1"/>
	</g>
	<g>
		<path class="st2" d="M792.85,95.5c3.37,0,5.28-3.04,5.84-3.9c0.36-0.55,0.68-1.13,0.87-1.48c0.05-0.1,0.2-0.08,0.22,0.03
			c0.45,2.58,2.78,3.6,4.07,3.73c1.35,0.13,3.2-0.2,4.2-1.86c0.9-1.5,2.32-4.97,2.4-7.84c0.05-1.93-0.64-3.76-0.91-4.41
			c-0.04-0.1-0.18-0.1-0.22,0c-0.67,1.53-1.76,4.52-2.05,5.32c-0.05,0.13-0.04,0.26,0.02,0.39c0.18,0.39,0.59,1.32,0.69,2.12
			c0,0-1.37,0.54-2.64,0.32c-1.22-0.21-2.64-0.86-3.19-2.69c-0.04-0.12-0.03-0.25,0.02-0.37c0.28-0.69,1.28-3.21,1.15-3.4
			c-0.15-0.23-1.95,1.62-2.46,2.79c-0.51,1.17-2.24,5.02-6.8,5.21c-1.39,0.06-3.34-0.28-4.97-2.68c-1.78-2.63-4.67-2.54-5.09-2.54
			c-2.29,0-7.98,1.41-12.18,6.4c-4.2,4.99-11.65,16.8-18.88,16.8c-7.09,0-2.52-13.75-1.56-15.49l-0.87-1.41c0,0-2.7,6.32-2.87,11.27
			c-0.18,5.25,2.45,10.32,7.9,10.32c3.64,0,7.46-4.23,10.72-8.22c1.4-1.72,3.86-4.9,5.26-6.64c1.32-1.64,5.86-6.92,11.86-6.92
			c1.78,0,3.17,0.9,4.06,1.91C788.33,93.25,789.29,95.5,792.85,95.5z"/>
		<path class="st2" d="M755.41,69.7c-1.05-1.02-5.28-4.9-5.01-5.22c0.51-0.62,4.85,2.24,5.09,1.59c0.24-0.65-2.1-2.72-3.12-3.58
			c-0.83-0.7-4.51-3.39-5.86-4.38c-0.24-0.18-0.23-0.55,0.03-0.7c2.63-1.49,10.61-4.45,18.42-7.26c8.46-3.04,13.03-3.8,15.92-3.99
			c2.88-0.19,3.47,1.29,3.15,2.69c-0.32,1.4-2.05,3.58-4.79,8.08c-2.1,3.44-2.75,6.02-2.94,7.04c-0.02,0.1,0.12,0.15,0.17,0.06
			c0.65-1.12,2.48-4.25,3.85-6.34c1.57-2.4,6.25-9.61,6.25-13.81c0-4.2-3.08-3.83-6.36-3.12c-4.01,0.86-13.64,3.6-18.97,5.61
			c-5.33,2.02-16,5.32-16.79,7.66c-0.47,1.39-1.26,4.15-1.18,7.63c0,0.13,0.06,0.24,0.16,0.32c0.32,0.25,1.07,0.83,1.34,1.23
			c1.07,1.6,3.13,4.65,5.03,6.97c1.56,1.9,4.42,5,6.24,6.5c2.29,1.89,9.23,6.89,9.23,10c0,0,0.02,0.36-0.99,0.99
			c-1.01,0.63-5.49,3.15-8.1,3.15s-4.99-2.14-6.58-4.89c-1.6-2.75-2.59-5.12-3.88-5.21c-1.15-0.08-4.74,1.64-7.9,7.17
			c-1.13,1.98-2.6,6.66-2.93,7.69c-0.71,2.24-2.46,6.02-4.58,6.02c-2.12,0-6.03-3.2-6.62-9.83c-0.59-6.62-0.01-10.08-0.32-10.23
			c-0.38-0.19-1.29,4.19-1.29,10.18c0,6.84,3.82,14.54,8.75,14.54c1.7,0,3.17-1.46,4.71-6.3c1.13-3.55,2.87-7.49,4.58-9.48
			c1.64-1.91,3.55-3.55,4.85-3.55c1.29,0,3.02,3.82,3.61,4.85c0.59,1.02,3.5,5.33,6.65,5.33c2.83,0,9.72-3.2,10.29-5.71
			c0.57-2.5,2.68-9.95-0.75-13.55C761.46,74.41,757.96,72.18,755.41,69.7z"/>
		<g>
			
				<rect x="790.17" y="69.48" transform="matrix(0.8402 0.5422 -0.5422 0.8402 166.1396 -418.8098)" class="st2" width="7.2" height="6.1"/>
		</g>
		<g>
			
				<rect x="799.26" y="68.3" transform="matrix(0.8402 0.5422 -0.5422 0.8402 166.9565 -423.925)" class="st2" width="7.2" height="6.1"/>
		</g>
		<g>
			
				<rect x="792.63" y="61.24" transform="matrix(0.8402 0.5422 -0.5422 0.8402 162.0652 -421.4623)" class="st2" width="7.2" height="6.1"/>
		</g>
		<g>
			
				<rect x="733.99" y="61.52" transform="matrix(0.8402 0.5422 -0.5422 0.8402 152.8511 -389.6223)" class="st2" width="7.2" height="6.1"/>
		</g>
		<g>
			
				<rect x="736.63" y="70.24" transform="matrix(0.8402 0.5422 -0.5422 0.8402 158.0033 -389.6601)" class="st2" width="7.2" height="6.1"/>
		</g>
		<g>
			
				<rect x="643.03" y="45.86" transform="matrix(0.833 0.5533 -0.5533 0.833 135.0445 -349.5922)" class="st2" width="7.2" height="6.1"/>
		</g>
		<g>
			
				<rect x="561.61" y="61.45" transform="matrix(0.833 0.5533 -0.5533 0.833 130.0717 -301.9417)" class="st2" width="7.2" height="6.1"/>
		</g>
		<g>
			
				<rect x="540.12" y="65.31" transform="matrix(0.833 0.5533 -0.5533 0.833 128.6209 -289.4075)" class="st2" width="7.2" height="6.1"/>
		</g>
		<g>
			
				<rect x="488.27" y="50.88" transform="matrix(0.833 0.5533 -0.5533 0.833 111.9758 -263.1297)" class="st2" width="7.2" height="6.1"/>
		</g>
		<g>
			
				<rect x="479.9" y="52.22" transform="matrix(0.833 0.5533 -0.5533 0.833 111.3221 -258.2764)" class="st2" width="7.2" height="6.1"/>
		</g>
		<g>
			
				<rect x="369.6" y="52.45" transform="matrix(0.8245 0.5658 -0.5658 0.8245 96.8876 -201.4229)" class="st2" width="7.2" height="6.1"/>
		</g>
		<g>
			
				<rect x="361.21" y="53.67" transform="matrix(0.8245 0.5658 -0.5658 0.8245 96.1047 -196.4644)" class="st2" width="7.2" height="6.1"/>
		</g>
		<g>
			
				<rect x="342.31" y="65.62" transform="matrix(0.8245 0.5658 -0.5658 0.8245 99.5512 -183.6716)" class="st2" width="7.2" height="6.1"/>
		</g>
		<g>
			
				<rect x="351.42" y="64.71" transform="matrix(0.8245 0.5658 -0.5658 0.8245 100.6343 -188.9911)" class="st2" width="7.2" height="6.1"/>
		</g>
		<g>
			
				<rect x="345" y="57.45" transform="matrix(0.8245 0.5658 -0.5658 0.8245 95.4032 -186.6305)" class="st2" width="7.2" height="6.1"/>
		</g>
		<g>
			
				<rect x="324.41" y="61.38" transform="matrix(0.8245 0.5658 -0.5658 0.8245 94.0142 -174.2895)" class="st2" width="7.2" height="6.1"/>
		</g>
		<g>
			
				<rect x="264.66" y="61.35" transform="matrix(0.8245 0.5658 -0.5658 0.8245 83.5133 -140.4875)" class="st2" width="7.2" height="6.1"/>
		</g>
		<g>
			
				<rect x="256.28" y="62.57" transform="matrix(0.8245 0.5658 -0.5658 0.8245 82.7319 -135.5304)" class="st2" width="7.2" height="6.1"/>
		</g>
		<path class="st2" d="M578.77,89.97c0,0-3.83,4.61-8.35,4.58c-4.31-0.03-6.44-2.08-8.8-4.72c-1.14-1.28-2.17-3.06-1.33-6.11
			c0.49-1.75,0.68-2.65,1.33-4.07c0.63-1.39,5.59-7.24,8.01-7.14c1.01,0.04,1.96,3.76,1.34,7.34c-0.74,4.31-2.17,8.31-2.21,8.56
			c-0.04,0.24-0.45,1.77-0.82,2.15c-0.37,0.38-8.25,5.08-12.23,5.03c-3.79-0.05-5.5-3.54-5.38-5.74c0.01-0.11-0.13-0.17-0.21-0.09
			c-0.27,0.26-0.74,0.78-1.3,1.62c-0.89,1.32-2.84,5.62-8.15,5.55c-1.9-0.03-8.55-1.8-8.51-13.6c0.05-11.68-0.32-29.09-2.88-35.87
			c-0.05-0.13-0.06-0.26-0.02-0.39l1.66-5.54c0.05-0.17,0.29-0.19,0.36-0.02c0.52,1.22,1.9,5.66,2.93,20.58
			c0.33,4.82,0.17,13.45,0.19,15.23c0.02,1.78-0.32,13.41,6.75,13.5c2.17,0.03,5.38-0.86,7.11-3.21c1.73-2.35,2.88-4.27,3.99-4.42
			c0.38-0.05,0.09,1.35-0.3,2.34c0,0,0.35,3.92,4.52,4.05c2.99,0.09,8.25-2.37,12.1-4.74c0,0,0.7-5.3-0.97-6.37
			c-0.41-0.27-3.44,1.4-5.21,3.84c-0.12,0.16-0.13,0.38-0.05,0.56c0.58,1.2,3.11,5.59,9.08,5.69c2.35,0.04,4.81-1.05,6.42-2.65
			c0.13-0.13,0.19-0.3,0.19-0.47c-0.01-1.73-0.06-11.18-0.5-16.75c-0.48-6.05-1.35-17.73-1.98-20.81c-0.02-0.1-0.02-0.19,0.01-0.29
			l1.7-5.59c0.05-0.15,0.27-0.15,0.31,0c0.37,1.4,1.36,5.78,2.19,15.05c1.17,13.07,1.29,15.82,1.77,22.92
			c0.43,6.33,3.03,6.75,4.97,6.77c2.27,0.03,4.72-1.57,4.72-1.57c0.51-4.8-2.26-24.43-2.55-27.08c-0.36-3.26-0.99-7.83-1.08-8.8
			c-0.07-0.73-0.73-1.67-0.98-2.09c-0.08-0.14-0.09-0.31-0.02-0.46l2.45-5.3c0.09-0.19,0.36-0.19,0.45,0
			c0.88,1.89,4.1,8.83,4.85,10.51c0.86,1.95,1.49,4.29,1.09,4.68c-0.4,0.39-3.69-4.04-4.12-3.89c-0.34,0.12,0.48,5.56,0.73,7.73
			c0.36,3.1,1.28,10.16,1.51,12.81c0.23,2.64,0.25,11.65-3.02,17.38c-0.37,0.64-3.29,2-5.26,1.98c-1.97-0.03-5.34-1.36-5.5-7.8
			C579.78,84.84,579.51,89.3,578.77,89.97z"/>
		<path class="st2" d="M582.76,88.58c-1.31,3.79-2.41,9.39-0.46,14.99c3.42,9.85,13.7,10.85,15.53,10.87
			c2.74,0.04,9.04-0.26,23.15-9.88c0.74-0.5,1.35-1.17,1.77-1.95c0.61-1.15,1.49-3.02,2.11-5.28c1.06-3.82-0.84-6.43-4.39-6.99
			c-3.47-0.55-12.03-1.03-12.51-5.3c-0.02-0.18,0.04-0.36,0.15-0.5c0.86-1.1,4.82-5.99,7.59-5.95c1.51,0.02,1.88,0.38,2.95,3.06
			c1.07,2.68,2.3,7.57,6.23,7.62c3.73,0.05,5.03-3.06,6.03-4.08c0.06-0.06,0.16-0.02,0.16,0.07c0.02,0.85,0.33,3.94,3.72,3.98
			c3.8,0.05,4.25-1.66,5.41-4.73c0.03-0.09,0.17-0.1,0.2,0c0.33,1.11,1.75,4.87,6.28,5.46c4.21,0.55,5.58-4.69,5.97-6.91
			c0.03-0.19,0.3-0.21,0.36-0.02c0.63,2.23,2.84,7.76,9.57,8.21c5,0.34,13.73-5.53,17.25-6.86c4.01-1.51,13.1-3.22,17.69-3.08
			c0.12,0,0.21-0.06,0.27-0.16l2.65-5.1c0.12-0.23-0.06-0.5-0.32-0.48c-1.1,0.09-3.53,0.26-5.53,0.24c-2.86-0.02-20-2.76-23.98-3.67
			c-0.12-0.03-0.14-0.19-0.02-0.24c0.9-0.38,3.26-1.58,5.5-4.46c2.85-3.65,5.57-7.95,7.62-7.79c1.94,0.15,2.64,4.35,1.72,7.69
			c-0.03,0.11,0.11,0.18,0.18,0.09c0.72-0.99,2.33-3.65,2.49-7.58c0.2-5.06-1.57-5.8-2.37-5.85c-0.73-0.04-2.95,1.05-4.54,3.36
			c-1.44,2.1-3.84,6.1-6.77,8.04c-2.93,1.94-4.81,2.2-7.89,2.91c-3.08,0.71-5.78,1.62-6.44,2.37c-0.53,0.61-2.25,4.32-2.87,5.68
			c-0.07,0.15,0.07,0.31,0.23,0.26c0.32-0.11,0.82-0.2,1.6-0.17c1.59,0.07,6.16,0.92,9.03,1.38c2.55,0.42,9.08,1.43,10.54,1.66
			c0.09,0.01,0.11,0.14,0.03,0.18c-1,0.5-4.65,2.3-7.84,3.64c-3.43,1.44-5.6,1.95-7.27,1.87c-0.67-0.03-7.59-0.7-8.99-7.81
			c-1.39-7.07-0.19-8.48-4.91-20.23c-0.03-0.09-0.16-0.09-0.19,0l-1.75,5.95c-0.04,0.14-0.04,0.29,0,0.43
			c0.27,0.85,1.32,4.13,2.07,7.25c0.87,3.62,2.34,9.75,1.75,11.93c-0.56,2.1-5.39,1.39-7.18-0.7c-1.49-1.74-1.71-2.34-1.94-4.08
			c-0.02-0.11-0.01-0.23,0.03-0.34c0.06-0.2,0.12-0.54-0.11-0.62c-0.32-0.11-0.56,0.34-1.03,1.6c-0.47,1.26-0.68,4.66-4.8,4.61
			c-1.22-0.02-3.04-0.43-3.45-2.33c-0.01-0.06-0.01-0.12,0.02-0.18c0.24-0.48,1.45-2.99,0.92-3.14c-0.26-0.07-1.28,1.01-1.51,1.46
			c-0.23,0.45-1.26,4.28-5.82,4.26c-4.12-0.02-5.23-4.68-5.78-6.15c-0.88-2.38-1.46-4.5-3.47-4.53c-2.01-0.03-4.21,1.5-7.95,6.45
			c-1.67,2.21-3.21,6.8-3.64,8.11c-0.42,1.31-1.53,5.61,4.45,7.57c5.89,1.93,10.59,0.67,12.13,3.68c0.04,0.08,0.01,0.18-0.06,0.23
			c-1.46,0.96-14.7,9.85-23.57,9.7c-3.31-0.05-10.99-1.42-13.87-7.91c-1.87-4.22-1.77-8.02-1.43-10.57L582.76,88.58z"/>
		<path class="st2" d="M502.53,69.54c0-0.73,0.01-3.84,0.26-5.74c0.01-0.09,0.1-0.13,0.18-0.1c1.25,0.47,9.57,3.66,9.75,5.16
			c0.04,0.3-3.75-0.49-4.12-0.12c-0.37,0.38,2.83,2.64,4.66,3.8c1.82,1.16,5.27,2.9,8.17,3.99c2.89,1.09,8.09,3.13,7.02,10.65
			c-0.12,0.85-0.51,3.04-0.81,4.66c-0.23,1.25-0.9,2.37-1.9,3.15c-1.72,1.34-4.76,3.67-8.52,6.35c-5.93,4.23-13.82,10.4-18.07,10.35
			c-3.61-0.05-4.68-4.24-4.64-7.23c0.04-2.99,1.66-9.65,1.66-9.65l1-0.2c0,0-1,4.22-1.02,6.02s0.74,4.86,3.44,4.89
			c2.69,0.04,8.29-3.71,11.28-5.72c2.99-2.01,11.39-7.85,12.83-8.83c1.11-0.75,2.56-2,3.17-2.53c0.21-0.18,0.29-0.46,0.22-0.73
			c-0.23-0.98-1.31-3.28-6.27-5.16c-6.49-2.46-11.37-5.57-15.06-10.11c-1.02-1.26-1.74-2.31-3.06-2.71
			C502.6,69.71,502.53,69.64,502.53,69.54z"/>
		<path class="st2" d="M455.56,79.62c-2.17,5.21-2.55,8.83-2.59,11.25c-0.12,9.01,8.22,16.79,18.18,16.92
			c9.96,0.13,18.93-6.64,23.87-10.21c4.94-3.57,5.36-6.45,5.63-7.28c0.27-0.82,2.23-6.94,0.02-12.2c-2.11-5.02-4.93-7.76-7.83-7.8
			c-4.08-0.05-7.05,5.81-6.93,9.14c0.14,3.92,3.08,5.29,4.96,5.34c1.74,0.04,4.45-0.55,5.38-0.53c2.16,0.03,3.41,2.13,3.81,2.94
			c0.09,0.19,0.08,0.41-0.05,0.57c-4.52,6.11-20.49,14.72-28.76,13.98c-11.88-1.07-15.5-7.79-16.26-12.95
			c-0.73-4.92,2.03-10.15,1.5-10.45C456.12,78.12,455.56,79.62,455.56,79.62z M489.24,77.93c-0.06-0.05-0.07-0.14-0.03-0.2
			c0.21-0.33,0.89-1.27,2.03-1.26c1.37,0.02,2.87,1.06,3.4,1.74C494.63,78.21,490.68,79.19,489.24,77.93z"/>
		<path class="st2" d="M470.35,74.87c-2.29-8.11-6.01-9.55-7.64-9.57c-2.4-0.02-6.55,3.41-6.61,8.08c-0.06,4.66,3.86,5.16,5.07,5.17
			c1.22,0.02,2.05-0.38,4.37-0.35c2.32,0.03,3.46,3.26,3.46,3.26c-0.37,1.9-8.23,8.39-18.79,14.01
			c-8.52,4.53-23.26,9.88-26.53,11.05c-0.06,0.02-0.04,0.11,0.03,0.1c5.14-0.98,15.75-2.56,19.78-3.09c1.13-0.15,2.21-0.5,3.22-1.04
			c4.49-2.4,12.39-7.27,14.88-9.03c2.83-2,6.6-5.4,7.26-6.94C470.51,82.65,471.45,78.73,470.35,74.87z M459.02,72.07
			c-0.06-0.04-0.06-0.12-0.01-0.17c0.31-0.28,1.33-1.12,2.4-1.1c1.29,0.02,2.83,1.78,2.83,1.78S461.28,73.65,459.02,72.07z"/>
		<path class="st2" d="M413.83,41.2l-2.45,5.17c-0.08,0.18-0.06,0.38,0.06,0.54c0.27,0.35,0.75,1.11,1.01,2.36
			c0.37,1.82,1.49,10.46,1.94,13.6c0.45,3.14,1.21,8.76,1.93,12.96c0.72,4.19,1.78,9.53,2.74,12.71c0.96,3.18,3.37,8.45,7.65,8.57
			c4.28,0.12,5.78-7.19,5.92-8.13c0.13-0.94,1.46-6.86-5.54-7.05c-5.22-0.15-8.11,6.29-15.1,6.09c-1.99-0.06-4.81-1.32-5.41-4.87
			c0,0,0.32-0.97-0.07-1.16c-0.39-0.19-0.86,0.68-1.4,2.07c-0.54,1.39-0.78,3.12-2,3.51c-1.22,0.39-3.57,1.08-5.23-1.48
			c0,0,1.2-2.78,0.82-2.89c-0.2-0.06-1.35,1.31-1.8,1.87c-0.38,0.47-1.47,4.76-6.58,4.61c-0.98-0.03-2.82,0.07-3.97-2.6
			c0,0,0.85-1.81,0.47-2.18c-0.19-0.18-1.44,0.74-1.76,1.08c-0.32,0.34-2.66,4.17-7.26,4.04c-4.59-0.13-6.34-3.55-6.62-8.87
			c-0.28-5.22-0.21-10.61-2.74-16.8c-0.05-0.12-0.22-0.11-0.26,0l-1.93,5.41c-0.04,0.11-0.04,0.22-0.01,0.33
			c0.24,0.77,1.22,4.16,1.63,8.77c0.47,5.27,0.64,7.05,0.63,8.07c0,0-0.74,1.51-3.68,1.43c-2.93-0.08-4.35-2.55-4.78-4.3
			c0,0,0.34-0.89-0.2-1.03c-0.54-0.14-1.11,1.26-1.58,2.5c-0.47,1.24-1.42,3.45-3.84,3.06c-2.43-0.39-2.86-1.63-2.86-1.63
			s1.77-3.31,1.19-3.52c-0.16-0.06-1.17,0.75-1.35,1.01c-0.18,0.26-1.22,2.67-2.31,3.99c-1.09,1.32-3.06,1.91-4.92,1.85
			c-1.86-0.05-3.22-0.91-4-2.23c0,0,1.51-2.84,0.8-3.17c-0.7-0.33-2.66,1.31-3.67,2.52c-1,1.21-4.28,4.05-9.4,2.29
			c0,0-3.35-2.74-4.26-4.57c-0.05-0.11-0.05-0.24,0.01-0.34c0.93-1.68,4.61-5.11,5.61-4.7c0.92,0.37,0.99,4.08,0.99,4.91
			c0,0.11-0.05,0.2-0.13,0.26c-0.54,0.4-2.69,1.95-5.68,3.24c-3.46,1.49-4.63,1.77-7.18,1.86c-1.67,0.06-3.57-1.03-4.45-3.42
			c-0.07-0.2-0.06-0.42,0.04-0.61c0.32-0.65,1.01-2.16,0.63-2.3c-0.16-0.06-1.62,0.82-1.88,1.04c-0.26,0.22-1.91,2.13-3.99,3.6
			c-2.08,1.46-4.09,2.15-7,2.06c-2.91-0.08-7.16-2.05-7.66-9.35c-0.49-7.25,1.56-26.82-2.44-40.86c-0.03-0.1-0.17-0.1-0.21,0
			l-1.95,5.52c-0.05,0.15-0.05,0.31,0.01,0.45c0.46,1.13,2.45,7,2.43,23.54c-0.01,4.53-0.24,12.72,0.09,16.69
			c0.33,3.97,1.53,9.15,8.24,10.09c1.76,0.25,7.24-0.16,11.56-7.36c0.07-0.11,0.24-0.07,0.24,0.06c-0.01,0.54,0.01,1.46,0.2,2.54
			c0.29,1.75,1.96,4.34,5.41,4.44c3.13,0.09,8.25-2.47,10.08-3.55c1.83-1.08,3.54-2.2,5.02-7.27c1.44-4.93,2.02-10.51-0.18-11.64
			c-1.99-1.03-7.76,5.04-9.07,8.53c-1.09,2.92-1.38,5.17-1.36,5.78c0.02,0.61,0.39,4,4.6,6.64c0.91,0.57,2.28,1.4,4.04,1.45
			c1.76,0.05,4.06-0.61,6.04-2.93c0.48-0.57,1.49-1.75,1.97-1.9c0.05-0.02,0.1,0.02,0.1,0.07c0,0.63,0.18,4.57,5.15,4.71
			c1.55,0.04,3.88-0.81,4.95-2.52c0.77-1.23,1.27-2.23,1.5-2.69c0.03-0.05,0.11-0.03,0.1,0.03c-0.03,0.82,0.16,2.99,3.11,3.5
			c3.71,0.63,4.53-3.82,4.66-4.16c0.22-0.6,0.55-0.83,0.68-0.79c0,0,1.37,4.48,5.66,4.61c2.74,0.08,3.78-1.28,4.63-3.48
			c0.85-2.2,0.95-2.78,1.21-2.77c0.26,0.01,0.18,0.89,0.58,2.38c0.4,1.49,1.92,5.51,6.43,5.64c4.45,0.13,6.67-3.36,7.71-5.02
			c0.01-0.02,0.03-0.01,0.03,0.01c-0.02,0.57,0.04,4.42,4.58,4.55c4.44,0.13,5.63-3.08,6.67-4.95c0.02-0.03,0.06-0.03,0.07,0.01
			c0.16,0.53,1.1,3.23,3.83,3.31c3,0.09,3.95-1.66,5.13-5.07c0.01-0.02,0.04-0.03,0.05,0c0.19,0.64,1.68,5.02,5.85,5.14
			c4.5,0.13,8.06-3.55,11.65-5.41c3.59-1.86,7.75,0,7.93,1.72c0.05,0.45-1.02,0.98-2.76,0.49c-1.74-0.49-4.38-2.41-6.18-9.93
			c-1.63-6.79-4.28-26.2-4.7-29.42c-0.02-0.14,0.14-0.23,0.25-0.14c1.22,1,3.94,4.63,4.23,4.42c0.36-0.26-0.08-2.95-1.8-6.33
			c-1.5-2.94-4.2-7.25-4.88-8.32C414.05,41.07,413.89,41.09,413.83,41.2z"/>
		<path class="st2" d="M277.31,101.27c-0.03,0.04-0.09,0.01-0.08-0.03c0.32-1,1.47-4.2,4.09-7.61c3.16-4.11,4.8-4.93,4.85-6.65
			c0.01-0.48-0.04-1.23-1.41-1.27c-2.56-0.07-16.09,6.26-26.74,6.05c-3.32-0.06-10.62-0.57-14.99-4.19
			c-4.66-3.87-6.05-10.21-0.19-20.14c0.05-0.09,0.18-0.03,0.15,0.06c-0.56,1.52-1.61,4.71-1.52,7.13
			c0.22,5.69,4.13,10.31,15.51,11.48c6.54,0.67,15.22-1.76,20.11-3.14c5.19-1.47,9.74-3.78,11.17-2.54c1.03,0.89,1.46,2.5-1.52,8.01
			C283.67,94.11,279.03,98.55,277.31,101.27z"/>
		<path class="st2" d="M711.34,62.15c-1.43-7.65-1.22-7.41-1.22-7.41c0.43-0.16,3.46,4.26,3.86,3.86c0.4-0.4-0.23-2.79-1.09-4.78
			c-0.74-1.72-3.97-8.81-4.84-10.74c-0.09-0.19-0.36-0.19-0.45,0l-2.41,5.2c-0.07,0.15-0.06,0.32,0.02,0.47
			c0.24,0.42,0.74,1.37,0.81,2.12c0.09,0.99,0.63,5.92,1.21,9.22c0.59,3.3,3.13,19.04,3.7,26.67c-0.68,1.19-1.71,2.33-7.05,4.35
			c-5.33,2.02-8,1.74-13.1,5.06c-2.12,1.38-4.66,3.96-5.76,5.51c-1.1,1.55-7.73,10.13-12.66,10.07c-4.93-0.07-5.69-5.5-3.07-12.12
			c2.62-6.62,5.47-11.07,8.08-14.42c0,0-7.54,6.91-9.45,13.27c-1.76,5.87-1.46,8.64-1.15,10.72c0.46,3.02,2.94,7.99,7.06,8.05
			c4.12,0.05,8.23-5.09,11-8.76c2.77-3.66,5.94-7.42,12.4-9.4c6.46-1.98,11.12-3.79,13.2-6.73c2.09-2.94,3.21-8.88,3.15-12.09
			C713.53,77.67,713.35,72.9,711.34,62.15z"/>
		<path class="st2" d="M727.46,62.06c-0.23-1.72-1.21-8.24-0.87-8.35c0.44-0.14,3.45,4.23,3.86,3.85c0.41-0.38-0.15-2.73-0.96-4.7
			c-0.7-1.7-3.74-8.73-4.56-10.64c-0.08-0.19-0.35-0.2-0.45-0.01l-2.55,5.02c-0.07,0.14-0.07,0.31,0.01,0.46
			c0.23,0.42,0.71,1.37,0.83,2.09c0.2,1.12,0.48,7.52,0.88,10.94c0.4,3.42,1.76,15.08,2.23,19.08c0.45,3.81,1.06,13.2,0.3,16.57
			c-0.02,0.09,0.1,0.14,0.14,0.06c0.92-1.49,3.79-6.96,3.02-16.05C728.43,69.6,727.46,62.06,727.46,62.06z"/>
		<path class="st2" d="M439.48,61c-0.28-1.71-1.48-8.2-1.14-8.32c0.43-0.15,3.58,4.11,3.98,3.72c0.4-0.39-0.24-2.73-1.12-4.67
			c-0.76-1.68-4.02-8.6-4.91-10.48c-0.09-0.19-0.36-0.19-0.45,0l-2.38,5.1c-0.07,0.15-0.06,0.32,0.02,0.46
			c0.24,0.41,0.75,1.34,0.9,2.06c0.23,1.12,0.72,7.5,1.23,10.9c0.51,3.4,2.25,15.01,2.85,19c0.57,3.79,1.49,13.16,0.84,16.55
			c-0.02,0.09,0.1,0.13,0.14,0.06c0.87-1.52,3.56-7.08,2.5-16.14C440.7,68.51,439.48,61,439.48,61z"/>
	</g>
	<g>
		<polygon class="st3" points="183.07,60.73 117.78,6.61 144.92,60.85 		"/>
		<polygon class="st4" points="91.87,35.31 144.92,60.85 117.78,6.61 		"/>
		<polygon class="st5" points="46.9,26.09 91.87,35.31 117.78,6.61 		"/>
		<polygon class="st6" points="94.71,63.17 91.87,35.31 144.92,60.85 125.22,77.32 		"/>
		<polygon class="st7" points="182.91,133.12 144.92,60.85 183.07,60.73 		"/>
		<polygon class="st8" points="125.98,111.35 182.91,133.12 144.92,60.85 125.22,77.32 		"/>
		<polygon class="st9" points="90.74,128.28 85.61,155.98 182.91,133.12 125.97,111.35 		"/>
		<polygon class="st10" points="120.26,186.08 85.61,155.98 182.91,133.12 		"/>
		<polygon class="st6" points="69.26,93.63 40.75,86.97 85.61,155.98 90.74,128.28 		"/>
		<polygon class="st11" points="38.62,159.17 85.61,155.98 120.26,186.08 		"/>
		<polygon class="st12" points="40.75,86.97 85.61,155.98 38.62,159.17 		"/>
		<polygon class="st13" points="40.75,86.97 69.26,93.63 94.71,63.17 91.87,35.31 		"/>
		<polygon class="st14" points="46.9,26.09 14.01,79.59 40.75,86.97 91.87,35.31 		"/>
		<polygon class="st15" points="38.62,159.17 40.75,86.97 14.01,79.59 		"/>
	</g>
</g>
</svg>
